<?xml version="1.0" encoding="UTF-8" standalone="no"?>
<svg
   xmlns:dc="http://purl.org/dc/elements/1.1/"
   xmlns:cc="http://creativecommons.org/ns#"
   xmlns:rdf="http://www.w3.org/1999/02/22-rdf-syntax-ns#"
   xmlns:svg="http://www.w3.org/2000/svg"
   xmlns="http://www.w3.org/2000/svg"
   xmlns:sodipodi="http://sodipodi.sourceforge.net/DTD/sodipodi-0.dtd"
   xmlns:inkscape="http://www.inkscape.org/namespaces/inkscape"
   width="542.03198mm"
   height="20.389452mm"
   viewBox="0 0 542.03198 20.389452"
   version="1.1"
   id="svg8"
   inkscape:version="1.0.1 (3bc2e813f5, 2020-09-07)"
   sodipodi:docname="linkinfo.svg">
  <defs
     id="defs2" />
  <sodipodi:namedview
     id="base"
     pagecolor="#000000"
     bordercolor="#666666"
     borderopacity="1.0"
     inkscape:pageopacity="0"
     inkscape:pageshadow="2"
     inkscape:zoom="0.35"
     inkscape:cx="911.99079"
     inkscape:cy="549.91055"
     inkscape:document-units="mm"
     inkscape:current-layer="text12"
     inkscape:document-rotation="0"
     showgrid="false"
     fit-margin-top="0"
     fit-margin-left="0"
     fit-margin-right="0"
     fit-margin-bottom="0"
     inkscape:window-width="1326"
     inkscape:window-height="1055"
     inkscape:window-x="34"
     inkscape:window-y="0"
     inkscape:window-maximized="0" />
  <metadata
     id="metadata5">
    <rdf:RDF>
      <cc:Work
         rdf:about="">
        <dc:format>image/svg+xml</dc:format>
        <dc:type
           rdf:resource="http://purl.org/dc/dcmitype/StillImage" />
        <dc:title></dc:title>
      </cc:Work>
    </rdf:RDF>
  </metadata>
  <g
     inkscape:label="Layer 1"
     inkscape:groupmode="layer"
     id="layer1"
     transform="translate(-2.4970798,-2.6694991)">
    <g
       aria-label="tune in from Anywhere at https://livingsounds.earth"
       id="text12"
       style="font-style:normal;font-variant:normal;font-weight:normal;font-stretch:normal;font-size:25.4px;line-height:1.25;font-family:'Slow Immediate';-inkscape-font-specification:'Slow Immediate';fill:#ffffff;fill-opacity:1;stroke:none;stroke-width:0.264583">
      <path
         d="M 10.831455,2.6694991 V 4.3810225 H 7.5076266 V 23.034147 H 5.7961032 V 4.3810225 H 2.4970798 V 2.6694991 h 3.2990234 1.7115234 z"
         style="font-style:normal;font-variant:normal;font-weight:normal;font-stretch:normal;font-size:25.4px;font-family:'Slow Immediate';-inkscape-font-specification:'Slow Immediate';fill:#ffffff;stroke-width:0.264583"
         id="path20" />
      <path
         d="m 18.719345,23.034147 h -0.967383 q -2.232421,0 -3.571875,-1.686718 -1.339453,-1.686719 -1.339453,-4.514454 V 2.6694991 h 1.711524 V 16.832975 q 0,0.446485 0.0248,0.892969 0.04961,0.446485 0.248047,1.141016 0.198438,0.694531 0.496094,1.215429 0.322461,0.496094 0.942578,0.868165 0.644922,0.37207 1.488281,0.37207 h 0.967383 q 1.041797,0 1.736328,-0.520899 0.719336,-0.520898 0.992188,-1.339453 0.297656,-0.843359 0.396875,-1.438672 0.09922,-0.595312 0.09922,-1.190625 V 2.6694991 h 1.711523 V 16.832975 q 0,2.827735 -1.339453,4.514454 -1.339453,1.686718 -3.59668,1.686718 z"
         style="font-style:normal;font-variant:normal;font-weight:normal;font-stretch:normal;font-size:25.4px;font-family:'Slow Immediate';-inkscape-font-specification:'Slow Immediate';fill:#ffffff;stroke-width:0.264583"
         id="path22" />
      <path
         d="M 27.276961,23.034147 H 25.590242 V 3.9593429 q 0,-0.4216797 0.248047,-0.7441407 0.248047,-0.3224609 0.644922,-0.3968749 0.09922,-0.024805 0.248047,-0.024805 0.719336,0 1.041797,0.7193359 L 34.594344,19.065397 V 2.6694991 h 1.711523 V 21.744304 q 0,0.421679 -0.248047,0.74414 -0.248047,0.322461 -0.669726,0.42168 -0.07441,0.02481 -0.223242,0.02481 -0.719336,0 -1.041797,-0.719336 L 27.276961,6.6382491 Z"
         style="font-style:normal;font-variant:normal;font-weight:normal;font-stretch:normal;font-size:25.4px;font-family:'Slow Immediate';-inkscape-font-specification:'Slow Immediate';fill:#ffffff;stroke-width:0.264583"
         id="path24" />
      <path
         d="m 47.443173,21.322624 v 1.686719 l -8.433594,0.0248 q -0.347266,0 -0.595312,-0.248047 Q 38.16622,22.538054 38.16622,22.165983 V 3.5624679 q 0,-0.3472657 0.248047,-0.5953125 0.248046,-0.2728516 0.595312,-0.2728516 h 8.433594 v 1.7115234 h -7.590235 v 7.5158198 h 5.531446 v 1.686719 h -5.531446 v 7.714258 z"
         style="font-style:normal;font-variant:normal;font-weight:normal;font-stretch:normal;font-size:25.4px;font-family:'Slow Immediate';-inkscape-font-specification:'Slow Immediate';fill:#ffffff;stroke-width:0.264583"
         id="path26" />
      <path
         d="M 57.290635,23.034147 V 2.6694991 h 1.711523 V 23.034147 Z"
         style="font-style:normal;font-variant:normal;font-weight:normal;font-stretch:normal;font-size:25.4px;font-family:'Slow Immediate';-inkscape-font-specification:'Slow Immediate';fill:#ffffff;stroke-width:0.264583"
         id="path28" />
      <path
         d="M 62.747664,23.034147 H 61.060946 V 3.9593429 q 0,-0.4216797 0.248046,-0.7441407 0.248047,-0.3224609 0.644922,-0.3968749 0.09922,-0.024805 0.248047,-0.024805 0.719336,0 1.041797,0.7193359 L 70.065047,19.065397 V 2.6694991 H 71.77657 V 21.744304 q 0,0.421679 -0.248047,0.74414 -0.248046,0.322461 -0.669726,0.42168 -0.07441,0.02481 -0.223242,0.02481 -0.719336,0 -1.041797,-0.719336 L 62.747664,6.6382491 Z"
         style="font-style:normal;font-variant:normal;font-weight:normal;font-stretch:normal;font-size:25.4px;font-family:'Slow Immediate';-inkscape-font-specification:'Slow Immediate';fill:#ffffff;stroke-width:0.264583"
         id="path30" />
      <path
         d="m 91.000199,4.4058272 h -7.590235 v 7.5158198 h 5.531446 v 1.686719 h -5.531446 v 9.450586 H 81.723246 V 3.5624679 q 0,-0.3472657 0.248046,-0.5953125 0.248047,-0.2728516 0.595313,-0.2728516 h 8.433594 z"
         style="font-style:normal;font-variant:normal;font-weight:normal;font-stretch:normal;font-size:25.4px;font-family:'Slow Immediate';-inkscape-font-specification:'Slow Immediate';fill:#ffffff;stroke-width:0.264583"
         id="path32" />
      <path
         d="m 103.45215,23.034147 h -1.86035 l -3.943942,-9.47539 h -3.125391 v 9.47539 H 92.835749 V 3.5376632 q 0,-0.3720703 0.248047,-0.6201172 0.248046,-0.2480469 0.595312,-0.2480469 h 4.836914 q 2.232418,0 3.621488,1.7859375 1.24023,1.5130859 1.24023,3.6214843 0,1.8851562 -1.0666,3.4726561 -1.0666,1.562695 -2.85254,1.909961 z M 94.522467,11.872038 h 3.993555 q 1.562698,0 2.356448,-1.21543 0.79375,-1.2154293 0.79375,-2.5796871 0,-1.4386718 -0.86817,-2.5548827 -0.843356,-1.1410157 -2.282028,-1.1410157 h -3.993555 z"
         style="font-style:normal;font-variant:normal;font-weight:normal;font-stretch:normal;font-size:25.4px;font-family:'Slow Immediate';-inkscape-font-specification:'Slow Immediate';fill:#ffffff;stroke-width:0.264583"
         id="path34" />
      <path
         d="m 111.16642,23.034147 h -1.19063 q -2.23242,0 -3.57187,-1.686718 -1.33946,-1.686719 -1.33946,-4.514454 V 8.8954756 q 0,-2.8277343 1.33946,-4.5144531 1.33945,-1.6867187 3.57187,-1.6867187 h 1.19063 q 2.23242,0 3.57187,1.6867187 1.33945,1.6867188 1.33945,4.5144531 v 7.9374994 q 0,2.827735 -1.33945,4.514454 -1.33945,1.686718 -3.57187,1.686718 z M 109.97579,4.4058272 q -0.84336,0 -1.48828,0.3720703 -0.62012,0.3720703 -0.94258,0.8929688 -0.32246,0.5208984 -0.5209,1.2154296 -0.17363,0.6697266 -0.22324,1.1410157 -0.0496,0.4464843 -0.0496,0.868164 v 7.9374994 q 0,0.570508 0.0992,1.190625 0.0992,0.595313 0.37207,1.438672 0.29766,0.818555 0.99219,1.339453 0.71933,0.520899 1.76113,0.520899 h 1.19063 q 0.84336,0 1.46347,-0.37207 0.64492,-0.372071 0.94258,-0.868165 0.32246,-0.520898 0.5209,-1.215429 0.19844,-0.694531 0.22324,-1.141016 0.0496,-0.446484 0.0496,-0.892969 V 8.8954756 q 0,-0.4216797 -0.0496,-0.868164 -0.0248,-0.4712891 -0.22324,-1.1410157 -0.19844,-0.6945312 -0.5209,-1.1906249 -0.29766,-0.5208985 -0.94258,-0.8929688 -0.62011,-0.396875 -1.46347,-0.396875 z"
         style="font-style:normal;font-variant:normal;font-weight:normal;font-stretch:normal;font-size:25.4px;font-family:'Slow Immediate';-inkscape-font-specification:'Slow Immediate';fill:#ffffff;stroke-width:0.264583"
         id="path36" />
      <path
         d="m 119.52559,23.058952 h -1.71152 V 3.9593429 q 0,-0.4216797 0.24804,-0.7441407 0.24805,-0.3224609 0.64492,-0.4216796 0.0744,-0.024805 0.22325,-0.024805 0.71933,0 1.0666,0.7193359 l 3.39824,7.9375002 3.39824,-7.9375002 q 0.32246,-0.7193359 1.0418,-0.7193359 0.14883,0 0.22324,0.024805 0.42168,0.099219 0.66973,0.4216796 0.24805,0.322461 0.24805,0.7441407 V 23.058952 h -1.71153 V 6.6878584 l -3.10058,7.2429686 q -0.22325,0.520899 -0.76895,0.520899 -0.5209,0 -0.79375,-0.520899 l -3.07578,-7.2429686 z"
         style="font-style:normal;font-variant:normal;font-weight:normal;font-stretch:normal;font-size:25.4px;font-family:'Slow Immediate';-inkscape-font-specification:'Slow Immediate';fill:#ffffff;stroke-width:0.264583"
         id="path38" />
      <path
         d="m 148.6463,23.034147 q 0,-0.0248 -0.14883,-0.74414 -0.12402,-0.744141 -0.39687,-2.257227 -0.27285,-1.513086 -0.4961,-2.80293 h -5.77949 q -1.04179,5.754688 -1.04179,5.804297 h -1.76114 q 0.0992,-0.620117 1.68672,-9.326562 1.61231,-8.7064453 1.68672,-9.1033203 0.14883,-0.7689453 0.59531,-1.3146484 0.44649,-0.5705078 1.0666,-0.5705078 h 1.31465 q 0.62012,0 1.0418,0.5705078 0.44648,0.5457031 0.62012,1.3146484 0.0744,0.396875 1.63711,9.0537113 1.56269,8.656835 1.68671,9.376171 z m -6.52363,-7.51582 h 5.15937 Q 145.4465,5.3980147 145.34728,4.9267257 q -0.0496,-0.1984375 -0.0744,-0.2728516 -0.0744,-0.2232422 -0.32246,-0.2232422 h -0.49609 q -0.24805,0 -0.32246,0.2232422 -0.0248,0.074414 -0.0744,0.2728516 -0.0992,0.471289 -1.93476,10.5916013 z"
         style="font-style:normal;font-variant:normal;font-weight:normal;font-stretch:normal;font-size:25.4px;font-family:'Slow Immediate';-inkscape-font-specification:'Slow Immediate';fill:#ffffff;stroke-width:0.264583"
         id="path40" />
      <path
         d="m 153.53281,23.034147 h -1.68672 V 3.9593429 q 0,-0.4216797 0.24805,-0.7441407 0.24805,-0.3224609 0.64492,-0.3968749 0.0992,-0.024805 0.24805,-0.024805 0.71934,0 1.0418,0.7193359 L 160.8502,19.065397 V 2.6694991 h 1.71152 V 21.744304 q 0,0.421679 -0.24805,0.74414 -0.24804,0.322461 -0.66972,0.42168 -0.0744,0.02481 -0.22325,0.02481 -0.71933,0 -1.04179,-0.719336 l -6.8461,-15.5773439 z"
         style="font-style:normal;font-variant:normal;font-weight:normal;font-stretch:normal;font-size:25.4px;font-family:'Slow Immediate';-inkscape-font-specification:'Slow Immediate';fill:#ffffff;stroke-width:0.264583"
         id="path42" />
      <path
         d="m 175.609,2.6694991 -4.71289,11.0380859 v 9.326562 h -1.68672 V 13.707585 L 164.4965,2.6694991 h 1.86035 l 3.6959,8.7064449 3.6959,-8.7064449 z"
         style="font-style:normal;font-variant:normal;font-weight:normal;font-stretch:normal;font-size:25.4px;font-family:'Slow Immediate';-inkscape-font-specification:'Slow Immediate';fill:#ffffff;stroke-width:0.264583"
         id="path44" />
      <path
         d="m 188.28419,22.984538 q -0.71934,0 -1.0418,-0.719336 l -3.39824,-7.9375 -3.39825,7.9375 q -0.32246,0.719336 -1.01699,0.719336 -0.17363,0 -0.24804,-0.02481 -0.39688,-0.07441 -0.64493,-0.37207 -0.24804,-0.322461 -0.27285,-0.744141 l -1.0666,-19.1740229 h 1.71152 l 0.91778,16.7183589 3.24941,-7.565429 q 0.19844,-0.496094 0.76895,-0.496094 0.5457,0 0.79375,0.496094 l 3.1998,7.491015 0.74414,-16.6439449 h 1.68672 L 189.4252,21.843522 q -0.0248,0.42168 -0.27285,0.744141 -0.24805,0.297656 -0.64492,0.37207 -0.0744,0.02481 -0.22324,0.02481 z"
         style="font-style:normal;font-variant:normal;font-weight:normal;font-stretch:normal;font-size:25.4px;font-family:'Slow Immediate';-inkscape-font-specification:'Slow Immediate';fill:#ffffff;stroke-width:0.264583"
         id="path46" />
      <path
         d="m 200.06642,2.6694991 h 1.71152 V 23.034147 h -1.71152 v -9.425781 h -6.15156 v 9.425781 h -1.71153 V 2.6694991 h 1.71153 v 9.2521479 h 6.15156 z"
         style="font-style:normal;font-variant:normal;font-weight:normal;font-stretch:normal;font-size:25.4px;font-family:'Slow Immediate';-inkscape-font-specification:'Slow Immediate';fill:#ffffff;stroke-width:0.264583"
         id="path48" />
      <path
         d="m 212.94005,21.322624 v 1.686719 l -8.4336,0.0248 q -0.34726,0 -0.59531,-0.248047 -0.24804,-0.248046 -0.24804,-0.620117 V 3.5624679 q 0,-0.3472657 0.24804,-0.5953125 0.24805,-0.2728516 0.59531,-0.2728516 h 8.4336 v 1.7115234 h -7.59024 v 7.5158198 h 5.53145 v 1.686719 h -5.53145 v 7.714258 z"
         style="font-style:normal;font-variant:normal;font-weight:normal;font-stretch:normal;font-size:25.4px;font-family:'Slow Immediate';-inkscape-font-specification:'Slow Immediate';fill:#ffffff;stroke-width:0.264583"
         id="path50" />
      <path
         d="m 225.34238,23.034147 h -1.86035 l -3.94394,-9.47539 h -3.12539 v 9.47539 h -1.68672 V 3.5376632 q 0,-0.3720703 0.24804,-0.6201172 0.24805,-0.2480469 0.59532,-0.2480469 h 4.83691 q 2.23242,0 3.62148,1.7859375 1.24024,1.5130859 1.24024,3.6214843 0,1.8851562 -1.0666,3.4726561 -1.0666,1.562695 -2.85254,1.909961 z M 216.4127,11.872038 h 3.99355 q 1.5627,0 2.35645,-1.21543 0.79375,-1.2154293 0.79375,-2.5796871 0,-1.4386718 -0.86817,-2.5548827 -0.84336,-1.1410157 -2.28203,-1.1410157 h -3.99355 z"
         style="font-style:normal;font-variant:normal;font-weight:normal;font-stretch:normal;font-size:25.4px;font-family:'Slow Immediate';-inkscape-font-specification:'Slow Immediate';fill:#ffffff;stroke-width:0.264583"
         id="path52" />
      <path
         d="m 236.23164,21.322624 v 1.686719 l -8.43359,0.0248 q -0.34727,0 -0.59531,-0.248047 -0.24805,-0.248046 -0.24805,-0.620117 V 3.5624679 q 0,-0.3472657 0.24805,-0.5953125 0.24804,-0.2728516 0.59531,-0.2728516 h 8.43359 v 1.7115234 h -7.59023 v 7.5158198 h 5.53144 v 1.686719 h -5.53144 v 7.714258 z"
         style="font-style:normal;font-variant:normal;font-weight:normal;font-stretch:normal;font-size:25.4px;font-family:'Slow Immediate';-inkscape-font-specification:'Slow Immediate';fill:#ffffff;stroke-width:0.264583"
         id="path54" />
      <path
         d="m 255.75293,23.034147 q 0,-0.0248 -0.14883,-0.74414 -0.12402,-0.744141 -0.39687,-2.257227 -0.27285,-1.513086 -0.4961,-2.80293 h -5.77949 q -1.0418,5.754688 -1.0418,5.804297 h -1.76113 q 0.0992,-0.620117 1.68672,-9.326562 1.6123,-8.7064453 1.68672,-9.1033203 0.14883,-0.7689453 0.59531,-1.3146484 0.44649,-0.5705078 1.0666,-0.5705078 h 1.31465 q 0.62012,0 1.0418,0.5705078 0.44648,0.5457031 0.62012,1.3146484 0.0744,0.396875 1.6371,9.0537113 1.5627,8.656835 1.68672,9.376171 z m -6.52363,-7.51582 h 5.15937 q -1.83554,-10.1203123 -1.93476,-10.5916013 -0.0496,-0.1984375 -0.0744,-0.2728516 -0.0744,-0.2232422 -0.32246,-0.2232422 h -0.49609 q -0.24805,0 -0.32246,0.2232422 -0.0248,0.074414 -0.0744,0.2728516 -0.0992,0.471289 -1.93476,10.5916013 z"
         style="font-style:normal;font-variant:normal;font-weight:normal;font-stretch:normal;font-size:25.4px;font-family:'Slow Immediate';-inkscape-font-specification:'Slow Immediate';fill:#ffffff;stroke-width:0.264583"
         id="path56" />
      <path
         d="m 267.28711,2.6694991 v 1.7115234 h -3.32383 V 23.034147 h -1.71152 V 4.3810225 h -3.29902 V 2.6694991 h 3.29902 1.71152 z"
         style="font-style:normal;font-variant:normal;font-weight:normal;font-stretch:normal;font-size:25.4px;font-family:'Slow Immediate';-inkscape-font-specification:'Slow Immediate';fill:#ffffff;stroke-width:0.264583"
         id="path58" />
      <path
         d="m 285.24569,2.6694991 h 1.71153 V 23.034147 h -1.71153 v -9.425781 h -6.15156 v 9.425781 h -1.71152 V 2.6694991 h 1.71152 v 9.2521479 h 6.15156 z"
         style="font-style:normal;font-variant:normal;font-weight:normal;font-stretch:normal;font-size:25.4px;font-family:'Slow Immediate';-inkscape-font-specification:'Slow Immediate';fill:#ffffff;stroke-width:0.264583"
         id="path60" />
      <path
         d="m 297.17676,2.6694991 v 1.7115234 h -3.32383 V 23.034147 h -1.71152 V 4.3810225 h -3.29902 V 2.6694991 h 3.29902 1.71152 z"
         style="font-style:normal;font-variant:normal;font-weight:normal;font-stretch:normal;font-size:25.4px;font-family:'Slow Immediate';-inkscape-font-specification:'Slow Immediate';fill:#ffffff;stroke-width:0.264583"
         id="path62" />
      <path
         d="M 307.52033,2.6694991 V 4.3810225 H 304.1965 V 23.034147 h -1.71152 V 4.3810225 h -3.29903 V 2.6694991 h 3.29903 1.71152 z"
         style="font-style:normal;font-variant:normal;font-weight:normal;font-stretch:normal;font-size:25.4px;font-family:'Slow Immediate';-inkscape-font-specification:'Slow Immediate';fill:#ffffff;stroke-width:0.264583"
         id="path64" />
      <path
         d="m 311.21621,23.034147 h -1.68672 V 3.5624679 q 0,-0.3472657 0.24805,-0.5953125 0.24804,-0.2728516 0.59531,-0.2728516 h 4.61367 q 2.20762,0 3.64629,1.7859375 1.21543,1.5378906 1.21543,3.6214843 0,2.1580074 -1.33945,3.8199214 -1.33946,1.661914 -3.52227,1.661914 h -3.77031 z m 0,-11.137304 h 3.77031 q 1.5627,0 2.35645,-1.21543 0.79375,-1.2154296 0.79375,-2.5796874 0,-1.4634765 -0.84336,-2.5796874 -0.84336,-1.116211 -2.30684,-1.116211 h -3.77031 z"
         style="font-style:normal;font-variant:normal;font-weight:normal;font-stretch:normal;font-size:25.4px;font-family:'Slow Immediate';-inkscape-font-specification:'Slow Immediate';fill:#ffffff;stroke-width:0.264583"
         id="path66" />
      <path
         d="m 327.33925,23.034147 q -2.75332,0 -4.2168,-1.53789 -1.46347,-1.562696 -1.46347,-4.440039 h 1.71152 q 0,2.182812 0.96738,3.224609 0.96738,1.041797 3.00137,1.041797 1.38906,0 2.35644,-0.79375 0.96739,-0.79375 0.96739,-2.80293 0,-1.637109 -0.89297,-2.455664 -0.89297,-0.818554 -2.97656,-1.661914 -0.71934,-0.297656 -1.14102,-0.471289 -0.42168,-0.198437 -1.09141,-0.545703 -0.66972,-0.37207 -1.0666,-0.768945 -0.39687,-0.396875 -0.81855,-0.942578 -0.39688,-0.545704 -0.59531,-1.2650395 -0.19844,-0.7441406 -0.19844,-1.6123046 0,-2.3316406 1.36426,-3.8199219 1.38906,-1.4882812 3.57187,-1.4882812 2.85254,0 4.31602,2.1828125 0.99218,1.4634765 0.99218,3.1749999 h -1.68672 q 0,-0.1488281 -0.0248,-0.396875 -0.0248,-0.2728515 -0.22324,-0.8929687 -0.19844,-0.6201172 -0.54571,-1.0914062 -0.34726,-0.4960938 -1.0914,-0.8681641 -0.74414,-0.396875 -1.73633,-0.396875 -1.46348,0 -2.35644,0.9921875 -0.86817,0.9673828 -0.86817,2.6044922 0,1.6123046 0.86817,2.4060551 0.86816,0.79375 2.95175,1.637109 1.09141,0.42168 1.73633,0.768945 0.66973,0.347266 1.51309,1.016992 0.84336,0.644922 1.26504,1.63711 0.42168,0.967382 0.42168,2.257226 0,2.455664 -1.33946,3.894336 -1.33945,1.413867 -3.67109,1.413867 z"
         style="font-style:normal;font-variant:normal;font-weight:normal;font-stretch:normal;font-size:25.4px;font-family:'Slow Immediate';-inkscape-font-specification:'Slow Immediate';fill:#ffffff;stroke-width:0.264583"
         id="path68" />
      <path
         d="m 334.3838,19.735124 q -0.24805,-0.248047 -0.24805,-0.595313 0,-0.347265 0.24805,-0.595312 0.24805,-0.272852 0.59531,-0.272852 0.34727,0 0.59531,0.272852 0.27286,0.248047 0.27286,0.595312 0,0.347266 -0.27286,0.595313 -0.24804,0.248047 -0.59531,0.248047 -0.34726,0 -0.59531,-0.248047 z m 0,-8.334375 q -0.24805,-0.248047 -0.24805,-0.595312 0,-0.347266 0.24805,-0.595313 0.24805,-0.2728515 0.59531,-0.2728515 0.34727,0 0.59531,0.2728515 0.27286,0.248047 0.27286,0.595313 0,0.347265 -0.27286,0.595312 -0.24804,0.248047 -0.59531,0.248047 -0.34726,0 -0.59531,-0.248047 z"
         style="font-style:normal;font-variant:normal;font-weight:normal;font-stretch:normal;font-size:25.4px;font-family:'Slow Immediate';-inkscape-font-specification:'Slow Immediate';fill:#ffffff;stroke-width:0.264583"
         id="path70" />
      <path
         d="m 339.49356,23.034147 h -1.76113 l 5.8291,-20.3398432 h 1.76113 z"
         style="font-style:normal;font-variant:normal;font-weight:normal;font-stretch:normal;font-size:25.4px;font-family:'Slow Immediate';-inkscape-font-specification:'Slow Immediate';fill:#ffffff;stroke-width:0.264583"
         id="path72" />
      <path
         d="m 347.23263,23.034147 h -1.76113 l 5.8291,-20.3398432 h 1.76113 z"
         style="font-style:normal;font-variant:normal;font-weight:normal;font-stretch:normal;font-size:25.4px;font-family:'Slow Immediate';-inkscape-font-specification:'Slow Immediate';fill:#ffffff;stroke-width:0.264583"
         id="path74" />
      <path
         d="m 361.61933,23.058952 h -5.70507 q -1.09141,0 -1.93477,-0.818555 -0.84336,-0.818554 -0.84336,-1.885156 V 2.7191085 l 1.71152,-0.024805 V 20.355241 q 0,0.347266 0.32246,0.669727 0.34727,0.322461 0.74415,0.322461 h 5.70507 z"
         style="font-style:normal;font-variant:normal;font-weight:normal;font-stretch:normal;font-size:25.4px;font-family:'Slow Immediate';-inkscape-font-specification:'Slow Immediate';fill:#ffffff;stroke-width:0.264583"
         id="path76" />
      <path
         d="M 363.55409,23.034147 V 2.6694991 h 1.71153 V 23.034147 Z"
         style="font-style:normal;font-variant:normal;font-weight:normal;font-stretch:normal;font-size:25.4px;font-family:'Slow Immediate';-inkscape-font-specification:'Slow Immediate';fill:#ffffff;stroke-width:0.264583"
         id="path78" />
      <path
         d="m 373.67441,23.034147 h -1.31465 q -0.62011,0 -1.0666,-0.545703 -0.42168,-0.570508 -0.59531,-1.339453 -0.0744,-0.42168 -1.63711,-9.10332 -1.5627,-8.7064453 -1.68672,-9.3761719 h 1.71152 q 0.0248,0.074414 1.61231,8.9544919 1.6123,8.880078 1.68672,9.177734 0.0248,0.223243 0.17363,0.520899 h 0.91777 q 0.12403,-0.173633 0.19844,-0.520899 0.0744,-0.396875 1.66192,-9.177734 1.5875,-8.7808591 1.6123,-8.9544919 h 1.73633 q -0.0992,0.6201172 -1.68672,9.3513669 -1.5875,8.706445 -1.66191,9.128125 -0.14883,0.768945 -0.59532,1.339453 -0.44648,0.545703 -1.0666,0.545703 z"
         style="font-style:normal;font-variant:normal;font-weight:normal;font-stretch:normal;font-size:25.4px;font-family:'Slow Immediate';-inkscape-font-specification:'Slow Immediate';fill:#ffffff;stroke-width:0.264583"
         id="path80" />
      <path
         d="M 380.34688,23.034147 V 2.6694991 h 1.71152 V 23.034147 Z"
         style="font-style:normal;font-variant:normal;font-weight:normal;font-stretch:normal;font-size:25.4px;font-family:'Slow Immediate';-inkscape-font-specification:'Slow Immediate';fill:#ffffff;stroke-width:0.264583"
         id="path82" />
      <path
         d="M 385.80392,23.034147 H 384.1172 V 3.9593429 q 0,-0.4216797 0.24804,-0.7441407 0.24805,-0.3224609 0.64493,-0.3968749 0.0992,-0.024805 0.24804,-0.024805 0.71934,0 1.0418,0.7193359 L 393.1213,19.065397 V 2.6694991 h 1.71152 V 21.744304 q 0,0.421679 -0.24804,0.74414 -0.24805,0.322461 -0.66973,0.42168 -0.0744,0.02481 -0.22324,0.02481 -0.71934,0 -1.0418,-0.719336 L 385.80392,6.6382491 Z"
         style="font-style:normal;font-variant:normal;font-weight:normal;font-stretch:normal;font-size:25.4px;font-family:'Slow Immediate';-inkscape-font-specification:'Slow Immediate';fill:#ffffff;stroke-width:0.264583"
         id="path84" />
      <path
         d="m 402.79511,23.034147 h -1.19063 q -2.23242,0 -3.57187,-1.686718 -1.33945,-1.686719 -1.33945,-4.514454 V 8.8954756 q 0,-2.8277343 1.33945,-4.5144531 1.33945,-1.6867187 3.57187,-1.6867187 h 1.19063 q 2.00918,0 3.29902,1.3642578 1.31465,1.3642578 1.5627,3.7703125 H 405.9205 Q 405.77167,6.7622725 405.3996,6.0429366 405.05233,5.298796 404.55624,4.976335 404.08495,4.6538741 403.66327,4.5298507 403.24159,4.4058272 402.79511,4.4058272 h -1.19063 q -0.84336,0 -1.48828,0.3720703 -0.62012,0.3720703 -0.94258,0.8929688 -0.32246,0.5208984 -0.52089,1.2154296 -0.17364,0.6697266 -0.22325,1.1410157 -0.0496,0.4464843 -0.0496,0.868164 v 7.9374994 q 0,0.570508 0.0992,1.190625 0.0992,0.595313 0.37207,1.438672 0.29766,0.818555 0.99219,1.339453 0.71934,0.520899 1.76113,0.520899 h 1.19063 q 0.84336,0 1.46347,-0.37207 0.64493,-0.372071 0.94258,-0.868165 0.32246,-0.520898 0.5209,-1.215429 0.19844,-0.694531 0.22324,-1.141016 0.0496,-0.446484 0.0496,-0.892969 V 14.52614 h -2.35644 v -1.711524 h 4.06797 v 4.018359 q 0,2.827735 -1.33946,4.514454 -1.33945,1.686718 -3.57187,1.686718 z"
         style="font-style:normal;font-variant:normal;font-weight:normal;font-stretch:normal;font-size:25.4px;font-family:'Slow Immediate';-inkscape-font-specification:'Slow Immediate';fill:#ffffff;stroke-width:0.264583"
         id="path86" />
      <path
         d="m 415.22228,23.034147 q -2.75333,0 -4.2168,-1.53789 -1.46348,-1.562696 -1.46348,-4.440039 h 1.71153 q 0,2.182812 0.96738,3.224609 0.96738,1.041797 3.00137,1.041797 1.38906,0 2.35644,-0.79375 0.96738,-0.79375 0.96738,-2.80293 0,-1.637109 -0.89297,-2.455664 -0.89296,-0.818554 -2.97656,-1.661914 -0.71933,-0.297656 -1.14101,-0.471289 -0.42168,-0.198437 -1.09141,-0.545703 -0.66973,-0.37207 -1.0666,-0.768945 -0.39688,-0.396875 -0.81856,-0.942578 -0.39687,-0.545704 -0.59531,-1.2650395 -0.19844,-0.7441406 -0.19844,-1.6123046 0,-2.3316406 1.36426,-3.8199219 1.38906,-1.4882812 3.57188,-1.4882812 2.85254,0 4.31601,2.1828125 0.99219,1.4634765 0.99219,3.1749999 h -1.68672 q 0,-0.1488281 -0.0248,-0.396875 -0.0248,-0.2728515 -0.22325,-0.8929687 -0.19843,-0.6201172 -0.5457,-1.0914062 -0.34726,-0.4960938 -1.09141,-0.8681641 -0.74414,-0.396875 -1.73632,-0.396875 -1.46348,0 -2.35645,0.9921875 -0.86816,0.9673828 -0.86816,2.6044922 0,1.6123046 0.86816,2.4060551 0.86817,0.79375 2.95176,1.637109 1.09141,0.42168 1.73633,0.768945 0.66972,0.347266 1.51308,1.016992 0.84336,0.644922 1.26504,1.63711 0.42168,0.967382 0.42168,2.257226 0,2.455664 -1.33945,3.894336 -1.33945,1.413867 -3.67109,1.413867 z"
         style="font-style:normal;font-variant:normal;font-weight:normal;font-stretch:normal;font-size:25.4px;font-family:'Slow Immediate';-inkscape-font-specification:'Slow Immediate';fill:#ffffff;stroke-width:0.264583"
         id="path88" />
      <path
         d="m 428.1207,23.034147 h -1.19062 q -2.23243,0 -3.57188,-1.686718 -1.33945,-1.686719 -1.33945,-4.514454 V 8.8954756 q 0,-2.8277343 1.33945,-4.5144531 1.33945,-1.6867187 3.57188,-1.6867187 h 1.19062 q 2.23242,0 3.57188,1.6867187 1.33945,1.6867188 1.33945,4.5144531 v 7.9374994 q 0,2.827735 -1.33945,4.514454 -1.33946,1.686718 -3.57188,1.686718 z M 426.93008,4.4058272 q -0.84336,0 -1.48829,0.3720703 -0.62011,0.3720703 -0.94257,0.8929688 -0.32246,0.5208984 -0.5209,1.2154296 -0.17364,0.6697266 -0.22324,1.1410157 -0.0496,0.4464843 -0.0496,0.868164 v 7.9374994 q 0,0.570508 0.0992,1.190625 0.0992,0.595313 0.37208,1.438672 0.29765,0.818555 0.99218,1.339453 0.71934,0.520899 1.76114,0.520899 h 1.19062 q 0.84336,0 1.46348,-0.37207 0.64492,-0.372071 0.94258,-0.868165 0.32246,-0.520898 0.52089,-1.215429 0.19844,-0.694531 0.22325,-1.141016 0.0496,-0.446484 0.0496,-0.892969 V 8.8954756 q 0,-0.4216797 -0.0496,-0.868164 -0.0248,-0.4712891 -0.22325,-1.1410157 -0.19843,-0.6945312 -0.52089,-1.1906249 -0.29766,-0.5208985 -0.94258,-0.8929688 -0.62012,-0.396875 -1.46348,-0.396875 z"
         style="font-style:normal;font-variant:normal;font-weight:normal;font-stretch:normal;font-size:25.4px;font-family:'Slow Immediate';-inkscape-font-specification:'Slow Immediate';fill:#ffffff;stroke-width:0.264583"
         id="path90" />
      <path
         d="m 440.64706,23.034147 h -0.96738 q -2.23242,0 -3.57188,-1.686718 -1.33945,-1.686719 -1.33945,-4.514454 V 2.6694991 h 1.71152 V 16.832975 q 0,0.446485 0.0248,0.892969 0.0496,0.446485 0.24805,1.141016 0.19843,0.694531 0.49609,1.215429 0.32246,0.496094 0.94258,0.868165 0.64492,0.37207 1.48828,0.37207 h 0.96738 q 1.0418,0 1.73633,-0.520899 0.71934,-0.520898 0.99219,-1.339453 0.29765,-0.843359 0.39687,-1.438672 0.0992,-0.595312 0.0992,-1.190625 V 2.6694991 h 1.71152 V 16.832975 q 0,2.827735 -1.33945,4.514454 -1.33945,1.686718 -3.59668,1.686718 z"
         style="font-style:normal;font-variant:normal;font-weight:normal;font-stretch:normal;font-size:25.4px;font-family:'Slow Immediate';-inkscape-font-specification:'Slow Immediate';fill:#ffffff;stroke-width:0.264583"
         id="path92" />
      <path
         d="m 449.20467,23.034147 h -1.68672 V 3.9593429 q 0,-0.4216797 0.24805,-0.7441407 0.24805,-0.3224609 0.64492,-0.3968749 0.0992,-0.024805 0.24805,-0.024805 0.71934,0 1.0418,0.7193359 l 6.82129,15.5525385 V 2.6694991 h 1.71152 V 21.744304 q 0,0.421679 -0.24805,0.74414 -0.24805,0.322461 -0.66972,0.42168 -0.0744,0.02481 -0.22325,0.02481 -0.71933,0 -1.04179,-0.719336 l -6.8461,-15.5773439 z"
         style="font-style:normal;font-variant:normal;font-weight:normal;font-stretch:normal;font-size:25.4px;font-family:'Slow Immediate';-inkscape-font-specification:'Slow Immediate';fill:#ffffff;stroke-width:0.264583"
         id="path94" />
      <path
         d="m 460.34199,22.7861 q -0.24805,-0.297656 -0.24805,-0.595312 V 3.5624679 q 0,-0.3472657 0.24805,-0.5953125 0.27285,-0.2728516 0.62012,-0.2728516 h 4.81211 q 2.18281,0 3.52226,1.6371094 1.33945,1.6371093 1.33945,3.7703124 v 9.4505854 q 0,2.133204 -1.33945,3.795118 -1.33945,1.661914 -3.52226,1.661914 l -4.81211,0.0248 q -0.32246,0 -0.62012,-0.248047 z m 1.46348,-1.463476 h 3.96875 q 1.41386,0 2.28203,-1.141016 0.89297,-1.16582 0.89297,-2.629297 V 8.1017256 q 0,-1.4634765 -0.86817,-2.5796874 -0.84336,-1.116211 -2.30683,-1.116211 h -3.96875 z"
         style="font-style:normal;font-variant:normal;font-weight:normal;font-stretch:normal;font-size:25.4px;font-family:'Slow Immediate';-inkscape-font-specification:'Slow Immediate';fill:#ffffff;stroke-width:0.264583"
         id="path96" />
      <path
         d="m 478.05254,23.034147 q -2.75332,0 -4.2168,-1.53789 -1.46348,-1.562696 -1.46348,-4.440039 h 1.71153 q 0,2.182812 0.96738,3.224609 0.96738,1.041797 3.00137,1.041797 1.38906,0 2.35644,-0.79375 0.96738,-0.79375 0.96738,-2.80293 0,-1.637109 -0.89296,-2.455664 -0.89297,-0.818554 -2.97657,-1.661914 -0.71933,-0.297656 -1.14101,-0.471289 -0.42168,-0.198437 -1.09141,-0.545703 -0.66973,-0.37207 -1.0666,-0.768945 -0.39688,-0.396875 -0.81855,-0.942578 -0.39688,-0.545704 -0.59532,-1.2650395 -0.19843,-0.7441406 -0.19843,-1.6123046 0,-2.3316406 1.36425,-3.8199219 1.38907,-1.4882812 3.57188,-1.4882812 2.85254,0 4.31601,2.1828125 0.99219,1.4634765 0.99219,3.1749999 h -1.68672 q 0,-0.1488281 -0.0248,-0.396875 -0.0248,-0.2728515 -0.22324,-0.8929687 -0.19844,-0.6201172 -0.54571,-1.0914062 -0.34726,-0.4960938 -1.0914,-0.8681641 -0.74414,-0.396875 -1.73633,-0.396875 -1.46348,0 -2.35645,0.9921875 -0.86816,0.9673828 -0.86816,2.6044922 0,1.6123046 0.86816,2.4060551 0.86817,0.79375 2.95176,1.637109 1.09141,0.42168 1.73633,0.768945 0.66973,0.347266 1.51308,1.016992 0.84336,0.644922 1.26504,1.63711 0.42168,0.967382 0.42168,2.257226 0,2.455664 -1.33945,3.894336 -1.33945,1.413867 -3.67109,1.413867 z"
         style="font-style:normal;font-variant:normal;font-weight:normal;font-stretch:normal;font-size:25.4px;font-family:'Slow Immediate';-inkscape-font-specification:'Slow Immediate';fill:#ffffff;stroke-width:0.264583"
         id="path98" />
      <path
         d="m 485.09706,22.7861 q -0.24805,-0.272851 -0.24805,-0.620117 0,-0.347265 0.24805,-0.595312 0.27285,-0.248047 0.62011,-0.248047 0.34727,0 0.59532,0.248047 0.24804,0.248047 0.24804,0.595312 0,0.347266 -0.24804,0.620117 -0.24805,0.248047 -0.59532,0.248047 -0.34726,0 -0.62011,-0.248047 z"
         style="font-style:normal;font-variant:normal;font-weight:normal;font-stretch:normal;font-size:25.4px;font-family:'Slow Immediate';-inkscape-font-specification:'Slow Immediate';fill:#ffffff;stroke-width:0.264583"
         id="path100" />
      <path
         d="m 497.74745,21.322624 v 1.686719 l -8.43359,0.0248 q -0.34727,0 -0.59531,-0.248047 -0.24805,-0.248046 -0.24805,-0.620117 V 3.5624679 q 0,-0.3472657 0.24805,-0.5953125 0.24804,-0.2728516 0.59531,-0.2728516 h 8.43359 v 1.7115234 h -7.59023 v 7.5158198 h 5.53144 v 1.686719 h -5.53144 v 7.714258 z"
         style="font-style:normal;font-variant:normal;font-weight:normal;font-stretch:normal;font-size:25.4px;font-family:'Slow Immediate';-inkscape-font-specification:'Slow Immediate';fill:#ffffff;stroke-width:0.264583"
         id="path102" />
      <path
         d="m 509.18242,23.034147 q 0,-0.0248 -0.14883,-0.74414 -0.12402,-0.744141 -0.39687,-2.257227 -0.27286,-1.513086 -0.4961,-2.80293 h -5.77949 q -1.0418,5.754688 -1.0418,5.804297 h -1.76113 q 0.0992,-0.620117 1.68672,-9.326562 1.6123,-8.7064453 1.68672,-9.1033203 0.14883,-0.7689453 0.59531,-1.3146484 0.44648,-0.5705078 1.0666,-0.5705078 h 1.31465 q 0.62012,0 1.0418,0.5705078 0.44648,0.5457031 0.62011,1.3146484 0.0744,0.396875 1.63711,9.0537113 1.5627,8.656835 1.68672,9.376171 z m -6.52363,-7.51582 h 5.15937 Q 505.98261,5.3980147 505.8834,4.9267257 q -0.0496,-0.1984375 -0.0744,-0.2728516 -0.0744,-0.2232422 -0.32246,-0.2232422 h -0.49609 q -0.24805,0 -0.32246,0.2232422 -0.0248,0.074414 -0.0744,0.2728516 -0.0992,0.471289 -1.93476,10.5916013 z"
         style="font-style:normal;font-variant:normal;font-weight:normal;font-stretch:normal;font-size:25.4px;font-family:'Slow Immediate';-inkscape-font-specification:'Slow Immediate';fill:#ffffff;stroke-width:0.264583"
         id="path104" />
      <path
         d="m 522.99862,23.034147 h -1.86035 l -3.94395,-9.47539 h -3.12539 v 9.47539 h -1.68672 V 3.5376632 q 0,-0.3720703 0.24805,-0.6201172 0.24805,-0.2480469 0.59531,-0.2480469 h 4.83692 q 2.23242,0 3.62148,1.7859375 1.24023,1.5130859 1.24023,3.6214843 0,1.8851562 -1.0666,3.4726561 -1.0666,1.562695 -2.85254,1.909961 z m -8.92969,-11.162109 h 3.99356 q 1.56269,0 2.35644,-1.21543 0.79375,-1.2154293 0.79375,-2.5796871 0,-1.4386718 -0.86816,-2.5548827 -0.84336,-1.1410157 -2.28203,-1.1410157 h -3.99356 z"
         style="font-style:normal;font-variant:normal;font-weight:normal;font-stretch:normal;font-size:25.4px;font-family:'Slow Immediate';-inkscape-font-specification:'Slow Immediate';fill:#ffffff;stroke-width:0.264583"
         id="path106" />
      <path
         d="m 532.94529,2.6694991 v 1.7115234 h -3.32383 V 23.034147 h -1.71153 V 4.3810225 h -3.29902 V 2.6694991 h 3.29902 1.71153 z"
         style="font-style:normal;font-variant:normal;font-weight:normal;font-stretch:normal;font-size:25.4px;font-family:'Slow Immediate';-inkscape-font-specification:'Slow Immediate';fill:#ffffff;stroke-width:0.264583"
         id="path108" />
      <path
         d="m 542.81756,2.6694991 h 1.71153 V 23.034147 h -1.71153 V 13.608366 H 536.666 v 9.425781 h -1.71152 V 2.6694991 h 1.71152 v 9.2521479 h 6.15156 z"
         style="font-style:normal;font-variant:normal;font-weight:normal;font-stretch:normal;font-size:25.4px;font-family:'Slow Immediate';-inkscape-font-specification:'Slow Immediate';fill:#ffffff;stroke-width:0.264583"
         id="path110" />
    </g>
  </g>
</svg>
