<svg id="Layer_1" data-name="Layer 1" xmlns="http://www.w3.org/2000/svg" viewBox="0 0 428 497"><defs><style>.cls-1{fill:#fff;}</style></defs><path class="cls-1" d="M60.07,464.68H58.68v-16.1a.72.72,0,0,1,.2-.5.64.64,0,0,1,.49-.22h3.82a3.68,3.68,0,0,1,3,1.48,4.68,4.68,0,0,1,1,3,4.89,4.89,0,0,1-1.11,3.16,3.55,3.55,0,0,1-2.91,1.37H60.07Zm0-9.21h3.12a2.19,2.19,0,0,0,2-1,3.88,3.88,0,0,0,.65-2.13,3.46,3.46,0,0,0-.69-2.13,2.25,2.25,0,0,0-1.91-.92H60.07Z"/><path class="cls-1" d="M77.48,464.68H75.94l-3.26-7.84H70.1v7.84H68.71V448.56a.66.66,0,0,1,.2-.51.67.67,0,0,1,.49-.21h4a3.62,3.62,0,0,1,3,1.48,4.57,4.57,0,0,1,1,3,5,5,0,0,1-.88,2.86,3.57,3.57,0,0,1-2.36,1.59Zm-7.38-9.23h3.3a2.19,2.19,0,0,0,1.95-1,3.82,3.82,0,0,0,.66-2.13,3.43,3.43,0,0,0-.71-2.12,2.27,2.27,0,0,0-1.9-.93H70.1Z"/><path class="cls-1" d="M86.49,463.26v1.4l-7,0a.67.67,0,0,1-.49-.21.66.66,0,0,1-.2-.51V448.58a.68.68,0,0,1,.2-.5.64.64,0,0,1,.49-.22h7v1.42H80.21v6.21h4.57v1.39H80.21v6.38Z"/><path class="cls-1" d="M92.66,464.68a4.59,4.59,0,0,1-3.49-1.28A5.18,5.18,0,0,1,88,459.74h1.42a3.76,3.76,0,0,0,.8,2.66,3.21,3.21,0,0,0,2.48.86,3,3,0,0,0,2-.65,2.88,2.88,0,0,0,.8-2.32,2.63,2.63,0,0,0-.74-2,8.53,8.53,0,0,0-2.46-1.38l-.95-.39c-.23-.11-.53-.26-.9-.46a3.48,3.48,0,0,1-.88-.62,7.9,7.9,0,0,1-.67-.78,3.15,3.15,0,0,1-.5-1.06,5,5,0,0,1-.16-1.32,4.5,4.5,0,0,1,1.13-3.16,3.83,3.83,0,0,1,3-1.23,4,4,0,0,1,3.57,1.81,4.61,4.61,0,0,1,.82,2.62h-1.4c0-.08,0-.19,0-.34a3.83,3.83,0,0,0-.18-.73,3.36,3.36,0,0,0-.45-.91,2.78,2.78,0,0,0-.91-.72,3.1,3.1,0,0,0-1.43-.31,2.47,2.47,0,0,0-1.94.81,3.09,3.09,0,0,0-.73,2.16,2.56,2.56,0,0,0,.72,2,8.29,8.29,0,0,0,2.44,1.35c.6.24,1.08.45,1.45.64a9.2,9.2,0,0,1,1.24.83,3.37,3.37,0,0,1,1,1.35,4.78,4.78,0,0,1,.35,1.88,4.51,4.51,0,0,1-1.11,3.21A3.93,3.93,0,0,1,92.66,464.68Z"/><path class="cls-1" d="M106,463.26v1.4l-7,0a.67.67,0,0,1-.49-.21.69.69,0,0,1-.2-.51V448.58a.72.72,0,0,1,.2-.5.64.64,0,0,1,.49-.22h7v1.42H99.67v6.21h4.58v1.39H99.67v6.38Z"/><path class="cls-1" d="M108.82,464.68h-1.4V448.91a1,1,0,0,1,.21-.62.84.84,0,0,1,.53-.33l.21,0a.9.9,0,0,1,.86.6l5.64,12.86V447.84h1.41v15.77a1,1,0,0,1-.2.62,1,1,0,0,1-.56.35l-.18,0a.89.89,0,0,1-.86-.6l-5.66-12.88Z"/><path class="cls-1" d="M124.71,447.84v1.42H122v15.42h-1.41V449.26h-2.73v-1.42h6.89Z"/><path class="cls-1" d="M134,463.26v1.4l-7,0a.65.65,0,0,1-.49-.21.66.66,0,0,1-.21-.51V448.58a.69.69,0,0,1,.21-.5.63.63,0,0,1,.49-.22h7v1.42h-6.27v6.21h4.57v1.39h-4.57v6.38Z"/><path class="cls-1" d="M135.72,464.47a.79.79,0,0,1-.2-.49v-15.4a.69.69,0,0,1,.21-.5.7.7,0,0,1,.51-.22h4a3.59,3.59,0,0,1,2.91,1.35,4.81,4.81,0,0,1,1.11,3.12v7.82a4.83,4.83,0,0,1-1.11,3.13,3.55,3.55,0,0,1-2.91,1.38l-4,0A.81.81,0,0,1,135.72,464.47Zm1.21-1.21h3.29a2.24,2.24,0,0,0,1.89-.95,3.46,3.46,0,0,0,.73-2.16v-7.82a3.36,3.36,0,0,0-.71-2.13,2.27,2.27,0,0,0-1.91-.92h-3.29Z"/><path class="cls-1" d="M160.05,457.07a5,5,0,0,1,1,3.1,4.67,4.67,0,0,1-1,3,3.64,3.64,0,0,1-3,1.52h-4a.66.66,0,0,1-.5-.22.69.69,0,0,1-.21-.5V448.58a.75.75,0,0,1,.2-.51.8.8,0,0,1,.51-.21h3.1a3.65,3.65,0,0,1,3,1.48,4.73,4.73,0,0,1,1,3,5.3,5.3,0,0,1-.38,2,4.31,4.31,0,0,1-1.08,1.61A3.83,3.83,0,0,1,160.05,457.07Zm-3.9-7.79h-2.4v6.21h2.4a2.21,2.21,0,0,0,2-1,3.92,3.92,0,0,0,.67-2.15,3.42,3.42,0,0,0-.71-2.13A2.27,2.27,0,0,0,156.15,449.28Zm.88,14a2.2,2.2,0,0,0,2-1,3.78,3.78,0,0,0,.67-2.09,4,4,0,0,0-.7-2.23,2.2,2.2,0,0,0-1.93-1.06h-3.28v6.38Z"/><path class="cls-1" d="M171.7,447.84,167.8,457v7.71h-1.4V457l-3.89-9.13h1.54l3,7.2,3.06-7.2Z"/><polygon class="cls-1" points="224.81 436.44 228.36 430.07 219.9 430.07 216.35 436.44 224.81 436.44"/><path class="cls-1" d="M222.63,450.51H217l6.1-10.94H214.6l-6.08,10.91h-9.68c-3.89,0-6.33-3.15-6.33-7h0c0-3.88,2.44-7,6.33-7h14.07l3.54-6.34H198.09c-7.25,0-12.11,5.87-12.11,13.12h0c0,7.25,4.86,13.13,12.11,13.13h7.17l-14.95,26.8h32.32a16.31,16.31,0,1,0,0-32.61Zm-.86,26.73H202.05l11.63-20.84h8.09a10.42,10.42,0,0,1,0,20.84Z"/><path class="cls-1" d="M288,453.2h-1.24c-3.7,0-6.09-2.91-6.09-7.42v-8.29c0-4.51,2.39-7.42,6.09-7.42H288c3.69,0,6.08,2.91,6.08,7.42v8.29C294.07,450.29,291.68,453.2,288,453.2Zm-1.24-19.55c-2.26,0-2.5,2.68-2.5,3.84v8.29c0,1.15.24,3.83,2.5,3.83H288c2.25,0,2.49-2.68,2.49-3.83v-8.29c0-1.16-.24-3.84-2.49-3.84Z"/><path class="cls-1" d="M257.4,453.2c-4.36,0-6.87-2.62-6.87-7.2h3.59c0,3.18,1.58,3.61,3.28,3.61,1.12,0,2.61-.3,2.61-2.9,0-1.85-1-2.42-3.51-3.44s-5.73-2.31-5.73-6.72c0-3.75,2.56-6.48,6.09-6.48a6.4,6.4,0,0,1,6.5,6.53h-3.59a2.85,2.85,0,0,0-2.91-3c-1.54,0-2.5,1.12-2.5,2.91s.95,2.36,3.48,3.38,5.76,2.32,5.76,6.77C263.6,450.65,261.17,453.2,257.4,453.2Z"/><path class="cls-1" d="M352.16,483.12h3.66L352,462.71v0c-.33-1.64-1.36-2.7-2.63-2.7H348c-1.27,0-2.3,1.06-2.63,2.7v0l-3.74,20.4h3.65l1.11-6.07H351Zm-5.1-9.65,1.65-9,1.67,9Z"/><path class="cls-1" d="M318.09,483.12a1.78,1.78,0,0,1-1.79-1.79V461.78a1.8,1.8,0,0,1,1.79-1.8h5.08c3.77,0,6,3.36,6,6.6v9.86c0,3.28-2.26,6.67-6,6.67Zm1.79-19.55v16h3.29c1,0,2.44-.95,2.44-3.08v-9.86c0-1.17-.66-3-2.44-3Z"/><path class="cls-1" d="M383.47,479.52h-7.09v-6.27h4.94v-3.59h-4.94v-6.1h7.1V460h-8.9a1.79,1.79,0,0,0-1.79,1.79v19.55a1.79,1.79,0,0,0,1.79,1.79h8.9Z"/><path class="cls-1" d="M311.32,479.52h-7.1v-6.27h4.94v-3.59h-4.94v-6.1h7.1V460h-8.89a1.79,1.79,0,0,0-1.79,1.79v19.55a1.78,1.78,0,0,0,1.79,1.79h8.9Z"/><rect class="cls-1" x="253.48" y="459.99" width="3.59" height="23.13"/><rect class="cls-1" x="334.16" y="459.99" width="3.59" height="23.13"/><path class="cls-1" d="M266,483.12h-3.58v-21a2.09,2.09,0,0,1,4-.85l2.76,6.46,2.75-6.44a2.09,2.09,0,0,1,4,.83v21h-3.58V469.39l-1.54,3.6a1.79,1.79,0,0,1-3.3,0l-1.54-3.6Z"/><path class="cls-1" d="M285,483.12h-3.59v-21a2.09,2.09,0,0,1,4-.85l2.76,6.46,2.75-6.44a2.09,2.09,0,0,1,4,.83v21h-3.58V469.39L289.8,473a1.79,1.79,0,0,1-3.3,0l-1.54-3.6Z"/><polygon class="cls-1" points="368.37 459.99 357.8 459.99 357.8 463.58 361.29 463.58 361.29 483.12 364.87 483.12 364.87 463.58 368.37 463.58 368.37 459.99"/><path class="cls-1" d="M311.66,453.19a2.12,2.12,0,0,1-1.93-1.29L307,445.44l-2.75,6.44a2.08,2.08,0,0,1-4-.76L299,430.07h3.59l.87,14.59,1.91-4.48a1.79,1.79,0,0,1,3.3,0l1.86,4.35.71-14.46h3.59l-1,21a2.13,2.13,0,0,1-1.67,2A2,2,0,0,1,311.66,453.19Zm-1.5-2.14Zm-6.38,0Z"/><path class="cls-1" d="M277.09,453.21h-6a3.89,3.89,0,0,1-3.83-3.74c0-1.15-.07-19.21-.07-19.39h3.58c0,.74.07,18,.07,19.37a.49.49,0,0,0,.25.18h6Z"/><path class="cls-1" d="M42.3,75.78H26.12a7.63,7.63,0,0,1-5.48-2.32,7.23,7.23,0,0,1-2.39-5.34v-50l4.85-.07V68.12a2.66,2.66,0,0,0,.95,1.9,2.93,2.93,0,0,0,2.07.91H42.3Z"/><path class="cls-1" d="M47.78,75.71V18h4.85V75.71Z"/><path class="cls-1" d="M76.47,75.71H72.74a3.66,3.66,0,0,1-3-1.58A9.42,9.42,0,0,1,68,70.37q-.21-1.2-4.64-25.84T58.61,18h4.85q.07.21,4.61,25.38t4.74,26a4.56,4.56,0,0,0,.49,1.48h2.61a4.12,4.12,0,0,0,.56-1.48q.21-1.11,4.71-26T85.75,18h4.92q-.28,1.76-4.78,26.47T81.18,70.37a8.41,8.41,0,0,1-1.69,3.76A3.74,3.74,0,0,1,76.47,75.71Z"/><path class="cls-1" d="M95.38,75.71V18h4.85V75.71Z"/><path class="cls-1" d="M110.85,75.71h-4.78V21.64a3.37,3.37,0,0,1,.7-2.11,2.91,2.91,0,0,1,1.83-1.12,2.8,2.8,0,0,1,.7-.07,3.07,3.07,0,0,1,3,2l19.33,44.08V18h4.86V72.06a3.38,3.38,0,0,1-.71,2.11,3.25,3.25,0,0,1-1.9,1.19,2,2,0,0,1-.63.07,3.06,3.06,0,0,1-3-2L110.85,29.24Z"/><path class="cls-1" d="M159,75.71h-3.38a12.25,12.25,0,0,1-10.12-4.78q-3.81-4.77-3.8-12.8V35.63q0-8,3.8-12.79a12.25,12.25,0,0,1,10.12-4.78H159a12.43,12.43,0,0,1,9.38,3.86q3.69,3.87,4.4,10.69h-4.92a17.22,17.22,0,0,0-1.45-5.1,7.34,7.34,0,0,0-2.39-3,9.79,9.79,0,0,0-2.56-1.27,8.86,8.86,0,0,0-2.46-.35h-3.38A8.11,8.11,0,0,0,151.46,24a7.73,7.73,0,0,0-2.71,2.53,13,13,0,0,0-1.44,3.41,21.31,21.31,0,0,0-.67,3.24,24.29,24.29,0,0,0-.14,2.49v22.5a20.34,20.34,0,0,0,.28,3.34,25.72,25.72,0,0,0,1.09,4.08,7.81,7.81,0,0,0,2.81,3.83,8.11,8.11,0,0,0,5,1.48H159a8.14,8.14,0,0,0,4.18-1,7.61,7.61,0,0,0,2.67-2.5,13.51,13.51,0,0,0,1.44-3.41,17.23,17.23,0,0,0,.67-3.23c.07-.85.11-1.69.11-2.54V51.6h-6.68V46.74h11.53V58.13q0,8-3.8,12.8A12.27,12.27,0,0,1,159,75.71Z"/><path class="cls-1" d="M217.16,75.71q-7.8,0-11.95-4.39t-4.15-12.55h4.85q0,6.18,2.75,9.14c1.82,2,4.66,3,8.5,3a10.16,10.16,0,0,0,6.68-2.25q2.74-2.25,2.75-7.94,0-4.65-2.54-7c-1.68-1.55-4.5-3.12-8.43-4.72-1.36-.56-2.44-1-3.24-1.37s-1.83-.86-3.09-1.54a12.56,12.56,0,0,1-3-2.15A24.66,24.66,0,0,1,204,41.26a10.56,10.56,0,0,1-1.72-3.62,17.06,17.06,0,0,1-.56-4.54,15.31,15.31,0,0,1,3.9-10.82,13.08,13.08,0,0,1,10.09-4.22q8.09,0,12.23,6.18a15.7,15.7,0,0,1,2.81,9H226c0-.28,0-.66-.07-1.16a13.72,13.72,0,0,0-.63-2.49,11.16,11.16,0,0,0-1.55-3.13A8.41,8.41,0,0,0,220.61,24a10.56,10.56,0,0,0-4.92-1.09A8.49,8.49,0,0,0,209,25.69a10.68,10.68,0,0,0-2.49,7.41q0,4.57,2.46,6.82t8.37,4.64a49.87,49.87,0,0,1,5,2.18,30.86,30.86,0,0,1,4.26,2.85,11.66,11.66,0,0,1,3.58,4.64,16.12,16.12,0,0,1,1.2,6.44q0,7-3.8,11T217.16,75.71Z"/><path class="cls-1" d="M253.73,75.71h-3.38a12.25,12.25,0,0,1-10.12-4.78q-3.79-4.77-3.8-12.8V35.63q0-8,3.8-12.79a12.25,12.25,0,0,1,10.12-4.78h3.38a12.25,12.25,0,0,1,10.12,4.78q3.79,4.79,3.8,12.79v22.5q0,8-3.8,12.8A12.25,12.25,0,0,1,253.73,75.71Zm-3.38-52.8A8.11,8.11,0,0,0,246.17,24a7.73,7.73,0,0,0-2.71,2.53A13,13,0,0,0,242,29.9a22.62,22.62,0,0,0-.67,3.24,24.29,24.29,0,0,0-.14,2.49v22.5a20.34,20.34,0,0,0,.28,3.34,25.72,25.72,0,0,0,1.09,4.08,7.81,7.81,0,0,0,2.81,3.83,8.11,8.11,0,0,0,5,1.48h3.38a8.14,8.14,0,0,0,4.18-1,7.45,7.45,0,0,0,2.67-2.5A13.51,13.51,0,0,0,262,63.9a17.23,17.23,0,0,0,.67-3.23c.07-.85.11-1.69.11-2.54V35.63c0-.79,0-1.62-.11-2.49A16.55,16.55,0,0,0,262,29.9a13.68,13.68,0,0,0-1.44-3.37A7.69,7.69,0,0,0,257.91,24a7.87,7.87,0,0,0-4.18-1.09Z"/><path class="cls-1" d="M289.23,75.71h-2.74a12.25,12.25,0,0,1-10.12-4.78q-3.8-4.77-3.8-12.8V18h4.85V58.13c0,.85,0,1.69.11,2.54a17.23,17.23,0,0,0,.67,3.23,13.51,13.51,0,0,0,1.44,3.41,7.45,7.45,0,0,0,2.67,2.5,8.11,8.11,0,0,0,4.18,1h2.74a8.09,8.09,0,0,0,5-1.48A7.75,7.75,0,0,0,297,65.55a25.15,25.15,0,0,0,1.09-4,20.3,20.3,0,0,0,.29-3.38V18h4.85V58.13q0,8-3.8,12.8A12.34,12.34,0,0,1,289.23,75.71Z"/><path class="cls-1" d="M313.49,75.71h-4.78V21.64a3.43,3.43,0,0,1,.7-2.11,2.91,2.91,0,0,1,1.83-1.12,2.83,2.83,0,0,1,.71-.07,3.07,3.07,0,0,1,2.95,2l19.33,44.08V18h4.86V72.06a3.38,3.38,0,0,1-.71,2.11,3.25,3.25,0,0,1-1.9,1.19,2,2,0,0,1-.63.07,3.06,3.06,0,0,1-3-2L313.49,29.24Z"/><path class="cls-1" d="M345.06,75a2.64,2.64,0,0,1-.7-1.69V20.52a2.39,2.39,0,0,1,.74-1.73,2.35,2.35,0,0,1,1.72-.73h13.64a12.28,12.28,0,0,1,10,4.64,16.37,16.37,0,0,1,3.79,10.68V60.17a16.66,16.66,0,0,1-3.79,10.76,12.23,12.23,0,0,1-10,4.71l-13.64.07A2.71,2.71,0,0,1,345.06,75Zm4.15-4.15h11.25a7.8,7.8,0,0,0,6.5-3.27,11.87,11.87,0,0,0,2.5-7.42V33.38A11.73,11.73,0,0,0,367,26.07a7.85,7.85,0,0,0-6.58-3.16H349.21Z"/><path class="cls-1" d="M395.27,75.71q-7.81,0-12-4.39t-4.15-12.55H384q0,6.18,2.74,9.14c1.83,2,4.66,3,8.51,3A10.2,10.2,0,0,0,402,68.61c1.82-1.5,2.74-4.15,2.74-7.94,0-3.1-.85-5.42-2.53-7s-4.5-3.12-8.44-4.72c-1.36-.56-2.44-1-3.24-1.37s-1.82-.86-3.09-1.54a12.77,12.77,0,0,1-3-2.15,25.82,25.82,0,0,1-2.29-2.67,10.56,10.56,0,0,1-1.72-3.62,17.06,17.06,0,0,1-.56-4.54,15.31,15.31,0,0,1,3.9-10.82,13.08,13.08,0,0,1,10.09-4.22q8.08,0,12.23,6.18a15.71,15.71,0,0,1,2.82,9h-4.79c0-.28,0-.66-.07-1.16a12.9,12.9,0,0,0-.63-2.49,10.9,10.9,0,0,0-1.55-3.13A8.41,8.41,0,0,0,398.71,24a10.56,10.56,0,0,0-4.92-1.09,8.49,8.49,0,0,0-6.65,2.78,10.68,10.68,0,0,0-2.49,7.41q0,4.57,2.46,6.82t8.37,4.64a49.87,49.87,0,0,1,4.95,2.18,30.86,30.86,0,0,1,4.26,2.85,11.57,11.57,0,0,1,3.58,4.64,16.12,16.12,0,0,1,1.2,6.44q0,7-3.8,11T395.27,75.71Z"/><path class="cls-1" d="M123.45,117.92h-6.66a.78.78,0,0,1-.57-.24.72.72,0,0,1-.25-.56,10,10,0,0,1,.59-3.2,16.92,16.92,0,0,1,1.19-2.81c.41-.73,1-1.66,1.67-2.8.56-.91,1-1.59,1.23-2a16.56,16.56,0,0,0,.79-1.7,4.56,4.56,0,0,0,.41-1.71,2.88,2.88,0,0,0-.56-1.7,1.8,1.8,0,0,0-1.57-.81,1.77,1.77,0,0,0-1.57.87,3.25,3.25,0,0,0-.56,1.83H116a4.31,4.31,0,0,1,1.14-3.12,3.49,3.49,0,0,1,2.61-1.2,3.33,3.33,0,0,1,2.7,1.26,4.41,4.41,0,0,1,1,2.87A6.13,6.13,0,0,1,123,105a14.09,14.09,0,0,1-.88,2c-.29.53-.75,1.28-1.36,2.25s-1.08,1.79-1.41,2.4a21.11,21.11,0,0,0-1,2.28,10.37,10.37,0,0,0-.68,2.47h5.82Z"/><path class="cls-1" d="M131,117.92v-5.51h-4.64a.79.79,0,0,1-.68-.35.94.94,0,0,1-.11-.42.78.78,0,0,1,.07-.35l5.43-12.1a.71.71,0,0,1,.71-.47.45.45,0,0,1,.18,0,.71.71,0,0,1,.46.27.75.75,0,0,1,.18.5v11.3h1.54v1.59h-1.54v5.51Zm-3.4-7.1H131v-7.55Z"/><path class="cls-1" d="M137.44,117.92h-1.67l5.51-19.22H143Z"/><path class="cls-1" d="M146.65,117.92h-1.59a51.79,51.79,0,0,1,.62-8.26,39.63,39.63,0,0,1,1.26-5.86,29.76,29.76,0,0,1,1.37-3.48h-5.25V98.7h6.59a.75.75,0,0,1,.7.42.72.72,0,0,1,.1.4.62.62,0,0,1-.12.42c-.09.14-.23.38-.41.73s-.48,1.06-.89,2.14a30.31,30.31,0,0,0-1.11,3.55,39.84,39.84,0,0,0-.88,5A52.53,52.53,0,0,0,146.65,117.92Z"/><path class="cls-1" d="M167.81,117.94h-5.39a2.6,2.6,0,0,1-1.83-.77,2.42,2.42,0,0,1-.79-1.78V98.72l1.62,0v16.69a.87.87,0,0,0,.31.63,1,1,0,0,0,.69.3h5.39Z"/><path class="cls-1" d="M169.64,117.92V98.68h1.62v19.24Z"/><path class="cls-1" d="M179.2,117.92H178a1.22,1.22,0,0,1-1-.53,3.07,3.07,0,0,1-.58-1.25c0-.27-.56-3.14-1.55-8.62s-1.51-8.42-1.59-8.84h1.62s.53,2.86,1.53,8.46,1.54,8.48,1.59,8.67a1.46,1.46,0,0,0,.16.49H179a1.36,1.36,0,0,0,.18-.49q.08-.37,1.57-8.67l1.53-8.46h1.64c-.06.39-.6,3.33-1.6,8.82s-1.52,8.37-1.57,8.64a2.8,2.8,0,0,1-.56,1.25A1.27,1.27,0,0,1,179.2,117.92Z"/><path class="cls-1" d="M194.3,116.3v1.59l-8,0a.74.74,0,0,1-.56-.24.77.77,0,0,1-.24-.58V99.52a.78.78,0,0,1,.24-.57.72.72,0,0,1,.56-.25h8v1.62h-7.17v7.1h5.22V109h-5.22v7.29Z"/><path class="cls-1" d="M209,117.92a5.2,5.2,0,0,1-4-1.47,5.85,5.85,0,0,1-1.38-4.18h1.61a4.38,4.38,0,0,0,.92,3,3.71,3.71,0,0,0,2.83,1,3.4,3.4,0,0,0,2.23-.75,3.26,3.26,0,0,0,.91-2.65,3,3,0,0,0-.84-2.32,9.75,9.75,0,0,0-2.81-1.57l-1.08-.46a10.59,10.59,0,0,1-1-.51,4.46,4.46,0,0,1-1-.72,8,8,0,0,1-.76-.89,3.53,3.53,0,0,1-.58-1.2,6,6,0,0,1-.18-1.52,5.07,5.07,0,0,1,1.3-3.6,4.36,4.36,0,0,1,3.36-1.41,4.6,4.6,0,0,1,4.08,2.06,5.27,5.27,0,0,1,.94,3h-1.6a2.91,2.91,0,0,0,0-.38,5.49,5.49,0,0,0-.21-.84,3.75,3.75,0,0,0-.52-1,2.87,2.87,0,0,0-1-.82,3.54,3.54,0,0,0-1.64-.36,2.8,2.8,0,0,0-2.21.92,3.54,3.54,0,0,0-.84,2.47,3,3,0,0,0,.82,2.28,10,10,0,0,0,2.79,1.55,15.26,15.26,0,0,1,1.66.72,10.57,10.57,0,0,1,1.41.95,3.81,3.81,0,0,1,1.2,1.55,5.48,5.48,0,0,1,.4,2.14,5.12,5.12,0,0,1-1.27,3.67A4.52,4.52,0,0,1,209,117.92Z"/><path class="cls-1" d="M221.18,117.92h-1.12a4.08,4.08,0,0,1-3.38-1.6,6.67,6.67,0,0,1-1.26-4.26v-7.5a6.72,6.72,0,0,1,1.26-4.27,4.09,4.09,0,0,1,3.38-1.59h1.12a4.11,4.11,0,0,1,3.38,1.59,6.72,6.72,0,0,1,1.26,4.27v7.5a6.67,6.67,0,0,1-1.26,4.26A4.09,4.09,0,0,1,221.18,117.92Zm-1.12-17.6a2.65,2.65,0,0,0-1.4.35,2.44,2.44,0,0,0-.9.84,4.55,4.55,0,0,0-.48,1.14,6.66,6.66,0,0,0-.22,1.08,6,6,0,0,0-.05.83v7.5a7.11,7.11,0,0,0,.09,1.11,9.48,9.48,0,0,0,.37,1.36,2.65,2.65,0,0,0,.93,1.28,2.72,2.72,0,0,0,1.66.49h1.12a2.77,2.77,0,0,0,1.4-.35,2.65,2.65,0,0,0,.89-.83A5,5,0,0,0,224,114a6.05,6.05,0,0,0,.22-1.08q0-.42,0-.84v-7.5c0-.27,0-.54,0-.83a5.73,5.73,0,0,0-.22-1.08,5.12,5.12,0,0,0-.48-1.13,2.67,2.67,0,0,0-2.29-1.2Z"/><path class="cls-1" d="M233,117.92h-.92a4.07,4.07,0,0,1-3.37-1.6,6.61,6.61,0,0,1-1.27-4.26V98.68h1.62v13.38q0,.42,0,.84a6.22,6.22,0,0,0,.23,1.08,4.25,4.25,0,0,0,.48,1.14,2.48,2.48,0,0,0,.89.83,2.73,2.73,0,0,0,1.39.35H233a2.71,2.71,0,0,0,1.65-.49,2.67,2.67,0,0,0,.94-1.28,8.1,8.1,0,0,0,.36-1.35,7,7,0,0,0,.09-1.12V98.68h1.62v13.38a6.67,6.67,0,0,1-1.26,4.26A4.11,4.11,0,0,1,233,117.92Z"/><path class="cls-1" d="M241.1,117.92h-1.59v-18a1.15,1.15,0,0,1,.23-.7,1,1,0,0,1,.61-.37.83.83,0,0,1,.24,0,1,1,0,0,1,1,.68l6.45,14.7V98.68h1.61v18a1.09,1.09,0,0,1-.23.7,1.06,1.06,0,0,1-.63.4.62.62,0,0,1-.21,0,1,1,0,0,1-1-.68l-6.47-14.71Z"/><path class="cls-1" d="M251.63,117.68a.84.84,0,0,1-.24-.56V99.52a.86.86,0,0,1,.82-.82h4.55a4.09,4.09,0,0,1,3.33,1.55,5.46,5.46,0,0,1,1.26,3.56v8.93a5.55,5.55,0,0,1-1.26,3.58,4.08,4.08,0,0,1-3.33,1.57l-4.55,0A.87.87,0,0,1,251.63,117.68ZM253,116.3h3.75a2.61,2.61,0,0,0,2.17-1.09,4,4,0,0,0,.83-2.47v-8.93a3.9,3.9,0,0,0-.81-2.44,2.62,2.62,0,0,0-2.19-1.05H253Z"/><path class="cls-1" d="M279.4,100.32h-7.17v7.1h5.22V109h-5.22v8.93h-1.6V99.52a.78.78,0,0,1,.24-.57.72.72,0,0,1,.56-.25h8Z"/><path class="cls-1" d="M291.17,117.92h-1.76l-3.73-9h-2.95v9h-1.6V99.5a.79.79,0,0,1,.24-.59.73.73,0,0,1,.56-.23h4.57a4.13,4.13,0,0,1,3.42,1.68,5.26,5.26,0,0,1,1.17,3.43,5.7,5.7,0,0,1-1,3.26,4.08,4.08,0,0,1-2.7,1.82Zm-8.44-10.55h3.77a2.48,2.48,0,0,0,2.23-1.15,4.37,4.37,0,0,0,.75-2.43,3.91,3.91,0,0,0-.81-2.43,2.59,2.59,0,0,0-2.17-1.07h-3.77Z"/><path class="cls-1" d="M298.45,117.92h-1.12a4.09,4.09,0,0,1-3.38-1.6,6.67,6.67,0,0,1-1.26-4.26v-7.5a6.72,6.72,0,0,1,1.26-4.27,4.11,4.11,0,0,1,3.38-1.59h1.12a4.09,4.09,0,0,1,3.38,1.59,6.72,6.72,0,0,1,1.26,4.27v7.5a6.67,6.67,0,0,1-1.26,4.26A4.08,4.08,0,0,1,298.45,117.92Zm-1.12-17.6a2.67,2.67,0,0,0-1.4.35,2.61,2.61,0,0,0-.9.84,4.55,4.55,0,0,0-.48,1.14,6.66,6.66,0,0,0-.22,1.08,8,8,0,0,0-.05.83v7.5a6.11,6.11,0,0,0,.1,1.11,8.18,8.18,0,0,0,.36,1.36,2.61,2.61,0,0,0,.94,1.28,2.67,2.67,0,0,0,1.65.49h1.12a2.74,2.74,0,0,0,1.4-.35,2.56,2.56,0,0,0,.89-.83,5,5,0,0,0,.48-1.14,6.05,6.05,0,0,0,.22-1.08,7.87,7.87,0,0,0,0-.84v-7.5a7.94,7.94,0,0,0,0-.83,5.73,5.73,0,0,0-.22-1.08,5.12,5.12,0,0,0-.48-1.13,2.58,2.58,0,0,0-.89-.84,2.65,2.65,0,0,0-1.4-.36Z"/><path class="cls-1" d="M306.35,117.94h-1.61v-18a1.09,1.09,0,0,1,.23-.7,1.15,1.15,0,0,1,.61-.4l.21,0a1.08,1.08,0,0,1,1,.68L310,107l3.21-7.5a1,1,0,0,1,1-.68l.22,0a1.17,1.17,0,0,1,.63.4,1.15,1.15,0,0,1,.23.7v18h-1.61V102.47l-2.93,6.85a.76.76,0,0,1-.73.49.82.82,0,0,1-.75-.49l-2.91-6.85Z"/><path class="cls-1" d="M79.44,147a1,1,0,0,1-1-.68l-3.21-7.5L72,146.28a1,1,0,0,1-1,.68l-.24,0a1,1,0,0,1-.61-.37,1.24,1.24,0,0,1-.26-.69l-1-18.12h1.61l.87,15.8,3.07-7.15a.72.72,0,0,1,.73-.47.8.8,0,0,1,.75.47l3,7.08.7-15.73h1.6l-.8,18.12a1.17,1.17,0,0,1-.26.69,1,1,0,0,1-.61.37Z"/><path class="cls-1" d="M90.58,127.76h1.61V147H90.58V138.1H84.76V147H83.15V127.76h1.61v8.75h5.82Z"/><path class="cls-1" d="M94,147V127.76h1.62V147Z"/><path class="cls-1" d="M105.39,127.76v1.62h-3.14V147h-1.62V129.38H97.51v-1.62h7.88Z"/><path class="cls-1" d="M116.05,145.39V147l-8,0a.8.8,0,0,1-.79-.82V128.61a.81.81,0,0,1,.23-.58.76.76,0,0,1,.56-.24h8v1.62h-7.17v7.1h5.23v1.59h-5.23v7.29Z"/><path class="cls-1" d="M125.17,127.76h1.62V147h-1.62V138.1h-5.81V147h-1.62V127.76h1.62v8.75h5.81Z"/><path class="cls-1" d="M137.33,145.39V147l-8,0a.77.77,0,0,1-.56-.24.8.8,0,0,1-.23-.58V128.61a.85.85,0,0,1,.23-.58.77.77,0,0,1,.56-.24h8v1.62h-7.17v7.1h5.23v1.59h-5.23v7.29Z"/><path class="cls-1" d="M148.14,147s0-.26-.13-.72-.22-1.17-.39-2.12-.33-1.84-.47-2.65h-5.46q-1,5.44-1,5.49H139c.07-.39.6-3.33,1.61-8.82s1.53-8.35,1.58-8.6a2.92,2.92,0,0,1,.56-1.25,1.28,1.28,0,0,1,1-.53H145a1.24,1.24,0,0,1,1,.53,3.19,3.19,0,0,1,.57,1.25q.07.38,1.55,8.56t1.59,8.86Zm-6.17-7.1h4.88q-1.74-9.57-1.83-10a2.06,2.06,0,0,0-.07-.26.29.29,0,0,0-.3-.21h-.47a.3.3,0,0,0-.31.21c0,.05,0,.13-.07.26Q143.71,130.33,142,139.91Z"/><path class="cls-1" d="M151.4,146.77a.86.86,0,0,1-.24-.56v-17.6a.79.79,0,0,1,.25-.58.78.78,0,0,1,.57-.24h4.55a4.11,4.11,0,0,1,3.33,1.54,5.5,5.5,0,0,1,1.26,3.57v8.93a5.55,5.55,0,0,1-1.26,3.58,4.08,4.08,0,0,1-3.33,1.57L152,147A.87.87,0,0,1,151.4,146.77Zm1.38-1.38h3.75a2.61,2.61,0,0,0,2.17-1.09,4,4,0,0,0,.83-2.47V132.9a3.9,3.9,0,0,0-.81-2.44,2.62,2.62,0,0,0-2.19-1.05h-3.75Z"/><path class="cls-1" d="M178.37,147H173a2.57,2.57,0,0,1-1.83-.77,2.42,2.42,0,0,1-.79-1.78V127.81l1.61,0v16.69a.9.9,0,0,0,.32.63,1,1,0,0,0,.69.3h5.39Z"/><path class="cls-1" d="M180.2,147V127.76h1.62V147Z"/><path class="cls-1" d="M189.53,147H188.4a4.07,4.07,0,0,1-3.37-1.6,6.61,6.61,0,0,1-1.27-4.26v-7.5a6.64,6.64,0,0,1,1.27-4.27,4.09,4.09,0,0,1,3.37-1.59h1.13a4.15,4.15,0,0,1,3.13,1.29,5.81,5.81,0,0,1,1.46,3.56h-1.64a5.43,5.43,0,0,0-.48-1.7,2.52,2.52,0,0,0-.8-1,3.33,3.33,0,0,0-.85-.42,2.85,2.85,0,0,0-.82-.11H188.4a2.64,2.64,0,0,0-1.39.35,2.44,2.44,0,0,0-.9.84,3.91,3.91,0,0,0-.48,1.14,6.84,6.84,0,0,0-.23,1.08,7.81,7.81,0,0,0,0,.83v7.5a7.11,7.11,0,0,0,.09,1.11,8.18,8.18,0,0,0,.36,1.36,2.67,2.67,0,0,0,.94,1.28,2.71,2.71,0,0,0,1.65.49h1.13a2.73,2.73,0,0,0,1.39-.35,2.48,2.48,0,0,0,.89-.83,4.25,4.25,0,0,0,.48-1.14,6.22,6.22,0,0,0,.23-1.08q0-.42,0-.84V139h-2.22v-1.62h3.84v3.8a6.61,6.61,0,0,1-1.27,4.26A4.07,4.07,0,0,1,189.53,147Z"/><path class="cls-1" d="M203.33,127.76H205V147h-1.62V138.1h-5.81V147H195.9V127.76h1.62v8.75h5.81Z"/><path class="cls-1" d="M214.61,127.76v1.62h-3.14V147h-1.62V129.38h-3.12v-1.62h7.88Z"/><path class="cls-1" d="M229.51,147a5.2,5.2,0,0,1-4-1.47,5.85,5.85,0,0,1-1.38-4.18h1.61a4.38,4.38,0,0,0,.92,3,3.71,3.71,0,0,0,2.83,1,3.4,3.4,0,0,0,2.23-.75,3.26,3.26,0,0,0,.91-2.65,3,3,0,0,0-.84-2.32A9.75,9.75,0,0,0,229,138.1l-1.08-.46c-.27-.11-.61-.29-1-.51a4.46,4.46,0,0,1-1-.72,8,8,0,0,1-.76-.89,3.53,3.53,0,0,1-.58-1.2,6.09,6.09,0,0,1-.18-1.52,5.1,5.1,0,0,1,1.3-3.61,4.38,4.38,0,0,1,3.36-1.4,4.6,4.6,0,0,1,4.08,2.06,5.27,5.27,0,0,1,.94,3h-1.6c0-.09,0-.22,0-.39a5.75,5.75,0,0,0-.21-.83,3.75,3.75,0,0,0-.52-1,2.76,2.76,0,0,0-1-.82,3.54,3.54,0,0,0-1.64-.36,2.8,2.8,0,0,0-2.21.92,3.54,3.54,0,0,0-.84,2.47,3,3,0,0,0,.82,2.28,9.74,9.74,0,0,0,2.79,1.54,17.22,17.22,0,0,1,1.66.73,10.57,10.57,0,0,1,1.41,1,3.9,3.9,0,0,1,1.2,1.55,5.45,5.45,0,0,1,.4,2.14,5.12,5.12,0,0,1-1.27,3.67A4.52,4.52,0,0,1,229.51,147Z"/><path class="cls-1" d="M243.81,127.76v1.62h-3.14V147h-1.62V129.38h-3.12v-1.62h7.88Z"/><path class="cls-1" d="M254.83,147s-.05-.26-.13-.72-.22-1.17-.39-2.12-.33-1.84-.47-2.65h-5.46c-.66,3.63-1,5.46-1,5.49h-1.67q.09-.58,1.61-8.82t1.58-8.6a2.8,2.8,0,0,1,.56-1.25,1.27,1.27,0,0,1,1-.53h1.24a1.25,1.25,0,0,1,1,.53,3.19,3.19,0,0,1,.57,1.25c0,.25.56,3.1,1.55,8.56s1.51,8.4,1.59,8.86Zm-6.17-7.1h4.88q-1.74-9.57-1.83-10c0-.13-.06-.21-.07-.26a.3.3,0,0,0-.31-.21h-.47a.29.29,0,0,0-.3.21,2.06,2.06,0,0,0-.07.26Q250.4,130.33,248.66,139.91Z"/><path class="cls-1" d="M265.72,127.76v1.62h-3.14V147H261V129.38h-3.12v-1.62h7.87Z"/><path class="cls-1" d="M267.6,147V127.76h1.62V147Z"/><path class="cls-1" d="M276.93,147H275.8a4.07,4.07,0,0,1-3.37-1.6,6.61,6.61,0,0,1-1.27-4.26v-7.5a6.64,6.64,0,0,1,1.27-4.27,4.09,4.09,0,0,1,3.37-1.59h1.13a4.09,4.09,0,0,1,3.37,1.59,6.64,6.64,0,0,1,1.27,4.27v7.5a6.61,6.61,0,0,1-1.27,4.26A4.07,4.07,0,0,1,276.93,147Zm-1.13-17.6a2.64,2.64,0,0,0-1.39.35,2.56,2.56,0,0,0-.91.84,4.55,4.55,0,0,0-.48,1.14,8,8,0,0,0-.22,1.08,7.86,7.86,0,0,0-.05.83v7.5a7.15,7.15,0,0,0,.1,1.11,8.18,8.18,0,0,0,.36,1.36,2.61,2.61,0,0,0,.94,1.28,2.69,2.69,0,0,0,1.65.49h1.13a2.73,2.73,0,0,0,1.39-.35,2.48,2.48,0,0,0,.89-.83,4.25,4.25,0,0,0,.48-1.14,6.22,6.22,0,0,0,.23-1.08q0-.42,0-.84v-7.5c0-.27,0-.55,0-.83a5.87,5.87,0,0,0-.23-1.08,4.32,4.32,0,0,0-.48-1.13,2.5,2.5,0,0,0-.89-.84,2.64,2.64,0,0,0-1.39-.36Z"/><path class="cls-1" d="M284.8,147h-1.59V129a1.15,1.15,0,0,1,.23-.7,1,1,0,0,1,.61-.37.78.78,0,0,1,.24,0,1,1,0,0,1,1,.68l6.45,14.7v-15.5h1.61v18a1.15,1.15,0,0,1-.23.7,1.11,1.11,0,0,1-.63.4.65.65,0,0,1-.22,0,1,1,0,0,1-1-.68l-6.47-14.72Z"/><path class="cls-1" d="M295.34,145.57a.75.75,0,0,1,.57-.25.79.79,0,0,1,.58.25.78.78,0,0,1,.24.57,1.48,1.48,0,0,1-.41,1,2.4,2.4,0,0,1-.81.61l-.42.16v-1.78A.75.75,0,0,1,295.34,145.57Z"/><path class="cls-1" d="M307.77,147h-1.62V129a1.1,1.1,0,0,1,.24-.7,1.06,1.06,0,0,1,.61-.4l.21,0a1.06,1.06,0,0,1,1,.68l3.21,7.5,3.21-7.5a1,1,0,0,1,1-.68l.21,0a1.11,1.11,0,0,1,.64.4,1.15,1.15,0,0,1,.23.7V147h-1.62V131.56l-2.93,6.85a.74.74,0,0,1-.72.49.82.82,0,0,1-.75-.49l-2.91-6.85Z"/><path class="cls-1" d="M327.65,147s0-.26-.13-.72-.22-1.17-.39-2.12-.33-1.84-.47-2.65H321.2c-.66,3.63-1,5.46-1,5.49h-1.67q.09-.58,1.61-8.82c1-5.48,1.53-8.35,1.58-8.6a2.8,2.8,0,0,1,.56-1.25,1.27,1.27,0,0,1,1-.53h1.24a1.25,1.25,0,0,1,1,.53,3.19,3.19,0,0,1,.57,1.25c.05.25.56,3.1,1.55,8.56s1.51,8.4,1.59,8.86Zm-6.17-7.1h4.88q-1.74-9.57-1.83-10c0-.13-.06-.21-.07-.26a.3.3,0,0,0-.31-.21h-.47a.29.29,0,0,0-.3.21,2.06,2.06,0,0,0-.07.26Q323.22,130.33,321.48,139.91Z"/><path class="cls-1" d="M330.65,147V127.76h1.61V147Z"/><path class="cls-1" d="M335.8,147h-1.59V129a1.15,1.15,0,0,1,.23-.7,1,1,0,0,1,.61-.37.78.78,0,0,1,.24,0,1,1,0,0,1,1,.68l6.45,14.7v-15.5h1.61v18a1.15,1.15,0,0,1-.23.7,1.11,1.11,0,0,1-.63.4.65.65,0,0,1-.22,0,1,1,0,0,1-1-.68l-6.47-14.72Z"/><path class="cls-1" d="M354.86,145.39V147l-8,0a.74.74,0,0,1-.56-.24.77.77,0,0,1-.24-.58V128.61a.82.82,0,0,1,.24-.58.74.74,0,0,1,.56-.24h8v1.62h-7.18v7.1h5.23v1.59h-5.23v7.29Z"/><path class="cls-1" d="M398.81,300.85c-1.43-.57-4,4-5.72,6-.94,1.1-1.72,1.95-2.65,2.91-.45.37-.73.52-.49.18l-.33.49-2.22,2c-.41.29-.77.64-1.21.92l-.66.4a4.14,4.14,0,0,1-.69.37,15.38,15.38,0,0,1-6.31,1.56,18.73,18.73,0,0,1-3.41-.22,11.14,11.14,0,0,1-3.29-.85,4.43,4.43,0,0,1-2.28-2.05,6.5,6.5,0,0,1-.47-3.2,8,8,0,0,1,0-1.07,2.09,2.09,0,0,1,.06-.47,4.37,4.37,0,0,1,.09-.5c.15-.67.35-1.33.56-2,.41-1.29.91-2.51,1.4-3.75,1-2.46,2.12-5,3.32-8,.05-1.09.4-1.17,2.65-6.38-1.19,2.76.12.45,1-1.26.36-1.05.89-2.29,1.42-3.53a43.85,43.85,0,0,0,2.18-4.49c.39-1.08.85-2.19,1.14-3.23s.52-2,.63-2.63c.9-3.39,0,.84-.23,1.59.62-1.32.56-2.82,1-3.93a1.43,1.43,0,0,1,0,.43c.58-2.63.9-4.76,1.2-6.91.14-1.08.24-2.17.37-3.34s.19-2.41.22-3.81a12.77,12.77,0,0,1-.2-3.23c0-1.62-.06-3.49-.19-4.72.18.79-.05-3.14-.15-4.72,0,0-.15-.73-.31-1.47s-.32-1.46-.32-1.46c-.16-.72-.26-1.34-.35-1.91s-.13-1.11-.23-1.7a15.38,15.38,0,0,0-.37-1.87c-.1-.35-.19-.71-.31-1.11s-.3-.8-.47-1.25l.24.9c-.49-1.34-1.43-3.71-2.5-6s-2.21-4.55-2.82-5.78c-1.74-2.79-3.46-5.36-5.08-7.81-.8-1.22-1.59-2.42-2.31-3.59s-1.36-2.36-1.94-3.57c-1.2-2.38-2.22-4.78-3.16-7.17-.47-1.2-.93-2.39-1.38-3.6l-.35-.92-.19-.46a4.27,4.27,0,0,0-.28-.57,2.7,2.7,0,0,0-.48-.63,1.9,1.9,0,0,0-1.09-.55,1.85,1.85,0,0,0-1.28.35,3,3,0,0,0-.37.32,2.79,2.79,0,0,0-.24.31c-.05.07-.09.15-.14.23l-.1.22-.09.3a3.09,3.09,0,0,0-.15.6l-.14,1.06c0,.69,0,1.34,0,2s.15,1.28.23,1.93c0,.33.07.66.12,1l.2.94a73.18,73.18,0,0,0,2,7.69c1.71,5.2,3.88,10.51,5.83,16.67.61,1.62-.18-1.26.38,0a56.18,56.18,0,0,1,1.52,5.53,16.32,16.32,0,0,0-.35-1.65.41.41,0,0,0,.08.14s-.27-.89-.53-1.79-.58-1.79-.58-1.79c0-.18.11.21.06-.15-.4-1.2-.93-2.59-1.44-4.14a34,34,0,0,1,2.12,5.81c-.11-.23-.23-.62-.49-1.42a46.19,46.19,0,0,1,1.25,4.56c.44,2.35.38,1.76.32,2.08,0,0,.08.46.15,1.14a16.73,16.73,0,0,1,.12,2.45,5.92,5.92,0,0,1-.38,2.15,1.76,1.76,0,0,1-.41.64,1.39,1.39,0,0,1-.41.39,2.38,2.38,0,0,1-1.84-.2,10.14,10.14,0,0,1-2-1.15,31.65,31.65,0,0,1-2.58-2c.39.15,1.36.9,2.47,1.61a7.4,7.4,0,0,0,3,1.35s-.11,0-.29-.11-.43-.2-.68-.34a11.19,11.19,0,0,1-1-.65l-.23.1-.47-.31c-.29-.19-.66-.45-1-.73-.75-.55-1.47-1.15-1.47-1.15l.19.1a5.65,5.65,0,0,1-1.51-1.13c-.11-.13-.36-.41,0-.14l-1.06-.85-1.06-.88c1.32.93-1.73-1.67-1.26-1.59l-2.24-2.14-1-.95-.93-.85-3.26-2.94c-2-1.84-3.94-3.61-6.67-6.5.85,1-2.08-1.47-3.77-3.24-1-1-1.18-1.32-.48-.76l-1.17-1.08c-.6-.54-1.18-1.09-1.18-1.09-1.25-1.58-2.63-3-4.14-4.61s-3.2-3.36-5-5.62l.28.16-1.13-1.2c-.4-.43-.81-.89-1.24-1.37l-1.35-1.56-1.54-1.75.56.31c-2.6-3.14-2.42-2-5.37-5.34-.15.17,1.69,2.3,1.83,2.77-.54-.94-3.82-4.42-3.17-3.49-3.14-3.13-2.12-2.22-2.35-2.53l-1.9-1.77c-2.11-2.25-.47-.92.43-.19a39.75,39.75,0,0,1-3.18-3.18c-1-1.16-2.05-2.38-3.11-3.61,0,0,.22.23.47.46l.48.45s-.73-.79-1.37-1.62l-1.33-1.65c-1.9-2.12-4.47-5.25-7.28-7.83,0,0,.55.38,1.08.78s1.05.8,1.05.8c-1.81-2-1.07-.87-1.62-1.32a30,30,0,0,0-3.73-2.75,9,9,0,0,0-.82-.43,4,4,0,0,0-1.13-.31,3.34,3.34,0,0,0-.45,0,2.68,2.68,0,0,0-.61.13,2.52,2.52,0,0,0-.34.15,2.19,2.19,0,0,0-.37.25L291,167l0,0h0l-.3.41h0l0,0c0,.06,0,0-.13.26a2.63,2.63,0,0,0-.15.74v.31l0,.12a3.38,3.38,0,0,0,.09.44c0,.11.06.21.1.32s.06.18.1.27a13.17,13.17,0,0,0,.73,1.24l.71,1.06c.47.67.93,1.35,1.39,2q1.35,2,2.58,3.94c1.64,2.59,3.14,5.09,4.48,7.31l0,.32c0,.08,0,.16,0,.23l0,.11a44.85,44.85,0,0,0,3.34,5.2c1.17,1.66,2.41,3.24,3.62,4.79a83.44,83.44,0,0,0,7,8c5.56,7.39,4.36,4.15,9.41,11l-.12-.28c4.61,5.36,9.67,10.29,14.67,15.29s10,10,14.94,15c2.43,2.51,4.85,5,7,7.59a31,31,0,0,1,2.93,3.92,10.36,10.36,0,0,1,1.52,4.11c.23,1.53.35,3.31.61,5l.36,2.47c.09.79.18,1.57.2,2.33a15.49,15.49,0,0,1-.44,4.42,29.42,29.42,0,0,1-1.56,4.34l-.09-.1c-1,2.33-2.21,4.69-3.3,7.07L360,288l-.4.9-.42.85-1.66,3.41a82.17,82.17,0,0,1-8.38,12.61l-1.19,1.48-1.26,1.41c-.42.46-.82.95-1.26,1.39l-1.31,1.34c-.43.46-.89.88-1.35,1.3s-.89.87-1.38,1.22L340,315.06c-.46.37-1,.72-1.53,1.08-4.16,2.89-8.53,5.64-12.85,8.45s-8.66,5.59-12.87,8.77l-12.37,9.23-6.18,4.6c-2.06,1.54-4.16,3-6.25,4.55l-12.57,9.07a9.05,9.05,0,0,0-2,1.64,5.7,5.7,0,0,1-1.69,1.41,32.86,32.86,0,0,1-4.11,2.25c2.37-1.46.93-.81,1.72-1.33-4,2.34-9.33,5-12.92,7.08l3.16-1.43c-1.39.82-3.65,1.95-5,2.59.5-.37-1.48.4-.39-.22-.94.56-1.74,1-2.45,1.4l-1,.53-.36.18-.37.22-.71.41-.33.2a1.25,1.25,0,0,0-.12.34c0,.24-.14.45-.17.68-.06.45-.16.89-.17,1.27s0,.54,0,.8,0,.46,0,.68a11.71,11.71,0,0,0,.09,1.32c0,.22.06.46.09.7s.09.49.15.76a13.68,13.68,0,0,0,.51,1.83c.12.35.25.72.4,1.12a8.2,8.2,0,0,0,.36.74,3.88,3.88,0,0,0,.48.79A10.19,10.19,0,0,0,252,388l.26.2.3.17.65.36c.23.11.47.19.72.29a4.17,4.17,0,0,0,.78.25,12.23,12.23,0,0,0,3.47.41c.61,0,1.23-.06,1.85-.14.3,0,.62-.08.93-.13l.35-.1,1.05.69c.51.32,1,.61,1.57.88a10.86,10.86,0,0,0,3.3,1.06l.56.1a8,8,0,0,0,1.23.06,8.71,8.71,0,0,0,1.19-.05l.54-.07-.76.12c-.22,0-.41,0-.57,0-.32,0-.53.05-.68.07s-.34.06-.4.1-.17.08-.65.06a8.53,8.53,0,0,1-2.71-.71,8.56,8.56,0,0,0,3.67.84,13,13,0,0,0,1.76-.14l.88-.14c.28-.07.57-.17.85-.25a13.88,13.88,0,0,0,5.72-3.72c-.7.53-.59.29.56-1,.87-1,1.39-1.51,1.89-2.15a10.26,10.26,0,0,0,1.62-2.85l-.17.48a9.28,9.28,0,0,1-.42,1,9.52,9.52,0,0,1-.5,1c-.14.27-.24.44-.24.44a11.06,11.06,0,0,0,2.06-5.65,5.37,5.37,0,0,0,.16-.8c0-.16,0-.34,0-.54l0-.16c0-.11,0-.21,0-.28s.07,0,.11,0l.11,0a.15.15,0,0,1,.1.11l0,0a.64.64,0,0,1,.23-.06l1.08,0,2,.08c1.3.11,2.64.23,4.57.51-4.14-.88,1.12-.07.68-.26,0,0-1.18-.23-2.37-.37s-2.42-.24-2.42-.24c1.71.19,2.4.32,2.52.35s-.35,0-1-.09c-1.33-.16-3.49-.21-3.24-.05-3.21-.34,4.47-.22-.94-.51a43.3,43.3,0,0,1,7.11.69c.48.09,1,.18,1.45.31a15.61,15.61,0,0,1,1.54.42l.84.25.88.34a16.93,16.93,0,0,1,2,.92c-3.41-1.79.75.18-1-.9.55.3,1,.52,1.31.72l.73.46c.32.21.36.25.29.24s-.67-.25,0,.25c1.22.72,2,1.25,2.86,1.7.42.23.82.46,1.28.68s1,.42,1.6.66c2.08,1,1.92.94,1.47.83s-1.17-.35-.11.16a38.21,38.21,0,0,1-6.2-3.12l-1.73-1c-.26-.15-.52-.31-.74-.42l-.62-.3c-.72-.35-1.16-.4-1-.14a27.73,27.73,0,0,0-7.95-1.72,31.13,31.13,0,0,1,4.81,1.05c.43.1.83.27,1.25.41a12.81,12.81,0,0,1,1.22.47l.59.25c.2.08.37.19.56.28.37.21.7.34,1.14.59l.35-.22c2.43,1.46,3.09,1.52,4.89,2.52-.5-.21-.35,0,.21.3a24.12,24.12,0,0,0,2.58,1.3c-.59-.3-1.42-.72-1.16-.66a24.8,24.8,0,0,0,2.45,1l1,.36.95.27c.65.17,1.3.4,2.12.59s1.78.45,3,.7c-1-.23-1.83-.52-2.53-.73a15.3,15.3,0,0,1-1.86-.67c-.57-.23-1.14-.45-1.77-.73l-2.22-1.06a8.25,8.25,0,0,1,1.94.68c.76.36,1.7.69,2.78,1.07-.33-.08-.79-.23-.17,0,0,.05,2.39.55,2.39.55,1.24.39,1.84.49,2.08.59s.12.12,0,.14-.7.07,1.42.52a9.8,9.8,0,0,0,2,.31,11.82,11.82,0,0,0,1.59,0c.49,0,.95-.12,1.44-.17s1-.15,1.58-.23l-.47,0c.52-.1.9-.15,1.16-.22h0a21.85,21.85,0,0,0,3.87-1.4,12.41,12.41,0,0,0,1.4-.75,4.09,4.09,0,0,0,.8-.57,14.13,14.13,0,0,0,2.74-1.91c.3-.25.71-.58,1.15-1s.94-.86,1.45-1.34c1-1,2.07-2,2.93-2.79l-.11.13a11.39,11.39,0,0,0,1.53-2c.4-.65.68-1.24.91-1.7.43-.94.63-1.4.56-1,0,0,.5-1.33.86-2.69s.65-2.72.65-2.72l.14.64a28.29,28.29,0,0,0,.53-4.61c0-1,0-1.7,0-3.44q.06-.68.09-1.47c0-.14,0-.28,0-.42V358c0-.39,0-.79,0-1.19a9.65,9.65,0,0,0-.35-2.21,3.64,3.64,0,0,0-.37-.82,2.62,2.62,0,0,0-.24-.34.92.92,0,0,0-.36-.28,1.46,1.46,0,0,0-.95,0,3.2,3.2,0,0,0-.77.42,6.1,6.1,0,0,0-1.26,1.36,16.45,16.45,0,0,0-1.5,2.75c-.19.35-.45.91-.84,1.83l.47-.94.5-.93a28.36,28.36,0,0,0-1.37,3.24c-.23.65-.4,1.15-.85,2.36.21-.49.25-.56-.29.77.11-.28.2-.53.29-.77l-.38.94.07-.13c-.14.4-.31.82-.52,1.3,0-.13.24-.62.45-1.17l-.24.42c-.67,1.33-1.14,2.35-1.72,3.38a14.13,14.13,0,0,1-2.37,3.19l.75-.87c-.3.33-.67.67-1,1s-.78.66-1.17.95a11,11,0,0,0-1.66,1.37c-.36.21-.84.63-1.34,1l-.17.11-.08,0,.24-.14a5.76,5.76,0,0,1-1.43.9l-.17.08c-.12,0-.27.13-.47.19a5.34,5.34,0,0,1-1.39.34,4,4,0,0,1-.77,0,6.83,6.83,0,0,1-.71-.07l-.7-.11-1.41-.33c-.51-.16-1-.28-1.49-.43l-.72-.36c-1.6-.58-1.58-.68-1.38-.62-1.34-.64-2.54-1.2-3.68-1.72s-2.21-1-3.26-1.48a28.33,28.33,0,0,1-6.64-4.22c-1.05-.61.93,1.07,1.07,1.25a17.32,17.32,0,0,1-2.38-1.65,6.28,6.28,0,0,1-2.07-2.55v0a1.49,1.49,0,0,1,.44-1,14.45,14.45,0,0,1,1.11-1.2c.86-.82,1.87-1.67,2.81-2.41,1.88-1.47,3.43-2.5,3-1.92,4.17-3.3-1.44.86.57-.9l.49-.37c-1.47,1.11-2.65,1.94-3.53,2.51-.21.06.56-.69,1.56-1.55s2.2-1.81,2.79-2.23l-.63.84a23.68,23.68,0,0,0,4-3.76c1.16-.86,2.24-1.64,3.16-2.29.23,0-.13.41.34.24,0,0,.83-.61,1.68-1.19l1.7-1.18.11.18a61,61,0,0,1,5.83-3.91c-1.09.79.12.1,1.22-.52s2.13-1.12.6-.07c1.8-1,2.12-1.62,3.17-1.92,1.13-.91-1.65.84-2.59,1.3-.89.16,3.84-2.4,5.94-3.72.26,0-1.33,1,1.24-.37a19,19,0,0,1,3.58-2c-.1-.18,2.88-1.62,4.34-2.4-1.66.85-4.09,2-3.1,1.27,1.23-.76,2.3-1.41,5.22-2.94l-1,.49-1,.5.17-.11,1.08-.58,2.36-1.24c1.17-.53,2.47-1.11,4.13-2-1.42.85-2.33,1.33-3.54,2.14.8-.47,2-1.16,3.24-1.88l2-1.1c.67-.38,1.35-.71,2-1l.49-.18a9.86,9.86,0,0,1,1.08-.35l1.58-.46a9,9,0,0,1,1.88-.56l1.15-.16c.31-.06.51-.07.51-.13,2.05,0,1.22.1-.15.2a10.76,10.76,0,0,0-1.07.17l-.54.09a3.8,3.8,0,0,0-.51.15,7.52,7.52,0,0,0-1.21.44l1.56-.4c.44-.09.82-.12,1.16-.18l.47-.07.43,0,.77-.06a34.05,34.05,0,0,1,4.47,0l-1.66.22c1.66,0,5-.23,5.2-.16a14.23,14.23,0,0,0-1.87,0,7.7,7.7,0,0,1,1.61-.29c.75-.11,1.65-.21,2.5-.31,1.62-.24,3-.47,2.88-.64,1.69-.22,3.42-.51,5.16-.88-.56.15-1.13.3-1.49.41a15.55,15.55,0,0,0,2.29-.58,55,55,0,0,0,6-1.74c3.49-1.25,6.77-5.33,9.23-9.58-.47.89-.94,1.67-.94,1.67s.65-1.06,1.23-2.15c.15-.27.29-.54.42-.79C398.05,306.08,399.55,301.15,398.81,300.85ZM293.54,168.32s0,0,0,0h0Zm.17-.06Zm39.84,54.39-.4-.44c1.65,1.65,3.41,3.4,5.27,5.22C337.06,226.18,334.84,224,333.55,222.65ZM274.36,379.34v.06l0,0Zm-.1.05c0,.05.05.09,0,.09a.15.15,0,0,0-.07-.05A.2.2,0,0,0,274.26,379.39Zm-.14.07c.13.11,0,.11,0,.18l-.16-.13Zm-2.42-.82c0,.08,0,.1-.08.11l-.05,0Zm-.8,2.46c-.13-.13-.23-.2-.36-.35.16.17.25.15.13,0s0,0,.08,0l-.05-.14s.16.17.24.29A1.24,1.24,0,0,0,270.9,381.1Zm0-.18c0-.05,0-.07,0-.07Zm.17-.6a.66.66,0,0,1-.2.11c.11,0,.09,0,.13,0l0,0a.49.49,0,0,1,0,.11l0,0c-.07.09,0,0,0,.07l.07,0v0l0,0h0v0c-.1.08-.21.18-.17.09a.17.17,0,0,1,.07,0s-.1.06-.06,0,0,0,.06-.08l.09-.17c-.3.18-.06-.06,0-.08a.51.51,0,0,1,.14-.07Zm.12-.44c-.1,0-.19,0-.17,0a.42.42,0,0,1,.19-.09h-.13a.4.4,0,0,0,.16-.11Zm.07.89.11.2C271.32,381,271.29,380.91,271.3,380.77Zm.12.19s0,0,0-.07,0-.07.11,0A.16.16,0,0,1,271.42,381Zm.27.18c-.06.28,0-.2-.08-.05v.08c0,.1-.07-.05-.06-.24l.07.07c0-.11,0-.11.1-.09Zm.08-.08a.45.45,0,0,0,0-.13l.06,0C271.81,381,271.78,381,271.77,381.06Zm.17-.22h0Zm0,.06v0a.35.35,0,0,0,0,.07S272,380.91,272,380.9Zm2.08-.51a.38.38,0,0,0-.09-.09c.24.13,0-.15.13-.09s0,0,.07.05Zm.24-.29c-.08,0-.19-.08-.17,0a1.7,1.7,0,0,0-.17-.23,2.55,2.55,0,0,1,.17.33l-.28-.13c.12.1-.05.05.11.18-.16,0-.15-.21-.27-.31s.22.28-.08.16l-.14-.14s0,.14-.06.08,0,0,.06,0c.3.26.14.29.46.53l-.07.09a1,1,0,0,0-.08-.11s0,.06.07.12-.16.2-.24.3l0-.07v.1l-.13.17-.16.18a.64.64,0,0,1-.17-.16l.07.09a3,3,0,0,0-.75-.3c.11.37-.16-.06-.11.22s0,.1,0,.22a.8.8,0,0,0-.14-.36.55.55,0,0,1,0,.2c-.06-.13-.19-.45-.16-.14-.05-.11,0-.14,0-.21l.07.08c-.11-.4.35,0,.13-.54.5.41-.24-.53.22-.16l-.06-.07c.25-.11.53-.17.78-.28a1.25,1.25,0,0,0,.34-.19.55.55,0,0,0,.21-.26l.07.11.19-.06c.06.06.08.11,0,.06.17.12,0,.07,0,.09a.5.5,0,0,1,.33.17c.05.07.07.12,0,.15l.11,0v0Zm.1-.15-.11-.06-.11-.23a1.27,1.27,0,0,1,.27.23Zm.32-.42-.29-.21.11-.05.22.2Zm1-2.57,0,0S275.69,377,275.68,377Zm.09-.14.09,0h0S275.81,376.84,275.77,376.82Zm63.74-22.67a3.65,3.65,0,0,1,1.08-.77,1.46,1.46,0,0,1,.63-.14.88.88,0,0,1,.6.24,3.07,3.07,0,0,1,.54,1,6.94,6.94,0,0,1,.29,1.35c.06.51.09,1.06.11,1.63v.87l0,.75c.07-.57.15-.8.2-1.08,0,.59,0,.9,0,1.28s0,.71-.08,1a5.91,5.91,0,0,1-.25,1.38c0-.47,0-1.42,0-2.57,0-.51,0-1.37,0-2.13a11.14,11.14,0,0,0-.26-2.19A4.7,4.7,0,0,0,342,354a2,2,0,0,0-.21-.35.59.59,0,0,0-.33-.25,1.19,1.19,0,0,0-.75,0,3.3,3.3,0,0,0-.53.25c-.57.39-.75.62-.38.33a9,9,0,0,0-1.62,2.15c-.31.52-.46.81-.54.92s-.06-.07-.19.09A12,12,0,0,1,339.51,354.15Zm-22.9,20.73.54.24C315.88,374.73,315.15,374.49,316.61,374.88ZM334.93,337,333.17,338c-.48.28-.8.49-.8.49-.84.4,0-.24.84-.86l.06,0c.92-.52,1.87-1.05,2.87-1.59a7.49,7.49,0,0,0,1.36-.58Zm26.69-11.42a10.72,10.72,0,0,0-1.75-.08c-.31,0-.64,0-1,0l-1,.15a5.5,5.5,0,0,0-1,.24l-1,.28c-.62.21-1.2.46-1.75.62a.05.05,0,0,1,0-.08c3.38-1.41,4.73-1.3,8.08-1.28A3.35,3.35,0,0,0,361.62,325.54Z"/><path class="cls-1" d="M344,218.93c-.12-.15-.33-.37-.65-.7Z"/><path class="cls-1" d="M359.77,193.92l.05-.07v0Z"/><path class="cls-1" d="M369.7,238.9a1.61,1.61,0,0,0,0-.29,3.17,3.17,0,0,1-.51,1.18,1.87,1.87,0,0,1-.33.35.59.59,0,0,1-.39.1,3.43,3.43,0,0,1-1.21-.34c-.17,0-.08.11-.23.07a7.62,7.62,0,0,1-1.71-.8,12.92,12.92,0,0,0,2.05,1,2.46,2.46,0,0,0,1.58.17,1.44,1.44,0,0,0,.61-.55,3,3,0,0,0,.4-1.06,10.39,10.39,0,0,0,.06-3c0,.35-.15-.23-.27-.7s-.21-.84-.07-.06l.1.71c0,.42.1,1,.11,1.53a7.29,7.29,0,0,1-.09,1.42,3.2,3.2,0,0,1-.12.56.45.45,0,0,1,0-.08Z"/><path class="cls-1" d="M176.15,371.56a21.18,21.18,0,0,1-3.51-1.66l.44.21.12.05c-1-.49-2-1.17-1.56-1.05l-1-.51-1-.52.16-.07c-3.2-1.83-5.21-3.45-8.66-5.13l1.18.82c-1-.54-2-1-3-1.56l-1.75-1c-.34-.2-.67-.4-1-.61.9.44.31,0,.33-.05l-.4-.18c-.12-.07-.28-.12-.39-.2v-.61c.06.17.12.31.17.44,0-.07,0-.14,0-.24s0-.3,0-.47a8.5,8.5,0,0,0-.24-1.36,2.59,2.59,0,0,0-.34-.74,1,1,0,0,0-1.3-.3,1.1,1.1,0,0,0-.33.31,1.84,1.84,0,0,0-.28.58,3.65,3.65,0,0,0-.12.74v.08s0,0-.06,0l-.13-.06-.2-.09.2.05-.45-.24c-.69-.36-.54-.24-.36-.1s.41.3-.43-.1c-1.71-.87-.54-.55-2.08-1.41-3-1.46-8.34-3.79-11.65-5.62-2.72-1.28-5.74-2.66-8.22-3.74s.24-.17-2.25-1.25c.3.05,0-.19-.17-.37-.42-.11-4.52-2.22-2.69-1.09-3.49-1.75-7.44-3.7-11.16-5.46,1.23.59,1.63.61.62,0-1.78-.7-4.81-2.08-7.91-3.63,0,.17,1,.66.61.64-.47-.2-1.25-.5-2-.89a3.61,3.61,0,0,0-.56-.57,18.3,18.3,0,0,0-2.32-1.35c.8.17,4.69,2.36,3.53,1.52a66.93,66.93,0,0,1,7.44,3.52c2.57,1-1.93-1-1.38-.94-2.25-1.08-3.33-1.48-6.83-3.15-.08.09,1.08.67-.55,0a18,18,0,0,1-3.11-1.6c-.61-.44-.92-.74-1.29-1l1.48.8c-1-.6-1.61-1-2.3-1.34s-1.36-.78-2.37-1.42c-.19-.3.62.2,1.58.82a19,19,0,0,0,2.53,1.43l-1.37-1a11.29,11.29,0,0,0-2-1.16,9.06,9.06,0,0,1-2.09-1.27l.45.16-2-1.25c-.09.07.24.49,2,1.6-1.27-.51-1.6-1-4.29-2.78-1-.46,1.14.76,1.1.93.19.3-1.66-.94-3-1.87-2.17-1.54-1-.94-1.82-1.65a14.07,14.07,0,0,1,1.88,1.4c2.77,1.75-1-1.1,1,.11a23.64,23.64,0,0,0-3.1-2c.57.43-.42-.11,0,.27a9,9,0,0,1-2.83-2.1l-.74-.89c-.32-.38-.8-.82-1.53-1.55.21.4-.84-.48-1.66-1.25s-1.46-1.34-.57-.09a26.16,26.16,0,0,1-2.2-2.47c.84.75-1-1.53.33-.12l-.48-.59-.45-.6s.09.11.24.26.34.37.54.57l.8.81-.81-1.16c-.28-.42-.57-.85-.84-1.27s-.5-.81-.67-1.16-.28-.65-.37-.84c-1-1.87.13.71-1-1.54.47.75-.14-.68-.59-1.71.86,2.09-.23.15-.86-1.14a16,16,0,0,1-1.28-3.49l.84,1.6c-.52-1-.11-.5-.77-1.89-.28-.4-.84-1.29-1.18-1.75-.6-1.3-.85-2.3-1.06-2.74l1,2.05c-1.18-2.74,0-.71-1.21-3.51l-.43-.68c-.16-.45-.22-.72-.11-.57-.31-.59-.81-1.89-1.06-2.48l0-.23c-.28-.58-.51-1.21-.77-1.89a8.7,8.7,0,0,1-.51-2.21,5.64,5.64,0,0,0,.24,1.47,20.36,20.36,0,0,1,.61,2.06c.26,1.31-.8-1.93-.9-2.42.14,0,0-.75-.3-1.74s-.54-2.2-.7-2.95-.18-1.67-.22-2.22L66,282.4c.21-.62-.59-3-.76-4.77.24.87.35.73.21-.49,0,1.67-.67-2.63-.77-2.12-.31-3.1.4.69.45-.26-.39-1.5-.29-3.44-.59-4.4,0,1.1,0,1-.07.6,0-.21-.09-.49-.13-.76s0-.5-.07-.61c.12-2.69,0,.46.27-1.45.08-1.15.08-2.7-.19-.91a43.76,43.76,0,0,1,.8-5.3c.29-.71-.54,3.43-.24,2.39.71-3.87,0-2,.66-5.62-.42,1.53-.37,0-.06-1.76,1-3.95-.33,1.74.23.28l.35-1.59c.42-1,.2.13,0,1.33s-.33,2.42,0,1.39c0,0,.07-.43.15-.86l.16-.86c0,.39,0,1,.22.28a9.53,9.53,0,0,1,.45-2.17c.17-.43.31-.81.48-1.14a5.46,5.46,0,0,0,.33-.65c0-.37-.59,1.22-.55.93.36-.79.59-1.41,1-2.11A17.25,17.25,0,0,1,70,249.13c-.79,1.35.51-.37.22.21.87-1.07.09-.46,1.36-2l-.06.23a49.91,49.91,0,0,1,3.77-4.38l2.12-2.27c.71-.76,1.42-1.53,2.08-2.32,2.7-3.11,5.18-6.22,7.05-8.88.87-.84,2.4-2.74,4.78-5.62-1.06,1.27-.17,0,.39-.8l1.26-1.3c1.44-1.67,3.08-4,4.25-5.68a1.53,1.53,0,0,1,.45-.37,10.16,10.16,0,0,0,1.6-2.28l.89-.92.07-.3c1.15-1.59,2.72-3.71,2.74-3.38.44-.65.85-1.28.22-.52.65-.75,1.67-2.18,2.92-3.76s2.59-3.34,3.65-4.75c-1.07,1.28-1,1.13-1.22,1.16.14-.53.52-.6,1.29-1.79.09,0,1.14-1.18.13.2.78-.86,1.6-1.89,2.45-3s1.58-2.34,2.4-3.58,1.61-2.54,2.4-3.85,1.62-2.6,2.35-3.88a7.18,7.18,0,0,0,.57-1.3c.61-1,1.22-2.05,1.81-3.18.29-.57.58-1.15.86-1.75l.11-.22.13-.3.3-.7.24-.7c0-.21,0-.42.07-.63a1.09,1.09,0,0,0-.86-1.09,3.22,3.22,0,0,0-1.65,0,7.7,7.7,0,0,0-.89.25h0l-.14.06h0l-.07,0-.13.08c-.13.1-.26.22-.39.33-.33.36-.57.66-.82,1,.64-.68,0,.5-1.22,2.37-1.19,2.13-.75.68-2,2.46-.26.48-.67,1.15-1.08,1.77a13.24,13.24,0,0,1-1.12,1.46l0-.07a31.42,31.42,0,0,1-3.41,3.66l.17-.18c-.93.91-2.07,1.91-3,2.9-.32.55-2.72,2.88-3.14,3.59-.13.11,0-.08-.24.17l0,.18-1,1-.91,1c.34-.49.38-.64.86-1.26-2,2.19-.55.85-1.48,2.07a12.69,12.69,0,0,1-1.94,2.12c.48-.68,1-1.1,1.29-1.5.65-.94-.83.9-.91.87a12.39,12.39,0,0,1-1.25,1.68c-.86,1-2.85,3.2-2.72,2.83-.67.87-1.54,1.82-2,2.48a28.74,28.74,0,0,1,2.25-2.25c-.62.72-1.84,2.14-2.09,2.31l.48-.59c-.48.59-2.37,2.62-1.3,1.65l-1.47,1.33c-.41.62-1.75,2.09-2.78,3.35-.17,0,.56-1.16-1.46,1.14l-1.59,2.08c-.88,1-1.14,1.29-1.07,1.06-3.14,3.47-2.79,3.92-5.35,6.58.91-1.29,0-.33-1.13.87,0,.07-.08.23-.53.74.38-.29.56-.81,1.5-1.67.35-.21-1,1.18-1.44,1.77s-1.4,1.32-2.27,2.23c-.43.46-.91,1-1.36,1.51l-1.37,1.71c-1.84,2.34-3.85,4.87-5.69,6.76.41-.1-1.54,1.79-2.27,2.56,0-.2-.48.32-1.18.94a6.29,6.29,0,0,1-2.2,1.42,4.88,4.88,0,0,0,.72-.09,4.34,4.34,0,0,1-.94.37,1.85,1.85,0,0,1-.39.06,2.08,2.08,0,0,1-.36-.06,2.06,2.06,0,0,1-1.16-.93,5.52,5.52,0,0,1-.89-2.88c-.19-1.77.21.59.48,1.25a42.6,42.6,0,0,1-.54-4.35,21.8,21.8,0,0,1,0-2.27,4.19,4.19,0,0,1,.31-1.7c0-.1-.12,0-.15-.11a1.45,1.45,0,0,1,0-.39c.06-.22.17-.57.36-1.07.78-1.56,2.45-4.64,2.34-4.33.59-1.33.69-1.72,1.44-3.13a8.68,8.68,0,0,1-.48,1.26c.58-1.13,1-2.19,1.46-3.21s.77-2.05,1.14-3.08c.65-1.19,2.34-5.29,3.61-7.88.47-1.57,2-4.25,1.84-4.56,0,.07.18-.24.27-.4.35-1,.56-1.89,1.06-3.19v.49c0,.18.45-.68.82-1.75l.27-.84c.06-.27.1-.52.15-.75s.1-.61.13-.77c-.11.39,0,0,0-.49a4.72,4.72,0,0,0,.06-1.34s0-.42,0-.84c0-.17,0-.52,0-.71s0-.35,0-.35a4.09,4.09,0,0,0-.3-1.45.94.94,0,0,0-.17-.29,1.42,1.42,0,0,0-.3-.35.89.89,0,0,0-.24-.13.72.72,0,0,0-.35,0,2.51,2.51,0,0,0-.86.57c-.77.78-.9,1-.81.76a3.51,3.51,0,0,1,.79-1,4.58,4.58,0,0,0-.77.76l-.37.46-.31.42c-.32.45-.62.91-.91,1.38l-.62,1.06c.23-.38.31-.46.07,0a.79.79,0,0,0-.2.24c-.31.53-.61,1.07-.92,1.62v0c.33-.6.65-1.14.88-1.53-.22.33-.55.89-.89,1.47a2.08,2.08,0,0,0-.27.47c-.26.44-.5.85-.67,1.12l.08-.46a30.68,30.68,0,0,0-1.73,3.74c-1.11,2.16-2.68,5-4.07,7.67-1.09,2.07-2,4-2.62,5.14.22-.51.21-.57,0-.05-.68,1.35-1.33,2.92-1.48,3-.6,1.33-.7,1.17-1.69,3.19,0,0,0,.24.11,0a63.28,63.28,0,0,0-4.71,12.44c.09-.33.18-1,.24-1.49-.08.31-.15.63-.23.94s-.17.88-.26,1.32c-.16.88-.34,1.74-.48,2.6s-.22,1.7-.33,2.54l-.15,1.25c0,.41,0,.82-.08,1.23a3.22,3.22,0,0,1,0-1.08c-.14,1.21-.29,2.52-.4,3.66s-.11,2.14-.1,2.71c.2-1.64-.07-.12,0-1.23.27-1.73.15,1.4,0,3l0,0c-.1,2.43-.06,2.54-.12,5-.1,1.45,0-1.26-.13-.69a17.9,17.9,0,0,0-.2,3c0,1.37,0,2.74,0,3a5.56,5.56,0,0,0,.19,1.3c.12,1.9-.1.88,0,2.19,0,0,0,.34.12.86s.16,1.19.31,1.87.34,1.53.47,2.05c0,.13,0,.26.07.39,0,.29.08,1.4-.23.1a39.58,39.58,0,0,0,1.56,5.63c.72,2.66,1.6,5.51,2.52,8.35-.28-.67.12,1-.31,0,.71,2,2.25,6.73,3.26,9.72-.44-2,1.32,3.31,1.66,3.71.25.73.5,1.43.72,2.09s-.12.19.14,1.07c.67,1.79,1.2,3.59,1.8,5.32s1.18,3.41,1.78,5c0,0,0,.06-.09-.12,1.14,3,2.83,7.74,3.86,10.79a.56.56,0,0,0,0,.12c-.07-.08-.06.13-.3-.61a7,7,0,0,0,.62,2l0,.06a10.63,10.63,0,0,1,.24,1.69v.43a4.42,4.42,0,0,0-.1-.61,5.14,5.14,0,0,1-.78,3.48,9.56,9.56,0,0,1-3,2.49c-.12,0,.41-.34.73-.57l-.83.5a3.44,3.44,0,0,1-.92.31,16.71,16.71,0,0,1-2,.29c-.87.08-1.71.13-2.5.17-.43,0-.87,0-1.3,0a4.38,4.38,0,0,1,1.14-.11c-1.27-.05-2,0-2.63-.05-.31,0-.62,0-1,0a12,12,0,0,1-1.51-.28,4.14,4.14,0,0,1-1-.42,1.06,1.06,0,0,1-.34-.23,9.32,9.32,0,0,1-2.28-1.71c-.28-.27-.55-.54-.8-.81-.46-.51-.92-1-1.35-1.57-.23-.37-.74-1.05-1.44-2.08-.94-1.28-2-2.53-2.85-3.86l-.65-1-.64-1.07c-.47-.67-.78-1.68-1.68-1.79a1.09,1.09,0,0,0-1,.68,2.26,2.26,0,0,0-.19,1.24,9.39,9.39,0,0,0,.18,1.31c.09.4.18.79.28,1.19.42,1.57.94,3.1,1.47,4.63a17.59,17.59,0,0,0,2.21,4.34,28.31,28.31,0,0,0,3,3.76c.56.58,1.17,1.12,1.75,1.67s1.26,1,1.89,1.49l1,.63,0,0,1,.63.32.15A11.55,11.55,0,0,0,52,338c.32.15.35.19.21.17a2.09,2.09,0,0,1-.38-.07l-.56-.19a9.42,9.42,0,0,1-1.06-.4c-.24-.1-.31-.11,0,.08A27.61,27.61,0,0,0,56,339l.15.05a32.37,32.37,0,0,0,4.37.24l-.06-.06c1.88-.13,4.23.06,5.2-.35l.73,0,.73-.05c1.82-.59,2.88-.81,5-1.56l-.24.11c.75-.2,1.51-.36,2.24-.55l1.09-.21a4.19,4.19,0,0,1,1,.12,13,13,0,0,1,2.92.95c2,.69,4.11,1.59,5.17,2,.3.14.59.28.81.4,0,0-.26,0-.48-.09l6.75,3.34c2.29,1.13,4.6,2.27,6.89,3.36l3.41,1.62,1.68.8.83.39c0,.22,0,.45.06.68s0,.25,0,.4c0,.3,0,.6,0,.9,0,.13,0,.26,0,.38-.14,1,.43,12.86,3.29,20s7.86,12.58,15.29,13.86a20.47,20.47,0,0,0,10.23-.78,24,24,0,0,0,4-1.77c3-1.68,5.61-3.87,8.28-5.55a8.53,8.53,0,0,1,3.38-1.38,6.76,6.76,0,0,1,4.09,1.19,6.5,6.5,0,0,1,.88,2.34c0,.06,0,.15.08.58.26.94.5,1.92.73,2.9.06.28.12.54.17.76.43,1.86,3.57,6.71,9.58,7.14a8.24,8.24,0,0,0,8.16-4.71s1.55.57,2.41,0,.57-.72,3.14-2.58c2.17-1.56,2.61-6.28,2.61-8.4,0-.4,0-.7,0-.88C180.43,373.41,178.72,372.27,176.15,371.56ZM65.34,200.39l-.49.94C65,201.05,65.16,200.73,65.34,200.39Zm70.73,170.18a0,0,0,0,1,0,0l.09,0Zm1.32-1.31,0-.05a.68.68,0,0,1,0,.12l-.08.09c-.05-.14.15-.39.29-.37l0,0Zm1-1.13c-.07.09-.29.35-.61.69l0-.15c0,.16-.2.25-.26.12l-.09.21-.09-.11c-.22.3-.49.38-.68.72h.2a2,2,0,0,0-.17.29l-.14.14a.25.25,0,0,1-.12,0c0-.1-.07-.1-.12-.16s0,.13-.08.16l-.1-.24c.16.29-.34.5-.38.6v-.05c-.31.14.14.05,0,.21s-.23-.15-.43-.1c-.23.23-.53.74-.93.85a3.82,3.82,0,0,0-.51.75c-.2.17-.15-.2-.28.05,0-.08-.12-.13-.19-.18s-.39.29-.09.33a7.15,7.15,0,0,0-1,.72.14.14,0,0,0-.1-.24,1,1,0,0,1-.56.64c.09.13.18.07.24.21s-.06.16-.14.2c-.13-.12-.25-.33-.5-.18-.07-.26.43-.25.18-.39,0-.25.42-.54.59-.51.08-.34-.18.1-.27-.11-.18.14-.2.3-.48.53,0,.09.16,0,.08.21-.16.36-.43.07-.5.1a.64.64,0,0,1,.1-.13c-.22,0-.2.21-.4.31-.2-.23.28-.21.26-.41l-.24-.1c-.3.14,0,.27-.29.35v-.11l-.15.15c0,.1.16.23.31.13,0,.3-.13.11-.36.29,0,.19.1-.07.18.07s-.09.22-.22.31-.18-.12-.31-.18c0,0,.19-.12.21,0,.19-.29-.25-.25-.12-.45-.23,0-.15.17-.23.26s0,.16.1.19c-.2.53-.35-.18-.6-.05.15.25-.35.48-.05.73-.08.07-.18.16-.29.14.08-.21-.2-.13,0-.33h-.15l.19-.25c-.17-.11-.45-.21-.55-.29-.2.11.09.18-.15.25.08-.11-.08-.18-.19-.16.22.05,0,.26-.1.32s-.4-.14-.37-.19l.19-.17c-.15.15-.08-.07-.23,0s-.12.28-.17.42-.24-.08-.28-.05l.21-.13c-.28.06-.08-.29-.37-.2l-.06.15a.08.08,0,0,1,0-.14c0,.11-.21.09-.28.13l0-.09c-.12.07-.26.29-.41.1.12.23.14,0,.35.1s-.2.17-.24.2c0-.26-.32,0-.47,0s-.16-.13-.21-.19l-.06.17c-.05-.33-.29.07-.45,0a.17.17,0,0,0,0-.28c.15.25-.26.29-.22.46-.3-.1.08-.31,0-.48-.16.18-.32-.14-.43.1.21.08,0,.15-.1.25-.26,0,.06-.1-.13-.2s-.27.2-.1.28c-.15-.06-.36.16-.52,0s.34,0,.25-.16c-.37,0-.22.36-.58.37.14.1,0,.34-.23.41-.38-.12.19-.06.06-.28h-.15c-.18-.29.51-.37.33-.61l-.17.07c0-.07.12-.2.06-.28-.07.18-.38,0-.41,0s.13,0,.09.1-.31.26-.55.1c.17-.07,0-.22.07-.29-.11-.09-.08.17-.24.05l0-.09a6.4,6.4,0,0,0-2-.36c0-.19-.19-.3-.34-.56.07.11-.1.13-.17.09V373c-.07-.21-.35-.27-.56-.33a.33.33,0,0,1,.07-.13c0-.2-.2-.06-.28-.08l0-.16-.12.06c-.17-.1-.3-.32-.12-.43-.08,0-.15-.06-.14,0a1.77,1.77,0,0,0-.6-.84c.06.16,0,.18-.09.27s0-.08-.2-.11c.06,0,0-.22.18-.13,0-.53-.58-.92-.86-1.42-.09-.07-.1,0-.18,0,0-.41-.45-.66-.58-1,0,.12-.31.15-.43,0-.28-.1.16-.21.13-.45a.61.61,0,0,1-.29-.28h0a.48.48,0,0,1-.31-.38h0c0-.12,0-.3-.11-.41s-.25-.29-.42-.29c0,0,0,0,.05-.05l-.13.06-.07-.27c.08,0,.14,0,.21.05-.06-.3-.16,0-.3-.11s-.07-.18-.06-.29c.1,0,0,.14.09.17s0-.12,0-.17-.18,0-.22-.11-.23-.35-.07-.4c-.13-.05-.17-.17-.27-.2s.08.28,0,.35-.19-.21-.14-.27l.07,0c-.07,0-.16-.3-.22-.11l.08-.26c-.13,0-.22-.18-.32-.31.14-.08.35-.05.24-.33l-.26-.15c-.07-.11,0-.15,0-.18-.12-.44-.6-.22-.63-.6.24,0,.2-.07.17-.23,0,0-.09,0-.13,0s.16,0,.1.19-.13-.09-.2-.14c.21-.46-.31-1-.32-1.51-.21.1-.13-.21-.24-.28.23-.05-.13-.27,0-.45l-.2.14c0-.34-.48-.39-.27-.66,0-.2.17,0,.23.06.17-.31-.38-.57-.17-.84-.1,0-.22.12-.37-.06,0-.2.07-.56.12-.54s-.17-.14-.13-.32c.06,0,.09.06.13.1a1.09,1.09,0,0,0-.31-.6c.13-.18-.09-.57-.07-.87-.26-.09,0-.47-.33-.41,0,0,.06,0,.07-.07s-.31-.1-.36-.23h.19c.24,0-.06-.38,0-.45-.12.15,0-.15-.18-.12l-.11-.13c-.11-.23-.09,0-.21-.3s.19-.12.19,0a.33.33,0,0,0,0-.29l-.06-.07s0,.05,0,0,0,0,0,0a.41.41,0,0,1,0-.09h0l0,.08a.12.12,0,0,0,0-.08s0,0,0,0,0-.05,0-.07l.16,0a1.36,1.36,0,0,0-.3-.23.56.56,0,0,0-.09-.42,4.47,4.47,0,0,0-.28-.5c0,.09.21.26.1.13s-.28-.42-.14-.28c-.12-.18.13.08.12,0l-.18-.2c.06,0,0,0,.07,0s.13-.11.42.15a.72.72,0,0,0,.09.2.54.54,0,0,0,.31-.17c0,.08,0,.16,0,.19.13.07.27.09.33,0-.12-.14,0,.09-.07,0-.14-.22.06-.27.19-.16v0c.18.09.2,0,.4.1s-.11,0-.09.11a.26.26,0,0,0,.14.25c.12.08.25.12.26.15s.17,0,.19-.08c.19,0,0,.16.13.21l.6-.14,0,0c0,.07,0,.21-.1.21a1,1,0,0,0,.62,0c.24.13.5.25.77.38-.08,0,0,.23-.13.24a3.13,3.13,0,0,1,.9.47c-.08-.3.32,0,.47-.11l.23.11c0,.07-.05.14,0,.2a5.45,5.45,0,0,1,1,.4.08.08,0,0,1,0,0,4.66,4.66,0,0,0,1,.28l.07,0a.1.1,0,0,1-.1.06c.14.11.18.05.23,0l.18.08-.06,0c.26,0,.39.29.7.24h0c0,.06-.08.06-.13.07a2.92,2.92,0,0,0,.6.14l.14.06a.23.23,0,0,1-.14.06c.13.12.23.05.34,0l.24.1c0,.05.06.11,0,.1a.52.52,0,0,1,.21,0l.43.18.14.17a27.91,27.91,0,0,0,3.22,1.13l.39.15c0,.22-.33,0-.26.19.06-.2.22,0,.6.1v0c.17,0,.21.17.39.17l0-.05c.22-.06.29.39.48.18l.08.18c.25-.15.25.17.53.07l0,0c.25.2.68,0,.72.19a1,1,0,0,0,.57,0l.09,0a.32.32,0,0,1-.1.13c.69.19,1.41.49,2.1.67,1.91.78,3.5,1.51,4.77,2.16a7.73,7.73,0,0,0,1.62.86l.62.37s0,.07,0,.09a1.6,1.6,0,0,1,.33.11,8.53,8.53,0,0,1,1.25.92C138.57,367,138.85,367.56,138.42,368.13Zm15.46-9.58a2.09,2.09,0,0,0,0-.25,2.48,2.48,0,0,1,.1-.38,1.34,1.34,0,0,1,.07-.18A3.85,3.85,0,0,0,153.88,358.55Zm11.19,23.05ZM161.86,380v0l0,0S161.87,380,161.86,380Zm-.11,0,.06,0-.07,0Zm.07,0a.36.36,0,0,0,0,.1l-.21.13c-.06,0,0-.09,0-.09l.12,0S161.76,380,161.82,380Zm-.22,0a.17.17,0,0,1-.15,0l.07-.06Zm-.14-.09,0,.05h-.07Zm-.68-.14a.87.87,0,0,1-.39.21c0-.1.1,0,.25-.15h0a.8.8,0,0,1,.21-.13.14.14,0,0,1,0,.06c.09-.11.08,0,.1,0A.26.26,0,0,1,160.78,379.75Zm.17-.05.06-.09a.13.13,0,0,0,0,.08Zm.08,0s-.05,0,0-.06l0,0A.41.41,0,0,0,161,379.73Zm0-.1h0l-.09,0,.11-.13.06,0Zm.08-.13h0l0,0Zm0,.36.05-.06v0Zm0-.14s.07-.05.12-.1,0,0,0,.06Zm.13,0v0h0S161.33,379.78,161.34,379.77Zm0,.05h0Zm1,2.39h0l0,0S162.29,382.2,162.3,382.21Zm.35.18,0,0,0,0s0,0,0,0l-.05,0h0C162.62,382.28,162.69,382.28,162.65,382.39Zm2.6-.53-.14,0c0,.11,0,.23,0,.4a1.36,1.36,0,0,1-.89.52.26.26,0,0,0-.1,0,.29.29,0,0,0-.27,0h-.13s0-.08,0-.08a.44.44,0,0,1-.08.07,2.06,2.06,0,0,1-.32-.07h0l-.39-.14-.17-.08.06-.06c-.07.09-.06,0,0-.12l-.08.05.07-.12c-.08,0-.05-.12-.17-.07l-.05.14s-.06,0-.1,0l0,0a.15.15,0,0,1,0-.06,1.32,1.32,0,0,0,.12-.16s-.07.05-.06,0l.15-.19c-.2.25-.16,0-.2.06l0,0c0-.12-.07.12-.11.1s.15-.22.19-.32-.25,0-.17-.14a.79.79,0,0,0-.29.07s.18-.18.06-.13a1.57,1.57,0,0,0,.18-.19c-.07.06-.05-.08-.18.11a.18.18,0,0,0-.14-.18s.15-.1.19-.16c-.14.08-.24.09-.25,0-.12.11-.11.12-.23.22s-.08.05-.08,0,.3-.28.27-.33c.2-.16,0,.1.21-.09s.24-.07.17,0c.19-.12,0-.05.15-.19,0,0-.14,0-.2,0s-.08.1-.17.14.07-.17.07-.18,0,0,.06,0-.09,0-.11,0c.22-.21.07,0,.22-.08l.14-.16c0-.07-.19.14-.18,0l.09-.06h-.08c-.08.07-.2.19-.16.2-.24.17-.06,0-.14,0s0,0-.09.12-.14.07-.18.06.12-.13.19-.21.07,0,0,.06c.17-.06.25-.23.36-.28s-.18.1-.18,0-.1.1-.15.15c-.39.22.22-.24.12-.25-.21.19-.37.17-.58.4-.05,0-.12,0-.11,0,.17-.1.1-.12.27-.2l0,0,.21-.11c.08-.1.15-.22.21-.29-.09,0-.13.12-.2.12.09-.05.14-.12.13-.14a.48.48,0,0,1-.27.17s.09-.16.13-.18h0l.06,0c0,.06.21-.09.22.06,0,0-.06.05-.09.1a.77.77,0,0,0,.32-.17.85.85,0,0,1-.1.13s.11,0,.19-.09,0,.07-.06.05.16-.21.17-.17l0,0c.05,0,.09-.05.13,0s0,0-.08.11,0,.18,0,.21a1.27,1.27,0,0,0,.1-.12c.06,0-.06.13,0,.13l.28-.3h0a.94.94,0,0,1-.12.22c.05,0,.13-.07.22-.16l.15.09s-.09.18-.15.24.12.07.15.14c.09-.24.13-.09.24-.25l0,0a1,1,0,0,0-.08.19c.11,0,.14.05.21.06l0,0c.09,0,.14.07.3-.06h0a.26.26,0,0,1-.07.1c0,.06.05,0,.09-.08l0,0,0,.06c.1-.07,0,.13.17,0h0a.24.24,0,0,1-.08.09c.06,0,.09,0,.17,0h0a.27.27,0,0,1-.08.1c0,.08.09,0,.13-.07l0,0a.23.23,0,0,1,0,.1.18.18,0,0,1,.13-.05l0,0a.86.86,0,0,0-.05.15,1.23,1.23,0,0,0,.69.28l0,0c-.1.18-.13.07-.2.21.12-.16.06,0,.16,0l0,0c.06,0,0,.09.05.06l0,0s0,0,0,.06h0s0,.08,0,.05h0l-.05.06.07,0c.06,0,.18.06,0,.08a.21.21,0,0,0,.16.1Zm2.25-15s0,0,0-.07l-1-.55-1-.66a35.84,35.84,0,0,1,4.1,2.48c.09.07.13.11.13.13C168.92,367.74,168.18,367.28,167.5,366.86Z"/><path class="cls-1" d="M67.48,196.53c0,.08-.11.17-.17.28l0-.06Z"/><path class="cls-1" d="M278,275.79c.71,0,1.3,0,1.83,0A15.63,15.63,0,0,0,278,275.79Z"/><path class="cls-1" d="M292.92,275.37h-.09C292.92,275.39,293,275.39,292.92,275.37Z"/><path class="cls-1" d="M301.88,272.61c.11,0,.16-.05.16-.07Z"/><path class="cls-1" d="M279.82,275.79a11.37,11.37,0,0,0,3.22,0l-.32,0c1,0,2.37-.11,3.48-.16-.11,0-.25,0-.4,0l-2.44.06C282,275.67,281.13,275.75,279.82,275.79Z"/><path class="cls-1" d="M218.51,283c-.48.07-.86.1-1.24.13a4.27,4.27,0,0,0-1,.17c-.42.19-.4.21-.19.13s.26-.09.43-.13a1.22,1.22,0,0,1,.26-.06l.13,0,.17,0c.93-.11,1.75-.21.28,0l2.28-.29H218.3C216.52,283.19,219.5,282.83,218.51,283Z"/><path class="cls-1" d="M228.87,226.5l.41.06c-.27-.1,0-.08-1.59-.32-1.36-.09.72.33-1.65.11.45.05,1.14.15,1.78.24C226.86,226.38,227.83,226.43,228.87,226.5Z"/><path class="cls-1" d="M227.82,226.59l.06,0,.34.08.94.14C228.91,226.77,228.4,226.68,227.82,226.59Z"/><path class="cls-1" d="M257.19,241.72c-.09-.46-.19-.9-.28-1.25C257.06,241.15,257.13,241.5,257.19,241.72Z"/><path class="cls-1" d="M247.31,234.85l-1,.63-.6.42Z"/><path class="cls-1" d="M219.71,282.92v0l-.11,0Z"/><path class="cls-1" d="M238.81,227.94a4,4,0,0,1-.59-.09l-.3,0-.28,0a8.43,8.43,0,0,0-.87-.06l.9.1a6,6,0,0,0,1.92.12,5.07,5.07,0,0,1,1.07-.21,3.21,3.21,0,0,1,1,.12,6.23,6.23,0,0,1,.89.29,8.05,8.05,0,0,0-.82-.29,4.73,4.73,0,0,0-.6-.13l-.29,0a4,4,0,0,0-.93.16A2.71,2.71,0,0,1,238.81,227.94Z"/><path class="cls-1" d="M252.48,273.22c.33-.26.66-.56,1-.84a2.49,2.49,0,0,1,.78-.5l.47-.16.26-.06.19-.05.15,0,.32-.11.57.21.14-.11.58.5L258,273l-1.43-1.27c.56.43,2.2,1.85,3.17,2.55-.13,0,1.37,1.32,1.25,1.29l.24.18.27.2.14.1s0,.07,0,.11,0,.06,0,.19l0,.63c0,.44.06.92.09,1.41,0,1,.09,2,.14,3.06.1,2.06.24,4,.39,4.87,0,1.15-.14.24-.21-.11-.15-2.72-.11-3.64-.26-5.06a24.7,24.7,0,0,1,0,3.57c.12,1.13.3,3.05.54,4.81a32.83,32.83,0,0,0,.73,3.93c.07.45.13.9.2,1.29q0,.3.09.54c0,.08,0,.16,0,.22a.45.45,0,0,1,0,.11,3,3,0,0,1-.11.35q-.06.1-.06-.09a10.31,10.31,0,0,0-.21,2.57c0,.13.09-.28.17-.65s.16-.72.16-.47-.1,1.07-.09,3c-.06,3.59-.22-3.5-.17,1.45l0-.91c-.19,3.58.34,2.49.54,6.5-.14.54-.27-2.78-.25,0,0,.48,0,.85.1,1.32a8,8,0,0,0,.27,1.16,20.05,20.05,0,0,1,.5,2,6.84,6.84,0,0,1,.1,2c0,.73-.06,1.53,0,2.46l-.09-.58a19.88,19.88,0,0,0,.63,4.65,19.38,19.38,0,0,0,1.72,4.36c0,.12-.14-.19-.35-.59a9,9,0,0,0,1.14,1.92,4.63,4.63,0,0,0,.59.62c.14.13.26.23.54.45a5.15,5.15,0,0,0,1.65.84,4.28,4.28,0,0,0,.55.06h.55a4.4,4.4,0,0,1-1.66-.37,5.17,5.17,0,0,1-1.66-1.18,7.75,7.75,0,0,1-1.22-1.71c-.33-.59-.62-1.17-.86-1.68.51,1,.17.19-.15-.79-.15-.48-.29-1-.36-1.33a19.08,19.08,0,0,0,1.61,3.81,5,5,0,0,0,4.3,3,5.66,5.66,0,0,0,2.66-.75c1.27-.69,2.53-1.47,3.74-2.21l.87-.54v0l-.24.15-.5.32.28-.15.47-.3c.09,0,.07-.14.11-.22s.05-.19.07-.29.1-.41.14-.62.08-.47.11-.69a12.88,12.88,0,0,0-1.11-7,21,21,0,0,1-1.74-7.26c0,.17.05.33.07.49.1.56.19,1.18.49,2.64a4.09,4.09,0,0,1-.14-1.09,3.17,3.17,0,0,1,.23.74,17.17,17.17,0,0,1-.32-3.17c0-1,.08-1.75,0-1.44l0,.3,0,.31a8,8,0,0,1,.05-1.56c.15-1.19.11-1.48.15-1.52s.06.16.08-.08c-.25-4-.22-.32-.51-3.93v-.47c-.17-1.35-.35-3.28-.51-4.27-.07-.79-.14-1.56-.2-2.34-.11-1.35-.21-2.71-.31-4.07.25.22.42,6.22.77,8.16-.11-1.89.24,1.07.38,1.86l-.65-6a22.75,22.75,0,0,0-.17-3.32l0,.47c-.22-2.36-.29-1.72-.4-3.77,0-.32.1.31.13.47-.11-1.89-.18-1.57-.29-2.83-.09-1.89.18.94.12-.64-.13-1.1-.17-2-.19-2.79a5.39,5.39,0,0,1,.47-2.39c-.1.16,0-.12.14-.62s.33-1.26.48-1.82c.66,0,1.51-.06,1.77-.09s.16,0,0-.05h2.63c-.8.06-1.6.13-1,.21l-3.38,0,0,.08,0-.06c.25.08,2.23,0,4.29,0s4.32-.12,5.49,0c1.94-.07,1.46-.08,5.14-.14l-.64-.16a15,15,0,0,1,2.62.06l1.61-.08.77,0,.43,0a1.83,1.83,0,0,0,.25-.06l.2-.08a1.1,1.1,0,0,1-.24.11,1.06,1.06,0,0,1-.38.09l-.82.06h.94a2.58,2.58,0,0,0,.74-.23c.31-.14.51-.26.73-.38.69-.36,1.78-.82,2.87-1.3l-1,.5c.66-.31,1.47-.69,1.54-.75l1.28-.59c-.3.1-1.07.32-2.65,1l6.12-2.62.25-.73.13-.38.07-.2s0-.06,0-.09l-.06-.08c-.15-.21-.35-.47-.48-.63s-.3-.33-.47-.49a3,3,0,0,0-1.21-.73,3.35,3.35,0,0,0-1.44-.08,2.92,2.92,0,0,1,.95-.14c.43,0,.77.12.48,0a3.62,3.62,0,0,0-1.74,0l-.68.19-.33.11-.41-.3c-.14-.1-.21-.14-.2-.1a5.55,5.55,0,0,0-.88-.67,4.45,4.45,0,0,0-1.64-.79,7.27,7.27,0,0,0-1.21-.29c-.33,0-1.41-.1-2.47-.23a24.28,24.28,0,0,1-2.48-.48,15.71,15.71,0,0,0,2.85.58,10.1,10.1,0,0,1-3.9-.8c1.61.53.21,0-.16-.22l-.08-.05.09,0a12.14,12.14,0,0,0,1.35.46c-.63-.23-1-.41-1.31-.54l-.24-.1-.21.13-.12.08-.07,0-.1.08H289a18,18,0,0,1-1.88-.18l-2-.31c.32-.07,3.31.32,2.84.22l-1.42-.14c.29,0,.75.05,1.33.11l1.83.19.28-.17.25-.15.27.12a19.94,19.94,0,0,0,5.93,1.16,21.46,21.46,0,0,1-5.87-1.29l-.31-.15-.34.19-.16.08-.05,0,0,0L286,264l-4-.43-7.5-.84-.69-4.68c-.25-1.65-.49-3.21-.74-4.62l.05.29a1.09,1.09,0,0,0-.11-.27l0-.32-.27-1.38c0-.2,0-.42-.06-.71,0-.09.11-.3.19-.54a7.5,7.5,0,0,0,.18-.75,9,9,0,0,0,.11-1.66c0-1.15-.18-2.33-.29-3.42.16,1.59.15,1.61.09,1.77-.15-.3-.23-.55-.51-2.9.07,0,.25,1.41.1-.32.07.89-.1.11-.19-.9a18.6,18.6,0,0,1,0-2.24,4.67,4.67,0,0,1,.19-1.25c-.06.59-.11,1.07-.14,1.48s0-.31.1-.77.12-.75.07.12a10.83,10.83,0,0,1,.13-1.14c.09-.57.24-1.12.24-1.12.22-.62.18-.4.11-.09s-.14.72-.06.47.12-.49.19-.71.07-.23.1-.34a1.19,1.19,0,0,0,0-.14l.07-.07.21-.2A3.8,3.8,0,0,1,274,236a5.3,5.3,0,0,1,.76-.54,6.18,6.18,0,0,1,1.64-.68,8,8,0,0,1,1.82-.25l2.16-.06c-.17.05-.21.22-.17.17,2.78,0,6-.15,9.17-.17-.47.06-1.66,0-2.63.05,2.43,0,4.77,0,7,0l3.33,0c.54,0,1.08,0,1.59.08s1,.16,1.59.26a10.6,10.6,0,0,0,6.63-1.24l.19-.1.23-.13.28-.17c.06-.09.12-.18.17-.27a4.45,4.45,0,0,0,.36-.94c.08-.28.15-.55.22-.86a1.69,1.69,0,0,0,.05-.24l0-.32,0-.32c0-.05,0-.09-.05-.13l-.1-.13a5.31,5.31,0,0,0-.69-.79l-.58-.61q-.57-.62-1.17-1.23l-.9-.79-.68-.59a.57.57,0,0,0-.36-.16l-.15,0-2.26-.77a23.91,23.91,0,0,0-3.5-.8c-1.17-.14-2.27-.23-3.37-.31-2.18-.16-4.29-.25-6.37-.36s-4.15-.22-6.25-.43a64.68,64.68,0,0,0-6.61-.49,15.66,15.66,0,0,1-2.1,0,4.43,4.43,0,0,0-.94-.11c-2,0-3.5-.17-4.85-.24l-1.93-.09-.94,0h-.75l-.32-.24-.36-.23a1.87,1.87,0,0,0-.41,0l-.43.08a2.8,2.8,0,0,0-.31.09,4.62,4.62,0,0,0-.62.23c-.2.09-.41.19-.61.3l-.57.3c-.4.2-.83.4-1.31.61.73-.38,1.92-1.08-.4-.06l-.69.41-.6.34a3.32,3.32,0,0,0-1,.78,1.41,1.41,0,0,1,.12-.16,3.7,3.7,0,0,1,.28-.28c.2-.17.39-.3.39-.3a2.65,2.65,0,0,0-.89.73,16.76,16.76,0,0,0-1.13,1.86,8.8,8.8,0,0,0-1,3.15,5.59,5.59,0,0,0,.28,2.27c.06.17.13.35.2.52l.19.44c.11.3.23.6.33.9.44,1.2.79,2.43,1.17,3.64a49,49,0,0,1,1.6,6.87c.54,4.73-.24-.47-.18.43-.37-3.32-.36-2.29-.52-3a28.19,28.19,0,0,1,.59,4.77c.26,2.34.35,3.49.74,5.71-.18-1.08-.2-1.87,0-.82.05.5.16,1.23.27,2s.19,1.56.24,2.3a9.59,9.59,0,0,1,0,2.56c0,1.1.06,2.22.09,3.34a26.36,26.36,0,0,1,0,3.33,6.23,6.23,0,0,1-1,2.92A6.55,6.55,0,0,1,257,269c-.21.17-.42.32-.67.5l-.42.3-2.36-.85-1.36-.5a6.21,6.21,0,0,1-.6-.27l-.32-.16-.17-.09-.29-.13a.61.61,0,0,0-.3-.05h-.25l-.37,0-.74,0-1.5,0c-1,0-2,0-3,.1-2,.18-4,.48-6,.77s-3.9.54-5.85.78c-2.1.35,1.6-.16.45,0-3,.49-2.42.25-4.86.61l1-.2c-1.82.2-3.7.43-5.55.6a52.84,52.84,0,0,1-5.46.13c.59-.07-2.9-.25,0-.14a12,12,0,0,1-1.33-.14,5.21,5.21,0,0,1-1.2-.35,5,5,0,0,1-1.56-1.09,2.54,2.54,0,0,0,.43.65,3.67,3.67,0,0,0,.65.56,2.46,2.46,0,0,1-.74-.34l-.13-.09-.11-.09a6,6,0,0,1-.62-.61,7.43,7.43,0,0,1-.78-3.93c.06-.27.06.3.12,1a6.84,6.84,0,0,0,.51,2.18c.06,0,0-.19-.11-.54a7.92,7.92,0,0,1-.22-1.27c-.08-.88,0-1.58.07-.62,0-.69,0-1.1,0-1.22s0,0,0,.09-.06.69-.09-.23l0-2.71,0,2.09c-.07-2.26-.2-3-.12-6.06l-.2-3.13A6.33,6.33,0,0,0,213,253c0-.37,0-.78,0-1.19v-1a2.9,2.9,0,0,0,0-.39s0,.07,0,.18a1.07,1.07,0,0,1,0,.23c0,.07,0,.14,0,.21,0,.25,0,.5,0,.5s0-.26,0-.38v-.42a5.23,5.23,0,0,0-.13-.73c-.09-.41-.13-.67-.2-1a16.37,16.37,0,0,1-.25-1.77c.12.54.21,1,.28,1.38l.1.55a2.28,2.28,0,0,0,.12.39l-.2-1.15c-.11-.56-.16-1.09-.16-1.09s-.26-1.35-.16.21c-.11-.48-.15-1-.22-1.46s-.1-1-.15-1.64-.08-1.36-.14-2.28a7.2,7.2,0,0,1,.31-3.13c.23-.51.34-.59.3-.49s-.16.4-.26.76c-.21.72-.21,1.67-.11,1.21a5.27,5.27,0,0,1,.83-2.43,5.54,5.54,0,0,1,.66-.76c.19-.18.6-.49.6-.52l.14,0,.33,0,.6-.08c.4,0,.78-.07,1.16-.08a17.07,17.07,0,0,1,2.52.08c2.09.25,3.09.37,4.1.43.51,0,1,.05,1.69.05a14.82,14.82,0,0,0,2.57-.19c-.66.13,0,.1.94-.12a13.82,13.82,0,0,0,1.46-.47l.33-.12.18-.06.23-.06a.64.64,0,0,1,.06.1s-.05,0-.06-.08l-.32.17-.65.3.68-.27.26-.1c.1.16.14.25.13.28h0l.09.11.26.32c.14.2.32.43.51.69l7.66-.43-.52-.09,5.86-.33,1.91-1.3,1-.67.48-.34c.13-.11.35-.18.25-.36s-.1-.59-.14-.78a4.93,4.93,0,0,0-.13-.49,5.21,5.21,0,0,0-.38-.91,8.43,8.43,0,0,0-.79-1.37,12.37,12.37,0,0,0-.75-1c0-.1.14,0,.4.12a6.18,6.18,0,0,1,1.11,1.7,9.68,9.68,0,0,1,.44,1.12,3.6,3.6,0,0,1,.15.63l.05.32.06.4.06.4s0,.07,0,.1l-.08.05-.17.12-.6.43-.91.66-1.88,1.36-4.19.3c-1.37.08-2.77.16-4.28.21-2,.34,3.1-.17,5.34-.18a2.62,2.62,0,0,1-.4,0h.56c-1.65.1-4.33.26-4.77.41,2.76-.15,2-.34,5.42-.39l1.13-.06,1.28-.05.67-.43.47-.3.88-.54.81-.5.44-.29.65-.43c.07-.06.17-.11.21-.18s0-.18-.05-.27-.06-.34-.09-.5l-.09-.44c0-.09,0-.18-.07-.26s-.1-.33-.16-.51A5.31,5.31,0,0,0,248,232a14.84,14.84,0,0,0-.72-1.39,6.31,6.31,0,0,0-.73-1,4,4,0,0,0-.6-.52,3.52,3.52,0,0,0-.8-.4,3.5,3.5,0,0,1,1,.48,4.11,4.11,0,0,1,.8.73,3.64,3.64,0,0,0-1.37-1.16l-.33-.14-.23-.08-.37-.13c-.45-.17-.71-.25-.95-.33s-.48-.15-.92-.31c-.23-.08-.5-.18-.89-.29a4.19,4.19,0,0,0-1.22-.17c.18,0,.24,0,.22,0s-.2,0-.32,0-.19,0,0,.05a4.31,4.31,0,0,1,1.38.22,4.42,4.42,0,0,0-1.53-.15,6.19,6.19,0,0,0-.87.21,2.63,2.63,0,0,1-.8.06l-.44-.06-.23,0-.15,0h-.13l-1-.11L235,227.3c-.62-.05-.14,0-.25.07,1.31.19,2.3.27,3.33.37a4.06,4.06,0,0,0,1.33.08,4.58,4.58,0,0,0,.69-.15,2.41,2.41,0,0,1,.85,0,3.54,3.54,0,0,0-.48.05h.35a1,1,0,0,0,.24,0H241l.31,0a4.42,4.42,0,0,1,.66.1c.48.11.92.25.92.25a17.11,17.11,0,0,1,1.86.92c.15.1-.15,0-.85-.22l.89.35a4,4,0,0,1,.79.35c.06.11-.06.05-.32-.06s-.63-.24-1-.43a9.71,9.71,0,0,0-2.21-.86s.42.13.82.3l.8.33c.15.11,0,.07-.36-.06l-.68-.26a5.05,5.05,0,0,0-1.82-.45,2.41,2.41,0,0,0-.78.13,3.17,3.17,0,0,1-.93.14,5.17,5.17,0,0,1-.94-.11l-.15,0-1-.11a42.6,42.6,0,0,1-4.36-.67l3.36.32c-1.73-.27-4.29-.4-6.23-.66a5.43,5.43,0,0,0-.54-.1c.1,0,.15,0,.15,0-.41-.06-.78-.12-1.09-.19-1.7-.23-4.22-.52-5.8-.77l.18.12.22,0c1.57.22,3.68.57,2.49.48a28.41,28.41,0,0,1-5.05-.9c.83,0,3.44.47,5.24.67-1.06-.29-3.58-.52-7.22-1.09,1.48,0,4.23.57,5.05.53-1.47-.21-2.4-.32-3.34-.43l-1.51-.17c-.56-.07-1.22-.13-2-.19a13.72,13.72,0,0,1,1.88.09,5.7,5.7,0,0,0,1.4.08l-1-.15-1-.15c4.92.62-.82-.31,3,.15-.89-.15-1.52-.2-2.25-.27s-1.62-.11-2.89-.23c.7.11,2.78.36.29.28l-1.34-.1-.69,0h-.32v0s0,0,0-.06l.08,0h.14l.63,0c.33,0,.42,0-.23-.09h-.54l0,0,0,0-.27-.37-.15-.21c0-.07-.09-.17-.18-.14l-1.34-.06a.63.63,0,0,0,.25.05l.2,0,.35,0c.45,0,.65.08-.12.07l-.68,0-.56,0-1.07,0c-.72,0-1.49,0-2.5-.1a21.35,21.35,0,0,0-3.5-.06,11.4,11.4,0,0,0-5.89,3.22,5.89,5.89,0,0,0-.88,1.53,8.77,8.77,0,0,0-.51,1.6,4.89,4.89,0,0,0-.08.85,5.85,5.85,0,0,0,.08.79,11.23,11.23,0,0,1,.1,1.39c-.16-2.41-.09.07-.32,1.57a10.08,10.08,0,0,0,0-2.44c-.08-.31-.14-.26-.18-.17.07.8.06,1.51.09,1.9s.07.46.12,0c-.22,2.94,0,2-.19,4.62-.06,1.69-.14-.85-.2-.27a8.83,8.83,0,0,0,.1,2.08c.06.26.07.54.23,2.3,0-.19-.08-.51-.08-.23a23.73,23.73,0,0,0,.43,2.67c.15.76.27,1.35.34,1.54.11,2,.67,5.48.44,5.12.46,4.44,0-.67.19.2.27,1.81.44,5.19.48,6.25-.08-1.1-.2-2.11-.26-3.17l-.06.95c.3,5.56.53,3.5.81,8.89a10.93,10.93,0,0,0-.36-2.28c.08.83.38,5.05.28,2.49.16,2,.2,3.4.24,4.8.13,1.79.28,3.75.48,4.8.27,2.82.31,4.9.35,6.26.23,3,.35,5.82.49,8.72l.12,2.19c.05.75.06,1.45.16,2.26s.26,1.53.41,2.27c.07.37.15.74.2,1.09v.47l0,.56c-.24,3.93.35-2.41,0,2.45-.1-.7-.4,3-.14,4.8a39.52,39.52,0,0,1,.46,8.24c0,1.29-.14,2.57-.25,3.89a8.89,8.89,0,0,0-.06,1.08,6,6,0,0,0,.14,1.12,11.58,11.58,0,0,0,.69,2.11,4.54,4.54,0,0,1-.64-1.48,27.59,27.59,0,0,0,1.19,3l.29.68.06.16,0,.08v.06l.36.41h0l.32.18.31.17.37.19.68.3.61.29c.18.09.42.23.68.34a4.92,4.92,0,0,0,1.65.39,7,7,0,0,0,3.17-.64l-.16.09a10,10,0,0,0,5.45-4.94c.18-.37.34-.75.49-1.13l.14-.4c0-.09.06-.17.07-.25l-.05-.25-.14-.67c-.63-2.95-1.22-5.95-1.7-9.16.1.52.17.64.26,1-.23-1.62-.5-3.72-.72-5.71s-.42-3.86-.57-5c-.05-1.95-.08-2.59-.14-3.37s-.1-1.7,0-4.19c0-.29,0,.49,0,.82,0-2.45,0-4.19.16-6.66,0-.54,0-1,0-1.5,0-.22,0-.43,0-.63,0,0,0-.07,0-.1,2-1.29,4.4-1.37,9.43-1.86.34.19-3.91.43-4,.63,1.26-.17,2.35-.32,4.12-.44a7.69,7.69,0,0,0-1,.23c.68,0,2-.23,3.23-.44l1.53-.29.47-.1.17,0a7.1,7.1,0,0,0-1.66.17c.74-.16,2.31-.38,4.07-.68s3.73-.71,5.24-1.14c-1,.28-4.13.9-3,.54a33.77,33.77,0,0,0,4.58-1.21c1.18-.4,2.19-.8,3.55-1.34,1.82-.63,1.17-.34.16.1s-2.43,1-2.06.91c.63-.14,2.15-.54.62.05a36.56,36.56,0,0,0,4.39-1.73l4-1.8-.06.07A20,20,0,0,0,252.48,273.22Zm26.17,50.69c0,.08,0,.17-.08.24.08-.25.14-.49.2-.73Zm-2.2-20.29a10.49,10.49,0,0,1,0,1.69,22.6,22.6,0,0,0-.16,3.05c0,.78,0,.51-.1-.08a6.56,6.56,0,0,1-.05-.67,14.43,14.43,0,0,1,.16-2.15,9.64,9.64,0,0,0,.09-1.94s0,0,0,0,0-.43-.06-.86l-.06-.87C276.32,302.42,276.4,303,276.45,303.62Zm-1.84-22.94v.14c0-.21,0-.42,0-.62a5.66,5.66,0,0,1,.5-2.44A7.16,7.16,0,0,0,274.61,280.68Zm22.75-6.05.33-.18h0Zm1.81-1.15a10.09,10.09,0,0,1-1.69.63l2.74-1.2C300,273.06,299.64,273.24,299.17,273.48Zm-9.18-9,.12-.07h.07l-.18.09C289.88,264.55,289.84,264.56,290,264.46Zm-75.94,4.67h0L214,269Z"/><path class="cls-1" d="M260.94,275.55l-.22-.15A1.61,1.61,0,0,0,260.94,275.55Z"/><path class="cls-1" d="M230.53,236.5h0S230.53,236.48,230.53,236.5Z"/><path class="cls-1" d="M240.37,227.33a2.11,2.11,0,0,1,.35,0A2.51,2.51,0,0,0,240.37,227.33Z"/><path class="cls-1" d="M258.52,252.2l.06.33C258.56,252.41,258.54,252.31,258.52,252.2Z"/><path class="cls-1" d="M247,229.92l0,0Z"/><path class="cls-1" d="M241,237.3l-.89,0Z"/><path class="cls-1" d="M280.68,276.08a13.44,13.44,0,0,0,3,0h-1.52Z"/><path class="cls-1" d="M295.39,275.54c-.79.08-3.48.11-3.62.24C292.7,275.61,294.77,275.69,295.39,275.54Z"/><path class="cls-1" d="M306.09,269.85l.06-.2,0-.1v-.05l0,0-.26-.32a5.11,5.11,0,0,0-.74-.75c-.17-.13-.27-.18-.24-.12s.2.23.49.6a2.75,2.75,0,0,1,.55.61c.06,0,0,.11,0,.17a1.67,1.67,0,0,1,0,.18c0,.12-.09.26-.13.4s-.18.55-.28.85l-1.12.48.43-.23.62-.3-3.79,1.75,4-1.6c.19-.49.3-.74.29-.6C306,270.34,306,270.09,306.09,269.85Z"/><path class="cls-1" d="M305.43,271l.17-.54C305.51,270.75,305.44,271,305.43,271Z"/><path class="cls-1" d="M297.69,265.75h0Z"/><path class="cls-1" d="M302.28,267.18a7.94,7.94,0,0,0-.92.21l-.46.12-.17-.14-.44-.38a5.43,5.43,0,0,0-1-.68,6.51,6.51,0,0,0-1.59-.56,8.12,8.12,0,0,1,.91.35,5,5,0,0,1,1.39.76c.23.18.4.33.59.49l.3.25.66-.18a6.71,6.71,0,0,1,1-.21,3.47,3.47,0,0,1,1.83.31,3.18,3.18,0,0,0-1-.36A3.81,3.81,0,0,0,302.28,267.18Z"/><path class="cls-1" d="M272.49,240.4c0,.41,0,.76,0,.24,0,.23.06-.46.12-1s.09-.84,0,0C272.59,239.5,272.52,240,272.49,240.4Z"/><path class="cls-1" d="M213.11,256c0,1.8.06.81.09,2.12C213.22,256.5,213.19,255.55,213.11,256Z"/><polygon class="cls-1" points="213.07 253.91 213.11 253.7 213.17 252.64 213.07 253.91"/><path class="cls-1" d="M212.37,243.51c0-.63-.07-1.18-.06-.68C212.33,242.92,212.35,243.21,212.37,243.51Z"/><path class="cls-1" d="M212.44,244.68c0-.18,0-.52-.05-.85a4.3,4.3,0,0,1,0,.73Z"/><path class="cls-1" d="M212.41,239.77a6.7,6.7,0,0,0-.2.9,8.53,8.53,0,0,0-.08,1c.09,1.08.07.45.08-.14s.08-1.14.13-.17c0,0,0-.41,0-.79S212.41,239.77,212.41,239.77Z"/><path class="cls-1" d="M228.43,236.89a15.09,15.09,0,0,1-3.32.44l-1.44,0a20.77,20.77,0,0,1-4.08-.32c2.61.4-1.77-.15-2.61-.09a59.32,59.32,0,0,1,6,.57,12.81,12.81,0,0,0,2.41,0c.26,0,.11-.06,0-.09s-.21-.06.15-.1A14.22,14.22,0,0,0,228.43,236.89Z"/><path class="cls-1" d="M216,236.68c-.16,0,.38.06,1.06.09l1.91.11A15,15,0,0,0,216,236.68Z"/><path class="cls-1" d="M230.12,236.62a.29.29,0,0,0,.15-.11l-.77.29c-.25.1-.56.21-.76.27l-.37.11s.47-.11.92-.27Z"/><path class="cls-1" d="M232.46,237.9l-.43,0,1.75-.11c.53,0,.82-.06.11-.06l-.85.08Z"/><path class="cls-1" d="M243.81,237.43l.83-.05.3-.23a1,1,0,0,0,.19-.15c.07-.05.11-.09.11-.11s0,0-.1,0l-.54.34-.85,0-.94.05.77,0c-.2,0,1.63,0-.44.14C243.37,237.46,243.6,237.45,243.81,237.43Z"/><path class="cls-1" d="M235,227.08a14.56,14.56,0,0,0,2.18.17l-3-.28Z"/><path class="cls-1" d="M239.51,228.05a4.38,4.38,0,0,0,.67-.15A4.27,4.27,0,0,1,239.51,228.05Z"/><path class="cls-1" d="M238.1,228c.22,0,.44.07.67.09a3.08,3.08,0,0,0,.74,0,4.06,4.06,0,0,1-1.47-.11c-.59-.08-1.21-.14-2.63-.29a14.79,14.79,0,0,0,2,.27C237.66,228,237.86,228,238.1,228Z"/><path class="cls-1" d="M231.61,226.51c.82.05,2.07.22,2.82.31A21.91,21.91,0,0,0,231.61,226.51Z"/><path class="cls-1" d="M221.21,225.36c3.37.41,5.12.41,6.73.82l2.83.13c-2.67-.37-2.08-.1-3.94-.37-1-.18.22,0-.51-.18-2.09-.34-4.3-.64-5.51-.73C221.36,225.16,222.09,225.41,221.21,225.36Z"/><path class="cls-1" d="M229.8,226.81a24.55,24.55,0,0,0,3.76.41l-1.79-.28C232.12,227.06,230.75,226.91,229.8,226.81Z"/><path class="cls-1" d="M205.16,223.3l-.64,0s.33,0,.66,0,.66,0,.66,0,.68,0,1.34,0,1.32.1,1.32.1-1-.11-2-.15C206,223.27,205.54,223.28,205.16,223.3Z"/><path class="cls-1" d="M202.75,223.63a9.84,9.84,0,0,1,1.61-.34,13.81,13.81,0,0,1,1.62-.09l-.11,0a14.06,14.06,0,0,0-1.56.12A9.21,9.21,0,0,0,202.75,223.63Z"/><path class="cls-1" d="M202.17,223.72a8.5,8.5,0,0,1,1.19-.36,8.85,8.85,0,0,1,1.22-.2,9.18,9.18,0,0,0-2.88.74l.23-.09Z"/><path class="cls-1" d="M196.5,229.59a9.06,9.06,0,0,1,.68-1.83c.28-.61.61-1,.5-1a7.92,7.92,0,0,0-.47.82c-.16.34-.29.64-.43,1a7.42,7.42,0,0,0-.48,1.79s0-.22.08-.42A4,4,0,0,1,196.5,229.59Z"/><path class="cls-1" d="M139.51,231.81a.18.18,0,0,0,.08-.06h0l-.18.08Z"/><path class="cls-1" d="M134.83,233.14l.15-.06c-.13,0,0-.07-.63.16s.37.09-.45.56c.16-.08.41-.19.65-.28C134.16,233.6,134.48,233.37,134.83,233.14Z"/><path class="cls-1" d="M134.55,233.52h0l.14,0a2.23,2.23,0,0,1,.34-.14A3.27,3.27,0,0,0,134.55,233.52Z"/><path class="cls-1" d="M105.44,280.43c0-.16-.06-.3-.09-.43A1.69,1.69,0,0,0,105.44,280.43Z"/><path class="cls-1" d="M118.18,265.77a2.21,2.21,0,0,0,0-.49C118.17,265.46,118.17,265.63,118.18,265.77Z"/><path class="cls-1" d="M143.91,231.53l.46.09.27,0Z"/><path class="cls-1" d="M139,231.94c.57-.13,1.15-.22,1.15-.22l-.34,0-.34.05a12.48,12.48,0,0,0-1.59.44S138.47,232.07,139,231.94Z"/><path class="cls-1" d="M151.37,231l.07,0C151.39,231,151.37,231,151.37,231Z"/><path class="cls-1" d="M128.57,235.68a12.25,12.25,0,0,0-1.59,1,7.38,7.38,0,0,1-1.24.5,25.66,25.66,0,0,0-4.3,2.75c.77-.66-.14-.12-.66.23.91-.76.86-.86.73-.9-.59.44-.85.87-.54.68a4,4,0,0,0-.75.67,5.28,5.28,0,0,1-.64.63c-.5.49.12-.36-.08-.22-.46.51-.45.57-.49.68s-.06.2-.53.66c0-.07.11-.16,0-.1a7.22,7.22,0,0,0-1.12,1.2c-.71.35-1.65,1.49-1.66,1.25-1.27,1.32.26-.11.06.19a24.16,24.16,0,0,1-1.79,1.77c.31-.32.55-.64.87-.92l-.36.17c-1.61,1.54-.77,1.21-2.3,2.72.69-.87.17-.34.47-.81-.21.26-1.35,1.51-.6.81-.55.6-.93,1-1.3,1.44a13.25,13.25,0,0,0-1,1.62c-.69.91-1.23,1.57-1.57,2a24.76,24.76,0,0,0-2.91,6.58l.06-.18c-.54,1.91.38-.81-.13,1.18-.11-.29-.38,1.16-.59,1.78a22,22,0,0,0-.58,6.67s-.1-.16-.13-.63a10.16,10.16,0,0,0,.39,2.54,11.33,11.33,0,0,0,.4,1.16c.08.19.17.37.26.56l.24.48,0,0,.06.25c0,.11,0,.16,0,.38l0,.19-.12.29a8.62,8.62,0,0,0-.31.94c0,.17-.08.33-.11.54l0,.17v.29s0,.13,0,.17l0,.11c.26,1.18.57,2.37.92,3.63-.08-.2-.15-.23-.21-.39a21.25,21.25,0,0,0,1.29,4.17c.37,1.54.37,1,1,2.91,0,.12-.1-.17-.16-.3a25,25,0,0,0,1.06,2.52c1.08,1.95,1.59,2.33,2.85,4.52-.12.23-.86-1.3-1-1.26a9.93,9.93,0,0,1,.89,1.39c-.3-.31-.1-.05-.32-.26a7.79,7.79,0,0,0,.74,1l.38.47.16.2s0-.16-.28-.58a18.41,18.41,0,0,1,1.75,3.17c-.14-.36-.65-1.47-.35-1.1.34.73.57,1.19.82,1.63s.49.8.79,1.3c.61,1.42-.68-.93-.67-.62s.22.89-.12.31a18.18,18.18,0,0,0,1.91,3.14h0c1,1.46,2.26,2.79,3.11,3.95l-.45-.63a12.93,12.93,0,0,0,1.13,1.19c-.08,0,.43.67.34.65.37.26,1,.9,1.69,1.51a10,10,0,0,0,1.92,1.49c.31.34,0,.18-.17.13a16.53,16.53,0,0,0-1.54-1.33c.66.62,1.13,1.09,1,1a25.46,25.46,0,0,0,3,1.9c.5.44,1,.81.75.79,2.4,1.4-1-1,1.7.6,1.17.81-1.29-.55.4.46l-.33-.17c1.1,1,1,.3,2.4,1,.13.24-1.06-.38-.11.21,1.36.58,2.05.6,3.4,1.16l-.24,0a17.38,17.38,0,0,0,3.6,1s-.1,0-.28,0a5.13,5.13,0,0,0,1.2.14,9.64,9.64,0,0,1,1,.09l.41-.07c-.72-.05-2.09-.24-3-.34.46,0,.11-.07-.27-.22a4.27,4.27,0,0,1-.54-.22,15.6,15.6,0,0,0,3.8.49,16.2,16.2,0,0,0,3.38-.37l-.51.12h.12s.34-.08.67-.18l.23-.07a20.77,20.77,0,0,0,5.38-2.26,3.51,3.51,0,0,1-1,.76c.57-.27.5-.15.19.08.63-.29,1.89-1,1.62-1l-.22.12c0-.08.33-.3.47-.44.78-.54.42-.17.6-.25,1.28-.93,0-.23,1.11-1.12l.17-.09c.41-.4,1-.94,1.24-1.25l.71-.64,1.15-1c.07.24-1.87,1.61-2.35,2.24.61-.45-.23.39-.43.65l.86-.83.84-.84a3.55,3.55,0,0,0,1-.82l-.14.12c.68-.65.41-.57,1.05-1.07.11-.06,0,.14-.08.19a1.72,1.72,0,0,0,.34-.3l.13-.22a1.3,1.3,0,0,1,.24-.39c.52-.47-.16.33.27-.05a1.37,1.37,0,0,1,.4-.34.88.88,0,0,1,.2-.09l.25-.08a3.22,3.22,0,0,0,1-.52c-.18.05.43-.52.64-1.11.16-.42.24-.75.12-.6a6.78,6.78,0,0,0,.29-1v0c0,.33,0,.67.11.44a5.24,5.24,0,0,1-.22.71,4.6,4.6,0,0,1-.33.68,3,3,0,0,0,.65-1.66c.15-.86.26-1.76.37-2.29a2.46,2.46,0,0,0-.14-.84,3.41,3.41,0,0,0-.7-1.22l0,.16,0,.16a5.19,5.19,0,0,1-.67-.88,9.82,9.82,0,0,0-1.11-.71,2.16,2.16,0,0,1,.52.22,1.58,1.58,0,0,0-.87-.47c-.31-.1-.76-.28-1.24-.42l.22,0,.23,0A2.25,2.25,0,0,0,156,299a4.21,4.21,0,0,0-.58-.11c.12.06.43.21,1.08.46a6.74,6.74,0,0,0-2.44-.42,6.51,6.51,0,0,0-1.16.11c-.39.08-.74.18-1.11.26,0-.07.61-.34.43-.28-.73.21-1.47.6-1.38.66l-.38.16a1.91,1.91,0,0,0-.68.17,2.56,2.56,0,0,0-.46.17c-.17.22-1.5.87-1.72,1.14.3-.18.66-.41,1-.62a10.69,10.69,0,0,1-1.32,1c.88-.76-1.1.61.3-.46-.56.28-.67.42-.77.56a3.37,3.37,0,0,1-.69.75l-.31.29-.3.31a1.78,1.78,0,0,1,.41-.6c.21-.23.4-.41.32-.36l-.21.22-.2.23a6.19,6.19,0,0,1,1.32-1.27,19.32,19.32,0,0,1,2-1.3s-.63.28-1.23.63a11,11,0,0,0-1.17.77,9.56,9.56,0,0,0-1.76,2,8.71,8.71,0,0,0-.66,1.2c-.09.21-.17.42-.25.63l-.12.32-2.33.88-1.21.48-.56.24-.13.06-.07,0-.13.08.06,0s0,.05-.06.1h0l-.07-.06a2.81,2.81,0,0,1-.39-.1c-.52-.35-1.53-.91-2.3-1.53.48.39.48.39.49.49-.16,0-.27,0-1-.53,0-.06.5.26,0-.18.26.23,0,.1-.36-.13s-1-.9-1-1a3.94,3.94,0,0,1,.45.39c.2.14-.71-.66-.12-.27l-.36-.28-.36-.3c-.36-.41.34.16.2,0a30.56,30.56,0,0,1-2.84-2.48c.08,0,.22-.08.17-.06-.67-.85-1.64-1.67-2.41-2.66a9.9,9.9,0,0,1,.67.78c-2.27-3.07-4.17-5.62-5.33-8.93l-.25-.4-.24-.39-.21-.95A39.34,39.34,0,0,0,122.1,284c-.38-.73-.75-1.46-1.13-2.21a9.1,9.1,0,0,1-.93-2.25c-.21-1.1,0-.68,0-1.21-.41-2.44-.71-3-1.14-5.3.1.31.35.82.19-.18a1.85,1.85,0,0,1-.26-.92l.11.31c0-.58-.19-1.13-.35-2.33-.15-1-.41-2.1-.51-3a23.16,23.16,0,0,1-.08-2.74c.3-1.82.16.22.25-.12-.22,1.27-.07.89,0,1.18a4.91,4.91,0,0,1,.29-1.84c.16-.93.27-1.34.44-2.27-.09.47-.25.84-.2.4.22-.75.89-2.63,1-2.46a27.17,27.17,0,0,1,3.56-6.13,35.83,35.83,0,0,1,5-5.46c.57-.6-.49.4-.18,0,.83-.87.74-.58,1.43-1.26l-.25.32c1.11-.9,2.24-1.92,3.36-2.75-.14.2,1-.56.07.12.56-.39,1.49-.44,1.89-.78l-.86,0c0-.06.84-.53.74-.5.56-.23,1.24-.5,1.6-.69.23,0-.69.46-1.18.74,0,.19,1.71-.82,1.08-.29,1-.59-.2,0,.41-.39l1-.45-.75.32a9.89,9.89,0,0,1,2.09-1.14l1-.7c.17.06.82-.38,1.4-.64l-.32.26a15.21,15.21,0,0,1,1.56-.7c-.37.32-.7.32-.83.51l.85-.38c0-.07.47-.38-.15-.13a15,15,0,0,1,3-1.77c.93-.31-.9.56-.47.51,2-.93,2.31-1.51,3.51-2a4,4,0,0,0,1.5-.92,4.19,4.19,0,0,0,.93-1.57c-.06.28.07.05.25-.53s.4-1.3.52-1.57l-.16.95c.09-.4.2-.78.29-1.06,0,0,0,0,0,0h-.07l-.1,0s0,0,0,0c-.23,0-1,.08-2,.12l-.34,0-.29,0-.57.07c-.35,0-.76.09-1,.15l.22.07a7.74,7.74,0,0,1-3,.16,5.59,5.59,0,0,0-1.27-.08l-1,.11c-.63-.08-.57-.18-.36-.31.4,0,1.08,0,1.73.12.46,0,.95.1,1.31.11a7.15,7.15,0,0,0,1.13-.07l1.18-.2c.4-.07.88-.12,1.31-.15s.06-.13-.43-.05-1.26.23-1.68.23a.46.46,0,0,1,.15,0h-.21c.31,0,.71-.11,1.09-.19a2.62,2.62,0,0,0,.77-.22c-1.11.13-.81.36-2.1.38a2.9,2.9,0,0,1-1.2-.06l-.52-.15a4,4,0,0,0-.53-.12,5.77,5.77,0,0,0-.87.1c-.32,0-.76.05-1.63.09l.37-.09L142,231a3.82,3.82,0,0,0-1.43.19,6.54,6.54,0,0,1-1.28.31c.63-.1-.56.25.61,0-.57.17-1.82.49-2.73.78-.23.1,0,.06-.06.12a12.63,12.63,0,0,1,2.46-.64l.34-.14.36-.14c1-.07,1.1.07.51.18a3.21,3.21,0,0,1,.72-.06c.18.2-1.18,0-1.49.28l.34-.06.34-.05c.12,0-.11.1-.49.17a15.08,15.08,0,0,0-2.15.5,10.24,10.24,0,0,1-1.7.41l.62-.27.63-.24a12.18,12.18,0,0,0-2.31,1l-.22.06h.07a3.34,3.34,0,0,1-.41.14c-.63.27-1.52.74-2.11,1l.11.06.06-.09c.57-.24,1.37-.53,1-.28a4.55,4.55,0,0,1-1.93.64,12.31,12.31,0,0,1,1.89-.89A26.86,26.86,0,0,0,131,235c.47-.39,1.55-.69,1.78-1-1.08.45-1.32.67-2.46,1.15.11-.14,1.21-.64,1.1-.69l-.75.28c1.78-.8-.39,0,1-.7-.68.23-.86.53-1.83.86.29-.06,1.08-.28.22.19l-1,.42c-.45.12,1-.65.29-.4l-1,.55C128.34,235.69,128.85,235.48,128.57,235.68Zm22.17,78.42.56-.41a9.73,9.73,0,0,1-2.11,1.57c-.4.17-.11,0,.19-.28a13.07,13.07,0,0,0,1.34-.9Zm7.88-6.47a2,2,0,0,1-1,.6l-.1,0a3.49,3.49,0,0,0,1.11-.62Zm-1.24-8.16-.16,0h0Zm-.28.35a8.36,8.36,0,0,0-1.13-.39,1.8,1.8,0,0,1,.48,0C157,299.68,157.09,299.77,157.1,299.82Z"/><path class="cls-1" d="M146.43,231.29l.34,0Z"/><path class="cls-1" d="M138.5,241.05c.59-.25.92-.44.72-.45C138.58,240.92,139,240.8,138.5,241.05Z"/><polygon class="cls-1" points="140.45 240.1 139.95 240.22 140.05 240.22 140.45 240.1"/><path class="cls-1" d="M144,238.39a1.11,1.11,0,0,1-.22.15C144,238.42,144.13,238.31,144,238.39Z"/><path class="cls-1" d="M143.62,238.6a.6.6,0,0,1-.27.1l0,.07Z"/><path class="cls-1" d="M144.54,238.2l.6-.38-.81.25C143.57,238.51,145.25,237.7,144.54,238.2Z"/><path class="cls-1" d="M150.07,235.21a2.48,2.48,0,0,0,.67-1c0-.12,0-.08-.08,0s-.11,0,0-.11l.16-.39a3.24,3.24,0,0,0,.12-.34c0-.14.1-.37.16-.6-.06.22-.13.44-.18.58s-.1.26-.15.37-.18.38-.25.52l-.33.59a1.76,1.76,0,0,1-.38.49,3.8,3.8,0,0,1-1.11.66c.54-.2.37-.1,0,.08s-.78.38-.93.47a9.22,9.22,0,0,0,1.2-.62C149.41,235.66,149.8,235.35,150.07,235.21Z"/><path class="cls-1" d="M148.38,236a4.84,4.84,0,0,0-1.1.48C147.2,236.58,148.12,236.15,148.38,236Z"/><polygon class="cls-1" points="151.71 231.62 151.73 231.33 151.31 232.86 151.71 231.62"/><path class="cls-1" d="M149.87,230.78l.65-.06c-.22,0-.81,0-1.2.06s-.37.05-.07.06Z"/><path class="cls-1" d="M145.74,231.22h-.27c.07,0-.55-.11.15-.13a1.57,1.57,0,0,0-.58.07S145.14,231.27,145.74,231.22Z"/><path class="cls-1" d="M137.09,232.06c.42-.15.93-.32.83-.34l-.59.21-.58.23Z"/><path class="cls-1" d="M137.43,232.5c.42,0,1.07-.36,1.87-.49A10.43,10.43,0,0,0,137.43,232.5Z"/><path class="cls-1" d="M135.7,232.4a6.13,6.13,0,0,1,1.08-.44A2.9,2.9,0,0,0,135.7,232.4Z"/><path class="cls-1" d="M132,234.3a11,11,0,0,1,2.41-1.18l.94-.67c-1,.41-.69.48-1.38.77-.38.11,0-.1-.24,0a11.42,11.42,0,0,0-2,.91C131.94,234.08,132.28,234.1,132,234.3Z"/><path class="cls-1" d="M135.25,233.16c.24.07,1-.47,1.39-.62l-.7.2C136.1,232.75,135.59,233,135.25,233.16Z"/><polygon class="cls-1" points="126.31 236.89 127.22 236.41 125.85 237.09 126.31 236.89"/><polygon class="cls-1" points="126.31 236.77 126.25 236.75 125.23 237.33 126.31 236.77"/><polygon class="cls-1" points="125.8 236.91 124.83 237.41 125 237.34 125.8 236.91"/><path class="cls-1" d="M123.18,238.27a11.92,11.92,0,0,1-1.24.71l.29-.1C122.56,238.64,123.29,238.31,123.18,238.27Z"/><path class="cls-1" d="M168.07,239a.09.09,0,0,0,0-.06v0l0,.13Z"/><path class="cls-1" d="M167.91,242.29v-.12c-.06.09-.08,0-.08.45s.21-.22.36.41a3.33,3.33,0,0,1,0-.48C168.11,242.82,168,242.57,167.91,242.29Z"/><path class="cls-1" d="M168.17,242.55v0s0-.06,0-.1a1,1,0,0,1,0-.25A1.64,1.64,0,0,0,168.17,242.55Z"/><path class="cls-1" d="M168.56,284c0-.11,0-.21,0-.3A.69.69,0,0,0,168.56,284Z"/><path class="cls-1" d="M181.89,253c0,.13,0,.26,0,.36A1.09,1.09,0,0,0,181.89,253Z"/><path class="cls-1" d="M168.27,236a2.81,2.81,0,0,0,.1-.31c0-.06,0-.11,0-.19Z"/><path class="cls-1" d="M168.1,240.1v-.79c0-.39,0-.79,0-.79l-.05.46C168.13,239.2,168,239.88,168.1,240.1Z"/><path class="cls-1" d="M186.35,310.49a.7.7,0,0,0-.11-.23l0,.12c-.23-.6-.29-.4-.42-.94,0-.09.1.06.13.1-.13-.5-.19-.39-.32-.71-.13-.49.19.21.1-.21a6.35,6.35,0,0,1-.44-1.39c-.06.22-.75-1.37-.73-1l-.12-.28-.15-.38c.14.17.28.34.29.15l.18.46.18.46c.07-.11-.16-.6-.4-1.1a3.57,3.57,0,0,1-.42-1.45,5.62,5.62,0,0,1-.21-1.34l-.16.2c-.05-.51,0-.69.06-.72-.06-.29-.1-.56-.13-.83a1,1,0,0,1,.11.34c.05-.39,0-.5-.07-.62a3.88,3.88,0,0,1-.15-.83l.11.27a1.36,1.36,0,0,0-.13-.44,2.32,2.32,0,0,0-.06-.38,2.38,2.38,0,0,0-.1.78c-.07-1.19-.21-2.12-.26-3.17.07,0,.21.44.19.31-.06-.52-.29-1.06-.36-1,0-.12-.06-.2-.08-.28a1.13,1.13,0,0,0,0-.49,1.11,1.11,0,0,0-.08-.33,2.22,2.22,0,0,1-.36-.61,2.84,2.84,0,0,0-.37-.62l.37.74c-.26-.36-.59-.62-.6-.92.18.3.14.11.12,0s0-.21.18.21c-.07-.34-.1-.41-.18-.49a.63.63,0,0,1-.15-.55l.06-.56c.06,0,.08.27.09.46s0,.33,0,.28a1.6,1.6,0,0,0,0-.17l0-.19a3.76,3.76,0,0,0,.22.95,2,2,0,0,0,.15.29l.22.38c.14.25.26.5.38.72a8,8,0,0,0-.37-.91l-.16-.32a1.42,1.42,0,0,1-.08-.18c0-.11-.06-.19-.06-.19a2.07,2.07,0,0,1-.12-.68c0-.29,0-.6,0-.9,0-.61-.05-1.24-.07-1.85a30.94,30.94,0,0,0-.27-3.35v.08s0-.05-.08-.08l0-.08-.1-.38c.09-.43.09-1.24.15-1.92-.06.43-.06.43-.14.47s-.16-.15-.14-.78c.08,0,.09.38.14-.09,0,.24-.09,0-.11-.25s.05-.95.13-1a1.73,1.73,0,0,1,0,.41c0,.16.07-.67.14-.18l0-.65c.07-.37.1.25.15.1-.06-1.06-.21-1.62-.24-2.6,0,.05.21.06.16.05.07-.75-.14-1.62-.13-2.48a3.64,3.64,0,0,1,0,.71c.14-2.62.22-4.76.38-7.24l-.18-.65.1-.65c0-1.31-.06-2.46-.15-3.58l-.06-.83,0-.41v-.38c0-.58,0-1.17,0-1.8,0-.78.13-.46.18-.83a29.14,29.14,0,0,0-.45-3.72c.07.22.24.57.21-.1a.89.89,0,0,1-.13-.62l.06.21c.07-.39,0-.74.05-1.55a33.07,33.07,0,0,0-.06-4c.11-1.29.18.14.23-.1-.13.9,0,.63,0,.83a3,3,0,0,1,.15-1.3,9.84,9.84,0,0,0,0-1.63c0,.33-.07.61-.11.3.09-.55.14-2,.29-1.86.08-1.59.16-3.27.24-5l.12-2.56c0-.43,0-.88.09-1.2a4.86,4.86,0,0,1,.31-1c.13-.48-.18.34-.12.07.2-.74.29-.44.56-1.16l-.07.32a5.75,5.75,0,0,0,.54-3.24c.1.17.08-.84.14,0a2.57,2.57,0,0,1,.18-.79,1.54,1.54,0,0,0,.05-.3c0-.11,0-.23,0-.34a1.18,1.18,0,0,0-.31-.49s.07.27.11.49-.09.25-.11.34l-.06.14a.65.65,0,0,1,0-.18c0-.1,0-.23-.1-.31l-.2-.26s0-.06,0,0a7.18,7.18,0,0,0-.59-1.06c0-.18.43.42.65.72.18-.05-.71-1.12-.24-.76-.54-.67,0,.15-.36-.22l-.22-.31-.24-.31.17.25c.09.12.17.25.17.25-.22-.24-.4-.38-.58-.55s-.19-.17-.31-.28a4.65,4.65,0,0,0-.49-.46,4.06,4.06,0,0,0-.48-.18,3.6,3.6,0,0,0-.48-.12c0-.07-.14-.13-.3-.18a5.72,5.72,0,0,0-.91-.11l.3-.07a4.77,4.77,0,0,1-1.14-.16c.31-.09.48.07.63,0l-.3,0-.29-.05c0,.08-.38.1,0,.19a3.47,3.47,0,0,1-.8.06,8.91,8.91,0,0,0-1.67-.1c-.37,0-.18-.09.08-.13s.58-.06.42-.13a3.39,3.39,0,0,0-1.79.37,7.88,7.88,0,0,1-1.09.53,4.23,4.23,0,0,0-1.06.47c-.24.15-.48.3-1,.64.26-.3-.76.4-1,.51l.32-.39c-.28.26-.57.48-.53.35.06,0-.23.31-.56.71a8,8,0,0,0-.91,1.27l.17-.06a10.64,10.64,0,0,0-.53,1c-.16.44-.23.77-.34,1.11a4.25,4.25,0,0,0-.05,1.57c-.15.41-.25.35-.35.2.08-.27.11-.73.24-1.16s.08-.62.13-.91,0-.3.08-.44a3,3,0,0,1,.13-.49,5.78,5.78,0,0,1,.95-1.58c.16-.61-.55.72-.91,1.24,0,0,0-.07,0-.11l-.09.14a7.29,7.29,0,0,0,.6-1.28c-.45.68-.15.61-.74,1.41l-.09.17-.05.18-.09.25a4.28,4.28,0,0,1-.19.43c-.11.28-.23.52-.29.74a5.18,5.18,0,0,1,0,1.71l-.09-.53c-.13,1.34.13.65.07,1.86,0-.42.13.42.16-.39a18,18,0,0,1,.06,1.92c0,.17,0,0,.09.06a13.62,13.62,0,0,1,0-1.72l-.13-.51c.1-.67.23-.72.26-.31a1.83,1.83,0,0,1,0-.49c.23-.09-.15.79,0,1v-.46c.06-.08.09.11.09.39,0,.47,0,.95,0,1.43a3.9,3.9,0,0,1-.14,1.22l-.09-.91a9.2,9.2,0,0,0,.14,1.7.49.49,0,0,0,0,.15s0-.05,0-.05a1,1,0,0,1,0,.3c0,.47.16,1.14.16,1.58l.09-.06-.06-.06c0-.42,0-1,.08-.69a2.15,2.15,0,0,1-.09,1.39c-.16-.2-.08-.93-.17-1.41a14.64,14.64,0,0,0,0,2c-.19-.38-.09-1.15-.25-1.35,0,.79.17,1,.18,1.82-.07-.09-.14-.9-.23-.84v.54c-.11-1.31-.18.24-.3-.78,0,.48.2.69.12,1.32.06-.18.16-.7.26-.09l0,.36,0,.36c-.08.29-.16-.75-.23-.29l0,.38V247c.05,0,.09-.38.15-.15-.07.44.14.74.19,1.29a3.44,3.44,0,0,1-.09.91c.11,1.08.06,2.43.16,3.43-.07-.68-.16,0-.25.42,0-.78-.14-.79-.24-.74,0,.47.14.79.2.55-.09.79.09.55,0,1.24-.07.45-.14-.23-.2-.08,0,.86.17.24.11,1.17,0-.05,0-.14-.06-.07a3,3,0,0,0,.08,1.15c-.21.53,0,1.51-.2,1.4,0,1.21.1-.18.17.06a8.23,8.23,0,0,1,0,1.7,8.26,8.26,0,0,1,0-.86l-.14.25c-.11,1.52.28,1,.17,2.43-.07-.76-.1-.25-.19-.63,0,.23,0,1.38.1.68,0,.55,0,.93,0,1.31a6.9,6.9,0,0,0,.21,1.3,12.23,12.23,0,0,1-.08,1.72c.2,1.61.17,3.1.42,4.78v-.12c.09,1.3.12-.6.23.76-.17-.17,0,.82-.09,1.27.05,1.66.32,2.86.26,4.39,0,0-.08-.11-.09-.41,0,1.18,0,2.11,0,3.17l0,0a29.63,29.63,0,0,0,.25,5c0-.14-.1-.17-.12-.28a13.91,13.91,0,0,0,.28,2.92c-.1,1.06.09.69,0,2,0,.08,0-.13,0-.22,0,.66,0,1.13,0,1.8a15.57,15.57,0,0,1,.26,3.52c-.22.08,0-1-.2-1.08a4.41,4.41,0,0,1,0,1.1c-.08-.29-.06-.07-.13-.26a3,3,0,0,0,.06.85c0,.16,0,.3.06.41s0,.18,0,.17.08-.1.09-.43a1.77,1.77,0,0,1,0,.44c0,.11,0,.22,0,.34s0,.3,0,.44a10.61,10.61,0,0,0,.29,1.47c-.05-.25-.19-1.12,0-.82.19,1.12.47,1.4.62,2.15,0,.5-.09.31-.15,0s-.18-.64-.24-.54-.13.55-.22.17c0,.42.06.76.06,1.09v1.22l0,0a20.59,20.59,0,0,0,.61,3.49l-.07-.52a7.83,7.83,0,0,0,.36,1.06c-.07,0,0,.55-.05.51.35.54.77,2.46,1.06,2.95,0,.3-.13.08-.2,0a4.33,4.33,0,0,0-.33-1.3c.15.58.18,1,.11.94a22.69,22.69,0,0,1,.67,2.21c-.06.44,0,.91-.18.75.17,1,.25.72.28.5s.07-.39.31.66-.41-.9-.09.44l-.09-.24c0,1.05.41.61.82,1.62-.09.2-.42-.66-.22.09a6,6,0,0,0,.68,1c.24.22.36.79,1,.9h-.2l2.36.92s-.07,0-.19,0a3.44,3.44,0,0,0,.75.28l.21.07c.11,0,.31,0,.54.08l.28-.08-.44-.05-.3,0-.28-.12a5.22,5.22,0,0,0-1-.35c.44.09-.19-.23-.43-.43l1.74.67c.24,0,.48,0,.71,0a11.46,11.46,0,0,0,2.34-.23l-.39.09.09,0,.45-.13.12,0a7.49,7.49,0,0,0,3.5-1.9,1.55,1.55,0,0,1-.57.7c.36-.25.35-.14.17.07.41-.28,1.14-1,.95-.93l-.14.12a2.41,2.41,0,0,1,.22-.4c.41-.5.27-.17.38-.25.66-.88-.1-.19.44-1l.1-.09a5.88,5.88,0,0,0,.42-1.12c.12-.27.24-.55.35-.83-.09-.27-.16-.51-.24-.77.05,0,.1.07.15.19l.1.28a1.21,1.21,0,0,0,.05.18c0,.06.05.12,0,.18a9.6,9.6,0,0,0-.54,1.28c.29-.44,0,.33-.05.55,0,0,.18-.38.32-.76s.26-.78.27-.8a.85.85,0,0,0,.11-.16c0-.07.14-.16.09-.27A2.14,2.14,0,0,0,186.35,310.49ZM185,307.3a2,2,0,0,1,.27.83l-.27-.81Zm-1.29-6.25,0-.1h0Zm-.43,0c0-.26-.07-.53-.1-.79a3,3,0,0,1,.14.3C183.34,300.86,183.32,301,183.28,301Zm1.39,12.72.15-.18.14-.19a4.67,4.67,0,0,1-1.07,1.45c-.24.16-.11,0,0-.24a8.58,8.58,0,0,0,.73-.85Z"/><path class="cls-1" d="M181.68,283.6c0,.13.12-.76.07-.25C181.69,283.22,181.62,283.89,181.68,283.6Z"/><path class="cls-1" d="M181.11,229.94c.52.29.26.07.66.31C181.31,229.88,181,229.81,181.11,229.94Z"/><path class="cls-1" d="M180.44,229.64l-.06,0,.11.1Z"/><path class="cls-1" d="M180.38,229.6l0,0a1.72,1.72,0,0,1-.3-.11l.3.12Z"/><path class="cls-1" d="M177.67,229.12c-.21,0-.38-.06-.22,0A.57.57,0,0,1,177.67,229.12Z"/><path class="cls-1" d="M178,229.16l-.2,0a.34.34,0,0,1,.16.07Z"/><path class="cls-1" d="M177,229.17c.35,0,.16,0,0-.09s-.41-.1,0-.14a2.48,2.48,0,0,0-.3,0,2.66,2.66,0,0,0-.3,0l.35.07Z"/><path class="cls-1" d="M171.36,231.19a4.49,4.49,0,0,0,1.07-.79c.14-.16.27-.33,1-.59-.76.19.46-.27.69-.36-.57.12-1.29.65-1.65.67-.74.43-.6.46-.52.47S172.12,230.62,171.36,231.19Z"/><path class="cls-1" d="M174.5,229.63c.06-.11-.64.1-.83.23A3.08,3.08,0,0,0,174.5,229.63Z"/><path class="cls-1" d="M171.23,231l-.23.13a2.34,2.34,0,0,0-.22.14l-.08.12.26-.2Z"/><path class="cls-1" d="M169.87,232l.15-.22c-.1.14-.61.71-.28.44Z"/><path class="cls-1" d="M168.23,234.48l-.09.24c0-.07-.26.42-.08-.16C167.88,235,167.94,235.49,168.23,234.48Z"/><path class="cls-1" d="M167.59,240l.07.83,0-.23C167.67,240.3,167.64,239.94,167.59,240Z"/><path class="cls-1" d="M168.2,240.47c.12-.28,0-.77,0-1.32A9.27,9.27,0,0,0,168.2,240.47Z"/><path class="cls-1" d="M167.49,240.79a1.48,1.48,0,0,0,0,.78A3,3,0,0,1,167.49,240.79Z"/><path class="cls-1" d="M167.68,242.88c0,.27-.08-.06-.09.15a5.14,5.14,0,0,0,.14,1.49c.05-.15.18-.37.26-.14-.12-.9-.4-1.35-.25-1.82l-.29-.75C167.47,242.55,167.66,242.37,167.68,242.88Z"/><path class="cls-1" d="M168.09,242c.16-.14-.08-.74-.1-1l-.05.49C168,241.38,168,241.75,168.09,242Z"/><polygon class="cls-1" points="167.95 247.84 167.96 248.89 167.98 248.56 167.95 247.84"/><polygon class="cls-1" points="167.83 248.54 167.9 249.34 167.88 248.52 167.83 248.54"/><polygon class="cls-1" points="167.8 249.48 167.78 248.87 167.79 249.6 167.8 249.48"/><path class="cls-1" d="M167.76,251.57c0-.26.09-.78,0-.73a3,3,0,0,1-.06.92Z"/></svg>